SplineFontDB: 3.0
FontName: Muli-Bold
FullName: Muli Bold
FamilyName: Muli
Weight: Bold
Copyright: Digitized data Copyright (c) 2011-2014, vernon adams.
Version: 2
ItalicAngle: 0
UnderlinePosition: 0
UnderlineWidth: 0
Ascent: 1638
Descent: 410
sfntRevision: 0x00000000
UFOAscent: 1560
UFODescent: -556
LayerCount: 2
Layer: 0 0 "Back"  1
Layer: 1 0 "Fore"  0
FSType: 0
OS2Version: 0
OS2_WeightWidthSlopeOnly: 0
OS2_UseTypoMetrics: 1
CreationTime: 1391649518
ModificationTime: 1391665254
PfmFamily: 17
TTFWeight: 700
TTFWidth: 5
LineGap: 0
VLineGap: 0
OS2TypoAscent: 2364
OS2TypoAOffset: 0
OS2TypoDescent: -582
OS2TypoDOffset: 0
OS2TypoLinegap: 0
OS2WinAscent: 2364
OS2WinAOffset: 0
OS2WinDescent: 582
OS2WinDOffset: 0
HheadAscent: 2364
HheadAOffset: 0
HheadDescent: -582
HheadDOffset: 0
OS2Vendor: 'NeWT'
Lookup: 258 0 0 "'kern' Horizontal Kerning in Latin lookup 0"  {"'kern' Horizontal Kerning in Latin lookup 0 subtable"  } ['kern' ('latn' <'dflt' > ) ]
MarkAttachClasses: 1
DEI: 91125
LangName: 1033 "" "" "" "" "" "Version 2" "" "Muli is a trademark of Vernon Adams and may be registered in certain jurisdictions." "newtypography" "Vernon Adams" "" "newtypography.co.uk" "newtypography.co.uk" "Copyright (c) 2014, vernon adams.+AAoACgAA-This Font Software is licensed under the SIL Open Font License, Version 1.1.+AAoA-This license is available with a FAQ at:+AAoA-http://scripts.sil.org/OFL+AAoA" "http://scripts.sil.org/OFL" "" "Muli" "Bold" 
PickledData: "(dp1
S'com.typemytype.robofont.foreground.layerStrokeColor'
p2
(F0.5
F0
F0.5
F0.69999999999999996
tp3
sS'com.schriftgestaltung.fontMasterID'
p4
S'CAA31E91-2985-420A-82BA-6B4D8404D924'
p5
sS'GSDimensionPlugin.Dimensions'
p6
(dp7
S'CAA31E91-2985-420A-82BA-6B4D8404D924'
p8
(dp9
ssS'com.superpolator.editor.generateInfo'
p10
S'Generated with LTR Superpolator version 120823_1018_beta_'
p11
sS'com.typemytype.robofont.b.layerStrokeColor'
p12
(F1
F0.75
F0
F0.69999999999999996
tp13
sS'com.schriftgestaltung.useNiceNames'
p14
I01

StartChar: A
Encoding: 65 65 0
Width: 1458
VWidth: 0
Flags: HW
PickledData: "(dp1
S'org.robofab.postScriptHintData'
p2
(dp3
sS'com.typemytype.robofont.layerData'
p4
(dp5
s."
LayerCount: 2
Fore
SplineSet
524 592 m 1
 914 592 l 1
 850 782 786 971 721 1159 c 1
 656 970 590 781 524 592 c 1
12 0 m 1
 597 1456 l 1
 855 1456 l 1
 1445 0 l 1
 1158 0 l 1
 1017 355 l 1
 429 355 l 1
 291 0 l 1
 12 0 l 1
EndSplineSet
EndChar

StartChar: AE
Encoding: 198 198 1
Width: 2215
VWidth: 0
Flags: HW
PickledData: "(dp1
S'org.robofab.postScriptHintData'
p2
(dp3
sS'com.typemytype.robofont.layerData'
p4
(dp5
S'b'
(dp6
S'name'
p7
S'AE'
p8
sS'lib'
p9
(dp10
sS'unicodes'
p11
(tsS'width'
p12
F2073.5500000000002
sS'contours'
p13
(tsS'components'
p14
(tsS'anchors'
p15
(tsss."
LayerCount: 2
Fore
SplineSet
634 558 m 1
 1101 558 l 1
 1054 1230 l 1
 1020 1230 l 1
 634 558 l 1
19 0 m 1
 886 1456 l 1
 1970 1456 l 1
 1970 1230 l 1
 1313 1230 l 1
 1347 854 l 1
 1968 854 l 1
 1968 634 l 1
 1375 634 l 1
 1414 226 l 1
 1996 226 l 1
 1996 0 l 1
 1148 0 l 1
 1119 355 l 1
 535 355 l 1
 333 0 l 1
 19 0 l 1
EndSplineSet
EndChar

StartChar: B
Encoding: 66 66 18
Width: 1367
VWidth: 0
Flags: HW
PickledData: "(dp1
S'org.robofab.postScriptHintData'
p2
(dp3
sS'com.typemytype.robofont.layerData'
p4
(dp5
S'b'
(dp6
S'name'
p7
S'B'
sS'lib'
p8
(dp9
sS'unicodes'
p10
(tsS'width'
p11
F1346.45
sS'contours'
p12
(tsS'components'
p13
(tsS'anchors'
p14
(tsss."
LayerCount: 2
Fore
SplineSet
444 852 m 1
 661 852 l 2
 787 852 919 896 919 1051 c 0
 919 1203 807 1238 608 1238 c 2
 444 1238 l 1
 444 852 l 1
447 217 m 1
 676 217 l 2
 874 217 983 284 983 422 c 0
 983 595 902 646 670 646 c 2
 447 646 l 1
 447 217 l 1
190 0 m 1
 190 1456 l 1
 593 1456 l 2
 844 1456 1189 1429 1189 1083 c 0
 1189 957 1138 842 996 772 c 1
 1177 724 1256 580 1256 411 c 0
 1256 195 1086 0 721 0 c 2
 190 0 l 1
EndSplineSet
EndChar

StartChar: C
Encoding: 67 67 20
Width: 1436
VWidth: 0
Flags: HW
PickledData: "(dp1
S'org.robofab.postScriptHintData'
p2
(dp3
sS'com.typemytype.robofont.guides'
p4
(tsS'com.typemytype.robofont.layerData'
p5
(dp6
S'b'
(dp7
S'name'
p8
S'C'
sS'lib'
p9
(dp10
sS'unicodes'
p11
(tsS'width'
p12
F1394.1500000000001
sS'contours'
p13
((dp14
S'points'
p15
((dp16
S'segmentType'
p17
S'curve'
p18
sS'x'
F785
sS'smooth'
p19
I01
sS'y'
F-23
s(dp20
S'y'
F-23
sS'x'
F346
sg19
I00
s(dp21
S'y'
F309
sS'x'
F108
sg19
I00
s(dp22
g17
S'curve'
p23
sS'x'
F108
sg19
I01
sS'y'
F713
s(dp24
S'y'
F1125
sS'x'
F108
sg19
I00
s(dp25
S'y'
F1483
sS'x'
F371
sg19
I00
s(dp26
g17
S'curve'
p27
sS'x'
F814
sg19
I01
sS'y'
F1483
s(dp28
S'y'
F1483
sS'x'
F995
sg19
I00
s(dp29
S'y'
F1437
sS'x'
F1144
sg19
I00
s(dp30
g17
S'curve'
p31
sS'x'
F1265
sg19
I00
sS'y'
F1329
s(dp32
g17
S'line'
p33
sS'x'
F1200
sg19
I00
sS'y'
F1219
s(dp34
S'y'
F1295
sS'x'
F1099
sg19
I00
s(dp35
S'y'
F1334
sS'x'
F969
sg19
I00
s(dp36
g17
S'curve'
p37
sS'x'
F833
sg19
I01
sS'y'
F1334
s(dp38
S'y'
F1334
sS'x'
F464
sg19
I00
s(dp39
S'y'
F1022
sS'x'
F291
sg19
I00
s(dp40
g17
S'curve'
p41
sS'x'
F291
sg19
I01
sS'y'
F712
s(dp42
S'y'
F398
sS'x'
F291
sg19
I00
s(dp43
S'y'
F125
sS'x'
F453
sg19
I00
s(dp44
g17
S'curve'
p45
sS'x'
F811
sg19
I01
sS'y'
F125
s(dp46
S'y'
F125
sS'x'
F974
sg19
I00
s(dp47
S'y'
F172
sS'x'
F1134
sg19
I00
s(dp48
g17
S'curve'
p49
sS'x'
F1243
sg19
I00
sS'y'
F268
s(dp50
g17
S'line'
p51
sS'x'
F1301
sg19
I00
sS'y'
F127
s(dp52
S'y'
F28
sS'x'
F1178
sg19
I00
s(dp53
S'y'
F-23
sS'x'
F996
sg19
I00
stp54
stp55
sS'components'
p56
(tsS'anchors'
p57
(tsss."
LayerCount: 2
Fore
SplineSet
835 -22 m 0
 456 -22 106 241 106 727 c 0
 106 1236 469 1483 815 1483 c 0
 981 1483 1148 1446 1301 1326 c 1
 1202 1149 l 1
 1066 1243 948 1264 836 1264 c 0
 590 1264 372 1064 372 730 c 0
 372 402 581 197 852 197 c 0
 980 197 1117 234 1254 344 c 1
 1339 143 l 1
 1182 21 1011 -22 835 -22 c 0
EndSplineSet
EndChar

StartChar: D
Encoding: 68 68 27
Width: 1571
VWidth: 0
Flags: HW
PickledData: "(dp1
S'org.robofab.postScriptHintData'
p2
(dp3
sS'com.typemytype.robofont.layerData'
p4
(dp5
S'b'
(dp6
S'name'
p7
S'D'
sS'lib'
p8
(dp9
sS'unicodes'
p10
(tsS'width'
p11
F1526.5999999999999
sS'contours'
p12
(tsS'components'
p13
(tsS'anchors'
p14
(tsss."
LayerCount: 2
Fore
SplineSet
190 0 m 1
 190 1456 l 1
 596 1456 l 2
 1190 1456 1465 1191 1465 737 c 0
 1465 255 1176 0 637 0 c 2
 190 0 l 1
444 218 m 1
 650 218 l 2
 999 218 1196 394 1196 738 c 0
 1196 1056 1016 1238 619 1238 c 2
 444 1238 l 1
 444 218 l 1
EndSplineSet
EndChar

StartChar: DEL
Encoding: 127 127 28
Width: 1521
VWidth: 0
Flags: HW
PickledData: "(dp1
S'org.robofab.postScriptHintData'
p2
(dp3
s."
LayerCount: 2
Fore
SplineSet
188 0 m 1
 188 1456 l 1
 1333 1456 l 1
 1333 0 l 1
 188 0 l 1
360 124 m 1
 1161 124 l 1
 1161 1330 l 1
 360 1330 l 1
 360 124 l 1
EndSplineSet
EndChar

StartChar: Delta
Encoding: 916 916 32
Width: 1502
VWidth: 0
Flags: HW
PickledData: "(dp1
S'org.robofab.postScriptHintData'
p2
(dp3
s."
LayerCount: 2
Fore
SplineSet
322 217 m 1
 1122 217 l 1
 710 1159 l 1
 322 217 l 1
61 0 m 1
 61 219 l 1
 611 1456 l 1
 882 1456 l 1
 1436 234 l 1
 1436 0 l 1
 61 0 l 1
EndSplineSet
EndChar

StartChar: E
Encoding: 69 69 35
Width: 1249
VWidth: 0
Flags: HW
PickledData: "(dp1
S'org.robofab.postScriptHintData'
p2
(dp3
sS'com.typemytype.robofont.layerData'
p4
(dp5
s."
LayerCount: 2
Fore
SplineSet
190 0 m 1
 190 1456 l 1
 1109 1456 l 1
 1109 1238 l 1
 444 1238 l 1
 444 849 l 1
 1073 849 l 1
 1073 630 l 1
 447 630 l 1
 447 218 l 1
 1138 218 l 1
 1138 0 l 1
 190 0 l 1
EndSplineSet
EndChar

StartChar: Eng
Encoding: 330 330 46
Width: 1622
VWidth: 0
Flags: HW
PickledData: "(dp1
S'org.robofab.postScriptHintData'
p2
(dp3
sS'com.typemytype.robofont.layerData'
p4
(dp5
s."
LayerCount: 2
Fore
SplineSet
1428 1456 m 1
 1428 1 l 2
 1428 -347 1206 -474 882 -474 c 4
 882 -279 l 4
 1044 -279 1188 -256 1188 -41 c 2
 1188 98 l 1
 556 947 l 1
 425 1138 l 1
 425 0 l 1
 193 0 l 1
 193 1456 l 1
 460 1456 l 1
 1061 637 l 1
 1188 450 l 1
 1188 1456 l 1
 1428 1456 l 1
EndSplineSet
EndChar

StartChar: Euro
Encoding: 8364 8364 50
Width: 1460
VWidth: 0
Flags: HW
PickledData: "(dp1
S'org.robofab.postScriptHintData'
p2
(dp3
sS'com.typemytype.robofont.layerData'
p4
(dp5
S'b'
(dp6
S'name'
p7
S'Euro'
p8
sS'lib'
p9
(dp10
sS'unicodes'
p11
(tsS'width'
p12
I1190
sS'contours'
p13
(tsS'components'
p14
(tsS'anchors'
p15
(tsss."
LayerCount: 2
Fore
SplineSet
138 504 m 1
 143 616 l 1
 297 616 l 1
 293 652 291 689 291 727 c 0
 291 760 293 793 296 824 c 1
 137 824 l 1
 142 942 l 1
 315 942 l 1
 401 1306 707 1483 1000 1483 c 0
 1166 1483 1333 1446 1486 1326 c 1
 1387 1149 l 1
 1251 1243 1133 1264 1021 1264 c 0
 833 1264 661 1147 591 942 c 1
 1056 942 l 1
 1049 824 l 1
 563 824 l 1
 559 794 557 763 557 730 c 0
 557 690 560 652 566 616 c 1
 1020 616 l 1
 1013 504 l 1
 595 504 l 1
 667 311 835 197 1037 197 c 0
 1165 197 1302 234 1439 344 c 1
 1524 143 l 1
 1367 21 1196 -22 1020 -22 c 0
 704 -22 407 161 318 504 c 1
 138 504 l 1
EndSplineSet
EndChar

StartChar: F
Encoding: 70 70 51
Width: 1145
VWidth: 0
Flags: HW
PickledData: "(dp1
S'org.robofab.postScriptHintData'
p2
(dp3
sS'com.typemytype.robofont.layerData'
p4
(dp5
s."
LayerCount: 2
Fore
SplineSet
190 0 m 1
 190 1456 l 1
 1079 1456 l 1
 1079 1238 l 1
 444 1238 l 1
 444 841 l 1
 1042 841 l 1
 1042 622 l 1
 444 622 l 1
 444 0 l 1
 190 0 l 1
EndSplineSet
EndChar

StartChar: G
Encoding: 71 71 53
Width: 1538
VWidth: 0
Flags: HW
PickledData: "(dp1
S'org.robofab.postScriptHintData'
p2
(dp3
sS'com.typemytype.robofont.layerData'
p4
(dp5
S'b'
(dp6
S'name'
p7
S'G'
sS'lib'
p8
(dp9
sS'unicodes'
p10
(tsS'width'
p11
F1528.2
sS'contours'
p12
((dp13
S'points'
p14
((dp15
S'segmentType'
p16
S'curve'
p17
sS'x'
F841
sS'smooth'
p18
I01
sS'y'
F-23
s(dp19
S'y'
F-23
sS'x'
F361
sg18
I00
s(dp20
S'y'
F267
sS'x'
F108
sg18
I00
s(dp21
g16
S'curve'
p22
sS'x'
F108
sg18
I01
sS'y'
F701
s(dp23
S'y'
F1129
sS'x'
F108
sg18
I00
s(dp24
S'y'
F1483
sS'x'
F382
sg18
I00
s(dp25
g16
S'curve'
p26
sS'x'
F852
sg18
I01
sS'y'
F1483
s(dp27
S'y'
F1483
sS'x'
F1059
sg18
I00
s(dp28
S'y'
F1415
sS'x'
F1233
sg18
I00
s(dp29
g16
S'curve'
p30
sS'x'
F1334
sg18
I00
sS'y'
F1308
s(dp31
g16
S'line'
p32
sS'x'
F1262
sg18
I00
sS'y'
F1196
s(dp33
S'y'
F1291
sS'x'
F1164
sg18
I00
s(dp34
S'y'
F1334
sS'x'
F1034
sg18
I00
s(dp35
g16
S'curve'
p36
sS'x'
F848
sg18
I01
sS'y'
F1334
s(dp37
S'y'
F1334
sS'x'
F477
sg18
I00
s(dp38
S'y'
F1033
sS'x'
F286
sg18
I00
s(dp39
g16
S'curve'
p40
sS'x'
F286
sg18
I01
sS'y'
F714
s(dp41
S'y'
F365
sS'x'
F286
sg18
I00
s(dp42
S'y'
F125
sS'x'
F472
sg18
I00
s(dp43
g16
S'curve'
p44
sS'x'
F855
sg18
I01
sS'y'
F125
s(dp45
S'y'
F125
sS'x'
F968
sg18
I00
s(dp46
S'y'
F143
sS'x'
F1088
sg18
I00
s(dp47
g16
S'curve'
p48
sS'x'
F1184
sg18
I00
sS'y'
F182
s(dp49
g16
S'line'
p50
sS'x'
F1184
sg18
I00
sS'y'
F608
s(dp51
g16
S'line'
p52
sS'x'
F811
sg18
I00
sS'y'
F608
s(dp53
g16
S'line'
p54
sS'x'
F811
sg18
I00
sS'y'
F757
s(dp55
g16
S'line'
p56
sS'x'
F1356
sg18
I00
sS'y'
F757
s(dp57
g16
S'line'
p58
sS'x'
F1356
sg18
I00
sS'y'
F81
s(dp59
S'y'
F6
sS'x'
F1195
sg18
I00
s(dp60
S'y'
F-23
sS'x'
F1012
sg18
I00
stp61
stp62
sS'components'
p63
(tsS'anchors'
p64
(tsss."
LayerCount: 2
Fore
SplineSet
851 -23 m 0
 362 -23 105 267 105 704 c 0
 105 1120 376 1483 877 1483 c 0
 1171 1483 1299 1386 1362 1338 c 1
 1260 1160 l 1
 1198 1205 1083 1264 878 1264 c 0
 528 1264 370 987 370 715 c 0
 370 411 532 194 863 194 c 0
 944 194 1031 208 1112 232 c 1
 1112 576 l 1
 772 576 l 1
 772 793 l 1
 1370 793 l 1
 1370 88 l 1
 1186 6 1019 -23 851 -23 c 0
EndSplineSet
EndChar

StartChar: H
Encoding: 72 72 60
Width: 1572
VWidth: 0
Flags: HW
PickledData: "(dp1
S'org.robofab.postScriptHintData'
p2
(dp3
sS'com.typemytype.robofont.layerData'
p4
(dp5
S'b'
(dp6
S'name'
p7
S'H'
sS'lib'
p8
(dp9
sS'unicodes'
p10
(tsS'width'
p11
F1576.45
sS'contours'
p12
(tsS'components'
p13
(tsS'anchors'
p14
(tsss."
LayerCount: 2
Fore
SplineSet
190 0 m 1
 190 1456 l 1
 444 1456 l 1
 444 857 l 1
 1127 857 l 1
 1127 1456 l 1
 1381 1456 l 1
 1381 0 l 1
 1132 0 l 1
 1132 637 l 1
 449 637 l 1
 449 0 l 1
 190 0 l 1
EndSplineSet
EndChar

StartChar: Hbar
Encoding: 294 294 61
Width: 1572
VWidth: 0
Flags: HW
PickledData: "(dp1
S'org.robofab.postScriptHintData'
p2
(dp3
sS'com.typemytype.robofont.layerData'
p4
(dp5
S'b'
(dp6
S'name'
p7
S'Hbar'
p8
sS'lib'
p9
(dp10
sS'unicodes'
p11
(tsS'width'
p12
F1532.55
sS'contours'
p13
(tsS'components'
p14
(tsS'anchors'
p15
(tsss."
LayerCount: 2
Fore
SplineSet
95 1062 m 5
 95 1213 l 5
 1460 1213 l 5
 1460 1062 l 5
 95 1062 l 5
EndSplineSet
Refer: 60 72 N 1 0 0 1 0 0 2
EndChar

StartChar: I
Encoding: 73 73 63
Width: 586
VWidth: 0
Flags: HW
PickledData: "(dp1
S'org.robofab.postScriptHintData'
p2
(dp3
sS'com.typemytype.robofont.layerData'
p4
(dp5
s."
LayerCount: 2
Fore
SplineSet
160 0 m 1
 160 1456 l 1
 414 1456 l 1
 414 0 l 1
 160 0 l 1
EndSplineSet
EndChar

StartChar: J
Encoding: 74 74 77
Width: 1019
VWidth: 0
Flags: HW
PickledData: "(dp1
S'org.robofab.postScriptHintData'
p2
(dp3
sS'com.typemytype.robofont.layerData'
p4
(dp5
S'b'
(dp6
S'name'
p7
S'J'
sS'lib'
p8
(dp9
sS'unicodes'
p10
(tsS'width'
p11
F731.54999999999995
sS'contours'
p12
(tsS'components'
p13
(tsS'anchors'
p14
(tsss."
LayerCount: 2
Fore
SplineSet
417 -331 m 0
 332 -331 227 -314 96 -267 c 1
 142 -74 l 1
 248 -108 320 -118 371 -118 c 0
 523 -118 576 -27 576 110 c 2
 576 1456 l 1
 830 1456 l 1
 830 122 l 2
 830 -172 675 -331 417 -331 c 0
EndSplineSet
EndChar

StartChar: K
Encoding: 75 75 79
Width: 1351
VWidth: 0
Flags: HW
PickledData: "(dp1
S'org.robofab.postScriptHintData'
p2
(dp3
sS'com.typemytype.robofont.layerData'
p4
(dp5
S'b'
(dp6
S'name'
p7
S'K'
sS'lib'
p8
(dp9
sS'unicodes'
p10
(tsS'width'
p11
F1289.95
sS'contours'
p12
(tsS'components'
p13
(tsS'anchors'
p14
(tsss."
LayerCount: 2
Fore
SplineSet
190 0 m 1
 190 1456 l 1
 444 1456 l 1
 444 820 l 1
 1005 1456 l 1
 1322 1456 l 1
 691 753 l 1
 1371 0 l 1
 1041 0 l 1
 447 651 l 1
 447 0 l 1
 190 0 l 1
EndSplineSet
EndChar

StartChar: L
Encoding: 76 76 82
Width: 1173
VWidth: 0
Flags: HW
PickledData: "(dp1
S'org.robofab.postScriptHintData'
p2
(dp3
sS'com.typemytype.robofont.layerData'
p4
(dp5
s."
AnchorPoint: "caron.alt" 326 1026 basechar 0
LayerCount: 2
Fore
SplineSet
190 0 m 1
 190 1456 l 1
 444 1456 l 1
 444 218 l 1
 1118 218 l 1
 1118 0 l 1
 190 0 l 1
EndSplineSet
EndChar

StartChar: Lslash
Encoding: 321 321 88
Width: 1166
VWidth: 0
Flags: HW
PickledData: "(dp1
S'org.robofab.postScriptHintData'
p2
(dp3
sS'com.typemytype.robofont.layerData'
p4
(dp5
s."
LayerCount: 2
Fore
SplineSet
35 421 m 5
 35 646 l 5
 612 1096 l 5
 612 871 l 5
 35 421 l 5
EndSplineSet
Refer: 82 76 N 1 0 0 1 0 0 2
EndChar

StartChar: M
Encoding: 77 77 89
Width: 1987
VWidth: 0
Flags: HW
PickledData: "(dp1
S'org.robofab.postScriptHintData'
p2
(dp3
sS'com.typemytype.robofont.layerData'
p4
(dp5
S'b'
(dp6
S'name'
p7
S'M'
sS'lib'
p8
(dp9
sS'unicodes'
p10
(tsS'width'
p11
F1905.0999999999999
sS'contours'
p12
(tsS'components'
p13
(tsS'anchors'
p14
(tsss."
LayerCount: 2
Fore
SplineSet
190 0 m 1
 190 1456 l 1
 488 1456 l 1
 658 1079 826 701 997 326 c 1
 1168 699 1332 1079 1499 1456 c 1
 1797 1456 l 1
 1797 0 l 1
 1559 0 l 1
 1559 1040 l 1
 1400 696 1246 347 1090 0 c 1
 903 0 l 1
 747 341 597 688 435 1023 c 1
 435 0 l 1
 190 0 l 1
EndSplineSet
EndChar

StartChar: N
Encoding: 78 78 91
Width: 1630
VWidth: 0
Flags: HW
PickledData: "(dp1
S'org.robofab.postScriptHintData'
p2
(dp3
sS'com.typemytype.robofont.layerData'
p4
(dp5
S'b'
(dp6
S'name'
p7
S'N'
sS'lib'
p8
(dp9
sS'unicodes'
p10
(tsS'width'
p11
F1578.1500000000001
sS'contours'
p12
(tsS'components'
p13
(tsS'anchors'
p14
(tsss."
LayerCount: 2
Fore
SplineSet
190 0 m 1
 190 1456 l 1
 459 1456 l 1
 705 1099 951 740 1198 384 c 1
 1198 1456 l 1
 1440 1456 l 1
 1440 0 l 1
 1170 0 l 1
 922 358 675 718 425 1074 c 1
 425 0 l 1
 190 0 l 1
EndSplineSet
EndChar

StartChar: O
Encoding: 79 79 98
Width: 1671
VWidth: 0
Flags: HW
PickledData: "(dp1
S'org.robofab.postScriptHintData'
p2
(dp3
sS'com.typemytype.robofont.guides'
p4
((dp5
S'y'
I727
sS'x'
I231
sS'magnetic'
p6
I5
sS'angle'
p7
I0
sS'isGlobal'
p8
I00
s(dp9
S'y'
I1254
sS'x'
I804
sg6
I5
sg7
F90
sg8
I00
stp10
sS'com.typemytype.robofont.layerData'
p11
(dp12
S'b'
(dp13
S'name'
p14
S'O'
sS'lib'
p15
(dp16
sS'unicodes'
p17
(tsS'width'
p18
F1630.8
sS'contours'
p19
(tsS'components'
p20
(tsS'anchors'
p21
(tsss."
LayerCount: 2
Fore
SplineSet
840 -23 m 0
 383 -23 106 275 106 735 c 0
 106 1181 382 1483 843 1483 c 0
 1287 1483 1565 1184 1565 735 c 0
 1565 275 1296 -23 840 -23 c 0
834 194 m 0
 1135 194 1289 392 1289 735 c 0
 1289 1066 1134 1266 838 1266 c 0
 541 1266 380 1068 380 735 c 0
 380 391 532 194 834 194 c 0
EndSplineSet
EndChar

StartChar: OE
Encoding: 338 338 99
Width: 2057
VWidth: 0
Flags: HW
PickledData: "(dp1
S'org.robofab.postScriptHintData'
p2
(dp3
sS'com.typemytype.robofont.layerData'
p4
(dp5
S'b'
(dp6
S'name'
p7
S'OE'
p8
sS'lib'
p9
(dp10
sS'unicodes'
p11
(tsS'width'
p12
F2049.1500000000001
sS'contours'
p13
(tsS'components'
p14
(tsS'anchors'
p15
(tsss."
LayerCount: 2
Fore
SplineSet
822 174 m 0
 823 174 824 174 825 174 c 0
 1001 174 1072 240 1082 251 c 1
 1082 1191 l 1
 1042 1223 970 1268 840 1268 c 0
 821 1268 801 1267 780 1265 c 0
 583 1244 380 1107 380 725 c 0
 380 362 559 175 822 174 c 0
1082 251 m 1
 1083 252 1083 252 1082 251 c 1
1082 1398 m 1
 1082 1456 l 1
 1918 1456 l 1
 1918 1239 l 1
 1335 1239 l 1
 1335 854 l 1
 1881 854 l 1
 1881 636 l 1
 1338 636 l 1
 1338 217 l 1
 1946 217 l 1
 1946 0 l 1
 1082 0 l 1
 1082 62 l 1
 1076 56 979 -19 818 -24 c 0
 809 -24 799 -24 790 -24 c 0
 420 -24 106 213 106 731 c 0
 106 1199 407 1466 759 1482 c 0
 771 1482 782 1483 793 1483 c 0
 995 1483 1073 1408 1082 1398 c 1
EndSplineSet
EndChar

StartChar: Omega
Encoding: 937 937 111
Width: 1603
VWidth: 0
Flags: HW
PickledData: "(dp1
S'org.robofab.postScriptHintData'
p2
(dp3
sS'com.typemytype.robofont.layerData'
p4
(dp5
s."
LayerCount: 2
Fore
SplineSet
70 0 m 1
 48 211 l 1
 365 208 l 1
 162 365 92 548 92 811 c 0
 92 1219 390 1479 796 1479 c 0
 1196 1479 1509 1231 1509 814 c 0
 1509 554 1448 368 1239 208 c 1
 1566 211 l 1
 1541 0 l 1
 915 0 l 1
 915 170 l 1
 1101 287 1243 496 1243 769 c 0
 1243 928 1184 1274 798 1274 c 0
 401 1274 358 916 358 768 c 0
 358 494 503 289 688 170 c 1
 688 0 l 1
 70 0 l 1
EndSplineSet
EndChar

StartChar: Oslash
Encoding: 216 216 113
Width: 1671
VWidth: 0
Flags: HW
PickledData: "(dp1
S'org.robofab.postScriptHintData'
p2
(dp3
sS'com.typemytype.robofont.layerData'
p4
(dp5
S'b'
(dp6
S'name'
p7
S'Oslash'
p8
sS'lib'
p9
(dp10
sS'unicodes'
p11
(tsS'width'
p12
F1663
sS'contours'
p13
(tsS'components'
p14
(tsS'anchors'
p15
(tsss."
LayerCount: 2
Fore
SplineSet
840 -23 m 0
 1296 -23 1565 275 1565 735 c 0
 1565 1021 1452 1246 1255 1372 c 1
 1336 1523 l 1
 1220 1575 l 1
 1142 1430 l 1
 1054 1465 954 1483 843 1483 c 0
 382 1483 106 1181 106 735 c 0
 106 440 220 211 423 85 c 1
 337 -75 l 1
 452 -128 l 1
 536 29 l 1
 625 -5 727 -23 840 -23 c 0
1141 1160 m 1
 1239 1069 1289 923 1289 735 c 0
 1289 392 1135 194 834 194 c 0
 761 194 697 205 642 227 c 1
 1141 1160 l 1
1035 1229 m 1
 534 293 l 1
 431 384 380 535 380 735 c 0
 380 1068 541 1266 838 1266 c 0
 913 1266 979 1253 1035 1229 c 1
EndSplineSet
EndChar

StartChar: P
Encoding: 80 80 116
Width: 1299
VWidth: 0
Flags: HW
PickledData: "(dp1
S'org.robofab.postScriptHintData'
p2
(dp3
sS'com.typemytype.robofont.layerData'
p4
(dp5
S'b'
(dp6
S'name'
p7
S'P'
sS'lib'
p8
(dp9
sS'unicodes'
p10
(tsS'width'
p11
F1252.6500000000001
sS'contours'
p12
((dp13
S'points'
p14
((dp15
S'segmentType'
p16
S'line'
p17
sS'x'
F360
sS'smooth'
p18
I00
sS'y'
F828
s(dp19
g16
S'line'
p20
sS'x'
F580
sg18
I01
sS'y'
F828
s(dp21
S'y'
F828
sS'x'
F775
sg18
I00
s(dp22
S'y'
F881
sS'x'
F973
sg18
I00
s(dp23
g16
S'curve'
p24
sS'x'
F973
sg18
I01
sS'y'
F1077
s(dp25
S'y'
F1272
sS'x'
F973
sg18
I00
s(dp26
S'y'
F1308
sS'x'
F807
sg18
I00
s(dp27
g16
S'curve'
p28
sS'x'
F592
sg18
I01
sS'y'
F1308
s(dp29
g16
S'line'
p30
sS'x'
F360
sg18
I00
sS'y'
F1308
stp31
s(dp32
g14
((dp33
g16
S'line'
p34
sS'x'
F360
sg18
I00
sS'y'
F148
s(dp35
g16
S'line'
p36
sS'x'
F667
sg18
I01
sS'y'
F148
s(dp37
S'y'
F148
sS'x'
F906
sg18
I00
s(dp38
S'y'
F230
sS'x'
F1041
sg18
I00
s(dp39
g16
S'curve'
p40
sS'x'
F1041
sg18
I01
sS'y'
F406
s(dp41
S'y'
F617
sS'x'
F1041
sg18
I00
s(dp42
S'y'
F680
sS'x'
F889
sg18
I00
s(dp43
g16
S'curve'
p44
sS'x'
F610
sg18
I01
sS'y'
F680
s(dp45
g16
S'line'
p46
sS'x'
F360
sg18
I00
sS'y'
F680
stp47
s(dp48
g14
((dp49
g16
S'line'
p50
sS'x'
F188
sg18
I00
sS'y'
F0
s(dp51
g16
S'line'
p52
sS'x'
F188
sg18
I00
sS'y'
F1456
s(dp53
g16
S'line'
p54
sS'x'
F502
sg18
I01
sS'y'
F1456
s(dp55
S'y'
F1456
sS'x'
F765
sg18
I00
s(dp56
S'y'
F1443
sS'x'
F1154
sg18
I00
s(dp57
g16
S'curve'
p58
sS'x'
F1154
sg18
I01
sS'y'
F1105
s(dp59
S'y'
F944
sS'x'
F1154
sg18
I00
s(dp60
S'y'
F814
sS'x'
F1045
sg18
I00
s(dp61
g16
S'curve'
p62
sS'x'
F889
sg18
I00
sS'y'
F769
s(dp63
S'y'
F734
sS'x'
F1086
sg18
I00
s(dp64
S'y'
F605
sS'x'
F1223
sg18
I00
s(dp65
g16
S'curve'
p66
sS'x'
F1223
sg18
I01
sS'y'
F403
s(dp67
S'y'
F189
sS'x'
F1223
sg18
I00
s(dp68
S'y'
F0
sS'x'
F1059
sg18
I00
s(dp69
g16
S'curve'
p70
sS'x'
F739
sg18
I01
sS'y'
F0
stp71
stp72
sS'components'
p73
(tsS'anchors'
p74
(tsss."
LayerCount: 2
Fore
SplineSet
444 845 m 1
 662 845 l 2
 842 845 964 879 964 1039 c 0
 964 1235 825 1235 615 1235 c 2
 444 1235 l 1
 444 845 l 1
190 0 m 1
 190 1456 l 1
 605 1456 l 2
 950 1456 1231 1425 1231 1041 c 0
 1231 724 1020 628 666 628 c 2
 444 628 l 1
 444 0 l 1
 190 0 l 1
EndSplineSet
EndChar

StartChar: Q
Encoding: 81 81 118
Width: 1671
VWidth: 0
Flags: HW
PickledData: "(dp1
S'org.robofab.postScriptHintData'
p2
(dp3
sS'com.typemytype.robofont.layerData'
p4
(dp5
S'b'
(dp6
S'name'
p7
S'Q'
sS'lib'
p8
(dp9
sS'unicodes'
p10
(tsS'width'
p11
F1628.2
sS'contours'
p12
(tsS'components'
p13
(tsS'anchors'
p14
(tsss."
LayerCount: 2
Fore
SplineSet
834 194 m 0
 532 194 380 391 380 735 c 0
 380 1068 541 1266 838 1266 c 0
 1134 1266 1289 1066 1289 735 c 0
 1289 392 1135 194 834 194 c 0
1261 -447 m 1
 1400 -297 l 1
 1400 -297 1245 -123 1150 32 c 1
 1416 138 1565 392 1565 735 c 0
 1565 1184 1287 1483 843 1483 c 0
 382 1483 106 1181 106 735 c 0
 106 275 383 -23 840 -23 c 0
 871 -23 901 -22 931 -19 c 1
 1066 -244 1261 -447 1261 -447 c 1
EndSplineSet
EndChar

StartChar: R
Encoding: 82 82 119
Width: 1388
VWidth: 0
Flags: HW
PickledData: "(dp1
S'org.robofab.postScriptHintData'
p2
(dp3
sS'com.typemytype.robofont.guides'
p4
(tsS'com.typemytype.robofont.layerData'
p5
(dp6
S'b'
(dp7
S'name'
p8
S'R'
sS'lib'
p9
(dp10
sS'unicodes'
p11
(tsS'width'
p12
F1341
sS'contours'
p13
((dp14
S'points'
p15
((dp16
S'segmentType'
p17
S'line'
p18
sS'x'
F360
sS'smooth'
p19
I00
sS'y'
F799
s(dp20
g17
S'line'
p21
sS'x'
F615
sg19
I01
sS'y'
F799
s(dp22
S'y'
F799
sS'x'
F795
sg19
I00
s(dp23
S'y'
F854
sS'x'
F932
sg19
I00
s(dp24
g17
S'curve'
p25
sS'x'
F932
sg19
I01
sS'y'
F1058
s(dp26
S'y'
F1259
sS'x'
F932
sg19
I00
s(dp27
S'y'
F1308
sS'x'
F833
sg19
I00
s(dp28
g17
S'curve'
p29
sS'x'
F626
sg19
I01
sS'y'
F1308
s(dp30
g17
S'line'
p31
sS'x'
F360
sg19
I00
sS'y'
F1308
stp32
s(dp33
g15
((dp34
g17
S'line'
p35
sS'x'
F188
sg19
I00
sS'y'
F0
s(dp36
g17
S'line'
p37
sS'x'
F188
sg19
I00
sS'y'
F1456
s(dp38
g17
S'line'
p39
sS'x'
F533
sg19
I01
sS'y'
F1456
s(dp40
S'y'
F1456
sS'x'
F771
sg19
I00
s(dp41
S'y'
F1452
sS'x'
F1114
sg19
I00
s(dp42
g17
S'curve'
p43
sS'x'
F1114
sg19
I01
sS'y'
F1074
s(dp44
S'y'
F890
sS'x'
F1114
sg19
I00
s(dp45
S'y'
F762
sS'x'
F1035
sg19
I00
s(dp46
g17
S'curve'
p47
sS'x'
F847
sg19
I00
sS'y'
F715
s(dp48
g17
S'line'
p49
sS'x'
F848
sg19
I00
sS'y'
F715
s(dp50
S'y'
F662
sS'x'
F1012
sg19
I00
s(dp51
S'y'
F510
sS'x'
F1039
sg19
I00
s(dp52
g17
S'curve'
p53
sS'x'
F1159
sg19
I01
sS'y'
F214
s(dp54
g17
S'line'
p55
sS'x'
F1246
sg19
I00
sS'y'
F0
s(dp56
g17
S'line'
p57
sS'x'
F1061
sg19
I00
sS'y'
F0
s(dp58
g17
S'line'
p59
sS'x'
F896
sg19
I01
sS'y'
F419
s(dp60
S'y'
F600
sS'x'
F825
sg19
I00
s(dp61
S'y'
F652
sS'x'
F797
sg19
I00
s(dp62
g17
S'curve'
p63
sS'x'
F619
sg19
I01
sS'y'
F652
s(dp64
g17
S'line'
p65
sS'x'
F360
sg19
I00
sS'y'
F652
s(dp66
g17
S'line'
p67
sS'x'
F360
sg19
I00
sS'y'
F0
stp68
stp69
sS'components'
p70
(tsS'anchors'
p71
(tsss."
LayerCount: 2
Fore
SplineSet
441 831 m 1
 684 831 l 2
 833 831 956 876 956 1042 c 0
 956 1202 876 1238 711 1238 c 2
 441 1238 l 1
 441 831 l 1
190 0 m 1
 190 1456 l 1
 715 1456 l 2
 1016 1456 1224 1377 1224 1054 c 0
 1224 902 1138 756 931 709 c 1
 1004 668 1074 605 1124 481 c 2
 1321 0 l 1
 1046 0 l 1
 879 433 l 2
 825 574 776 616 645 616 c 2
 444 616 l 1
 444 0 l 1
 190 0 l 1
EndSplineSet
EndChar

StartChar: S
Encoding: 83 83 125
Width: 1256
VWidth: 0
Flags: HW
PickledData: "(dp1
S'org.robofab.postScriptHintData'
p2
(dp3
sS'com.typemytype.robofont.layerData'
p4
(dp5
S'b'
(dp6
S'name'
p7
S'S'
sS'lib'
p8
(dp9
sS'unicodes'
p10
(tsS'width'
p11
F1211
sS'contours'
p12
((dp13
S'points'
p14
((dp15
S'segmentType'
p16
S'curve'
p17
sS'x'
F596
sS'smooth'
p18
I01
sS'y'
F-23
s(dp19
S'y'
F-23
sS'x'
F321
sg18
I00
s(dp20
S'y'
F120
sS'x'
F158
sg18
I00
s(dp21
g16
S'curve'
p22
sS'x'
F140
sg18
I00
sS'y'
F141
s(dp23
g16
S'line'
p24
sS'x'
F219
sg18
I00
sS'y'
F271
s(dp25
S'y'
F243
sS'x'
F256
sg18
I00
s(dp26
S'y'
F125
sS'x'
F393
sg18
I00
s(dp27
g16
S'curve'
p28
sS'x'
F595
sg18
I01
sS'y'
F125
s(dp29
S'y'
F125
sS'x'
F797
sg18
I00
s(dp30
S'y'
F204
sS'x'
F898
sg18
I00
s(dp31
g16
S'curve'
p32
sS'x'
F898
sg18
I01
sS'y'
F360
s(dp33
S'y'
F536
sS'x'
F898
sg18
I00
s(dp34
S'y'
F601
sS'x'
F709
sg18
I00
s(dp35
g16
S'curve'
p36
sS'x'
F521
sg18
I01
sS'y'
F681
s(dp37
S'y'
F761
sS'x'
F333
sg18
I00
s(dp38
S'y'
F857
sS'x'
F145
sg18
I00
s(dp39
g16
S'curve'
p40
sS'x'
F145
sg18
I01
sS'y'
F1095
s(dp41
S'y'
F1350
sS'x'
F145
sg18
I00
s(dp42
S'y'
F1483
sS'x'
F357
sg18
I00
s(dp43
g16
S'curve'
p44
sS'x'
F620
sg18
I01
sS'y'
F1483
s(dp45
S'y'
F1483
sS'x'
F891
sg18
I00
s(dp46
S'y'
F1362
sS'x'
F1009
sg18
I00
s(dp47
g16
S'curve'
p48
sS'x'
F1034
sg18
I00
sS'y'
F1335
s(dp49
g16
S'line'
p50
sS'x'
F951
sg18
I00
sS'y'
F1217
s(dp51
S'y'
F1242
sS'x'
F921
sg18
I00
s(dp52
S'y'
F1334
sS'x'
F819
sg18
I00
s(dp53
g16
S'curve'
p54
sS'x'
F640
sg18
I01
sS'y'
F1334
s(dp55
S'y'
F1334
sS'x'
F478
sg18
I00
s(dp56
S'y'
F1270
sS'x'
F328
sg18
I00
s(dp57
g16
S'curve'
p58
sS'x'
F328
sg18
I01
sS'y'
F1105
s(dp59
S'y'
F934
sS'x'
F328
sg18
I00
s(dp60
S'y'
F868
sS'x'
F515
sg18
I00
s(dp61
g16
S'curve'
p62
sS'x'
F703
sg18
I01
sS'y'
F785
s(dp63
S'y'
F702
sS'x'
F891
sg18
I00
s(dp64
S'y'
F602
sS'x'
F1078
sg18
I00
s(dp65
g16
S'curve'
p66
sS'x'
F1078
sg18
I01
sS'y'
F364
s(dp67
S'y'
F78
sS'x'
F1078
sg18
I00
s(dp68
S'y'
F-23
sS'x'
F868
sg18
I00
stp69
stp70
sS'components'
p71
(tsS'anchors'
p72
(tsss."
LayerCount: 2
Fore
SplineSet
623 -23 m 0
 429 -23 224 36 115 143 c 1
 223 325 l 1
 320 249 496 194 607 194 c 0
 787 194 871 260 871 396 c 0
 871 491 852 540 664 608 c 0
 604 629 524 653 458 676 c 0
 228 763 116 869 116 1087 c 0
 116 1350 336 1483 619 1483 c 0
 888 1483 1003 1433 1126 1315 c 1
 996 1147 l 1
 888 1250 753 1264 655 1264 c 0
 508 1264 387 1216 387 1098 c 0
 387 996 413 951 600 885 c 0
 665 862 754 836 823 810 c 0
 1059 716 1141 611 1141 391 c 0
 1141 88 889 -23 623 -23 c 0
EndSplineSet
EndChar

StartChar: T
Encoding: 84 84 132
Width: 1181
VWidth: 0
Flags: HW
PickledData: "(dp1
S'org.robofab.postScriptHintData'
p2
(dp3
sS'com.typemytype.robofont.layerData'
p4
(dp5
s."
LayerCount: 2
Fore
SplineSet
460 0 m 1
 460 1238 l 1
 11 1238 l 1
 11 1456 l 1
 1170 1456 l 1
 1170 1238 l 1
 714 1238 l 1
 714 0 l 1
 460 0 l 1
EndSplineSet
EndChar

StartChar: Thorn
Encoding: 222 222 137
Width: 1300
VWidth: 0
Flags: HW
PickledData: "(dp1
S'org.robofab.postScriptHintData'
p2
(dp3
sS'com.typemytype.robofont.layerData'
p4
(dp5
s."
LayerCount: 2
Fore
SplineSet
440 545 m 1
 661 545 l 2
 840 545 948 614 948 774 c 0
 948 963 820 1007 612 1007 c 2
 440 1007 l 1
 440 545 l 1
190 0 m 1
 190 1456 l 1
 443 1456 l 1
 443 1223 l 1
 600 1223 l 2
 944 1223 1221 1146 1221 773 c 0
 1221 460 938 326 620 326 c 2
 440 326 l 1
 440 0 l 1
 190 0 l 1
EndSplineSet
EndChar

StartChar: U
Encoding: 85 85 138
Width: 1509
VWidth: 0
Flags: HW
PickledData: "(dp1
S'org.robofab.postScriptHintData'
p2
(dp3
sS'com.typemytype.robofont.layerData'
p4
(dp5
S'b'
(dp6
S'name'
p7
S'U'
sS'lib'
p8
(dp9
sS'unicodes'
p10
(tsS'width'
p11
F1496.9000000000001
sS'contours'
p12
(tsS'components'
p13
(tsS'anchors'
p14
(tsss."
LayerCount: 2
Fore
SplineSet
755 -23 m 0
 273 -23 164 269 164 599 c 2
 164 1456 l 1
 418 1456 l 1
 418 588 l 2
 418 280 566 194 754 194 c 0
 946 194 1091 281 1091 589 c 2
 1091 1456 l 1
 1345 1456 l 1
 1345 598 l 2
 1345 273 1244 -23 755 -23 c 0
EndSplineSet
EndChar

StartChar: V
Encoding: 86 86 152
Width: 1393
VWidth: 0
Flags: HW
PickledData: "(dp1
S'org.robofab.postScriptHintData'
p2
(dp3
sS'com.typemytype.robofont.layerData'
p4
(dp5
S'b'
(dp6
S'name'
p7
S'V'
sS'lib'
p8
(dp9
sS'unicodes'
p10
(tsS'width'
p11
F1320.1500000000001
sS'contours'
p12
(tsS'components'
p13
(tsS'anchors'
p14
(tsss."
LayerCount: 2
Fore
SplineSet
571 0 m 1
 17 1456 l 1
 302 1456 l 1
 436 1082 565 703 703 333 c 1
 839 707 974 1082 1109 1456 c 1
 1376 1456 l 1
 823 0 l 1
 571 0 l 1
EndSplineSet
EndChar

StartChar: W
Encoding: 87 87 153
Width: 2096
VWidth: 0
Flags: HW
PickledData: "(dp1
S'org.robofab.postScriptHintData'
p2
(dp3
sS'com.typemytype.robofont.layerData'
p4
(dp5
S'b'
(dp6
S'name'
p7
S'W'
sS'lib'
p8
(dp9
sS'unicodes'
p10
(tsS'width'
p11
F1988.8499999999999
sS'contours'
p12
(tsS'components'
p13
(tsS'anchors'
p14
(tsss."
LayerCount: 2
Fore
SplineSet
428 0 m 1
 12 1456 l 1
 282 1456 l 1
 383 1073 488 694 583 306 c 1
 688 701 815 1074 933 1456 c 1
 1175 1456 l 1
 1435 642 l 1
 1535 301 l 1
 1626 691 1726 1072 1822 1456 c 1
 2084 1456 l 1
 1678 0 l 1
 1387 0 l 1
 1047 1105 l 1
 715 0 l 1
 428 0 l 1
EndSplineSet
EndChar

StartChar: X
Encoding: 88 88 158
Width: 1407
VWidth: 0
Flags: HW
PickledData: "(dp1
S'org.robofab.postScriptHintData'
p2
(dp3
sS'com.typemytype.robofont.layerData'
p4
(dp5
S'b'
(dp6
S'name'
p7
S'X'
sS'lib'
p8
(dp9
sS'unicodes'
p10
(tsS'width'
p11
F1257.7
sS'contours'
p12
(tsS'components'
p13
(tsS'anchors'
p14
(tsss."
LayerCount: 2
Fore
SplineSet
22 0 m 1
 557 736 l 1
 60 1456 l 1
 377 1456 l 1
 717 952 l 1
 1076 1456 l 1
 1371 1456 l 1
 863 747 l 1
 1381 0 l 1
 1065 0 l 1
 702 532 l 1
 326 0 l 1
 22 0 l 1
EndSplineSet
EndChar

StartChar: Y
Encoding: 89 89 159
Width: 1280
VWidth: 0
Flags: HW
PickledData: "(dp1
S'org.robofab.postScriptHintData'
p2
(dp3
sS'com.typemytype.robofont.layerData'
p4
(dp5
S'b'
(dp6
S'name'
p7
S'Y'
sS'lib'
p8
(dp9
sS'unicodes'
p10
(tsS'width'
p11
F1225.45
sS'contours'
p12
(tsS'components'
p13
(tsS'anchors'
p14
(tsss."
LayerCount: 2
Fore
SplineSet
505 0 m 1
 505 563 l 1
 -14 1456 l 1
 275 1456 l 1
 636 789 l 1
 994 1456 l 1
 1290 1456 l 1
 759 564 l 1
 759 0 l 1
 505 0 l 1
EndSplineSet
EndChar

StartChar: Z
Encoding: 90 90 166
Width: 1202
VWidth: 0
Flags: HW
PickledData: "(dp1
S'org.robofab.postScriptHintData'
p2
(dp3
sS'com.typemytype.robofont.layerData'
p4
(dp5
S'b'
(dp6
S'name'
p7
S'Z'
sS'lib'
p8
(dp9
sS'unicodes'
p10
(tsS'width'
p11
F1179.45
sS'contours'
p12
(tsS'components'
p13
(tsS'anchors'
p14
(tsss."
LayerCount: 2
Fore
SplineSet
71 0 m 1
 71 136 l 1
 760 1238 l 1
 97 1238 l 1
 97 1456 l 1
 1111 1456 l 1
 1111 1324 l 1
 418 218 l 1
 1110 218 l 1
 1110 0 l 1
 71 0 l 1
EndSplineSet
EndChar

StartChar: a
Encoding: 97 97 170
Width: 1291
VWidth: 0
Flags: HW
PickledData: "(dp1
S'org.robofab.postScriptHintData'
p2
(dp3
sS'com.typemytype.robofont.layerData'
p4
(dp5
S'b'
(dp6
S'name'
p7
S'a'
sS'lib'
p8
(dp9
sS'unicodes'
p10
(tsS'width'
p11
I1268
sS'contours'
p12
((dp13
S'points'
p14
((dp15
S'segmentType'
p16
S'curve'
p17
sS'x'
F595
sS'smooth'
p18
I01
sS'y'
F-22
s(dp19
S'y'
F-22
sS'x'
F262
sg18
I00
s(dp20
S'y'
F221
sS'x'
F100
sg18
I00
s(dp21
g16
S'curve'
p22
sS'x'
F100
sg18
I01
sS'y'
F518
s(dp23
S'y'
F824
sS'x'
F100
sg18
I00
s(dp24
S'y'
F1052
sS'x'
F287
sg18
I00
s(dp25
g16
S'curve'
p26
sS'x'
F603
sg18
I01
sS'y'
F1052
s(dp27
S'y'
F1052
sS'x'
F816
sg18
I00
s(dp28
S'y'
F903
sS'x'
F905
sg18
I00
s(dp29
g16
S'curve'
p30
sS'x'
F928
sg18
I00
sS'y'
F847
s(dp31
g16
S'line'
p32
sS'x'
F928
sg18
I00
sS'y'
F1026
s(dp33
g16
S'line'
p34
sS'x'
F1092
sg18
I00
sS'y'
F1026
s(dp35
g16
S'line'
p36
sS'x'
F1092
sg18
I00
sS'y'
F0
s(dp37
g16
S'line'
p38
sS'x'
F928
sg18
I00
sS'y'
F0
s(dp39
g16
S'line'
p40
sS'x'
F928
sg18
I00
sS'y'
F185
s(dp41
S'y'
F82
sS'x'
F881
sg18
I00
s(dp42
S'y'
F-22
sS'x'
F769
sg18
I00
stp43
s(dp44
g14
((dp45
g16
S'curve'
p46
sS'x'
F608
sg18
I01
sS'y'
F918
s(dp47
S'y'
F918
sS'x'
F359
sg18
I00
s(dp48
S'y'
F725
sS'x'
F270
sg18
I00
s(dp49
g16
S'curve'
p50
sS'x'
F270
sg18
I01
sS'y'
F516
s(dp51
S'y'
F308
sS'x'
F270
sg18
I00
s(dp52
S'y'
F112
sS'x'
F364
sg18
I00
s(dp53
g16
S'curve'
p54
sS'x'
F609
sg18
I01
sS'y'
F112
s(dp55
S'y'
F112
sS'x'
F813
sg18
I00
s(dp56
S'y'
F277
sS'x'
F934
sg18
I00
s(dp57
g16
S'curve'
p58
sS'x'
F934
sg18
I01
sS'y'
F526
s(dp59
S'y'
F734
sS'x'
F934
sg18
I00
s(dp60
S'y'
F918
sS'x'
F826
sg18
I00
stp61
stp62
sS'components'
p63
(tsS'anchors'
p64
(tsss."
LayerCount: 2
Fore
SplineSet
644 177 m 0
 848 177 919 325 919 513 c 0
 919 714 834 851 639 851 c 0
 450 851 354 715 354 515 c 0
 354 318 447 177 644 177 c 0
613 -23 m 0
 267 -23 108 241 108 502 c 0
 108 780 272 1052 625 1052 c 0
 763 1052 850 999 911 917 c 1
 911 1026 l 1
 1154 1026 l 1
 1154 0 l 1
 905 0 l 1
 905 140 l 1
 848 57 753 -23 613 -23 c 0
EndSplineSet
EndChar

StartChar: acute
Encoding: 180 180 175
Width: 607
VWidth: 0
Flags: HW
PickledData: "(dp1
S'org.robofab.postScriptHintData'
p2
(dp3
s."
LayerCount: 2
Fore
SplineSet
39 1166 m 1
 303 1456 l 1
 621 1456 l 1
 267 1166 l 1
 39 1166 l 1
EndSplineSet
EndChar

StartChar: ae
Encoding: 230 230 179
Width: 1776
VWidth: 0
Flags: HW
PickledData: "(dp1
S'org.robofab.postScriptHintData'
p2
(dp3
sS'com.typemytype.robofont.layerData'
p4
(dp5
S'b'
(dp6
S'name'
p7
S'ae'
p8
sS'lib'
p9
(dp10
sS'unicodes'
p11
(tsS'width'
p12
F1790.05
sS'contours'
p13
(tsS'components'
p14
((dp15
S'transformation'
p16
(I1
I0
I0
I1
I642
I0
tp17
sS'baseGlyph'
p18
S'e'
stp19
sS'anchors'
p20
(tsss."
LayerCount: 2
Fore
SplineSet
979 632 m 1
 1441 632 l 1
 1440 655 l 1
 1436 802 1325 872 1227 872 c 0
 1091 872 1012 763 979 632 c 1
481 177 m 0
 669 177 732 332 735 467 c 1
 635 467 l 2
 471 467 311 427 311 304 c 0
 311 212 390 177 481 177 c 0
474 -22 m 0
 231 -22 70 89 70 294 c 0
 70 562 269 638 695 638 c 2
 736 638 l 1
 734 765 656 859 509 859 c 0
 446 859 363 845 223 778 c 1
 151 942 l 1
 199 971 332 1052 564 1052 c 0
 663 1052 815 992 881 864 c 1
 946 989 1108 1052 1229 1052 c 0
 1230 1052 1231 1052 1232 1052 c 0
 1539 1050 1658 809 1658 519 c 0
 1658 494 1653 467 1653 467 c 1
 976 467 l 1
 976 448 l 1
 995 253 1096 177 1254 177 c 0
 1257 177 1260 177 1263 177 c 0
 1427 181 1577 289 1577 289 c 1
 1644 108 l 1
 1644 108 1477 -21 1255 -23 c 0
 1251 -23 1247 -23 1243 -23 c 0
 1065 -23 931 22 857 172 c 1
 784 25 616 -22 474 -22 c 0
EndSplineSet
EndChar

StartChar: ampersand
Encoding: 38 38 185
Width: 1587
VWidth: 0
Flags: HW
PickledData: "(dp1
S'org.robofab.postScriptHintData'
p2
(dp3
sS'com.typemytype.robofont.layerData'
p4
(dp5
S'b'
(dp6
S'name'
p7
S'ampersand'
p8
sS'lib'
p9
(dp10
sS'unicodes'
p11
(tsS'width'
p12
F1539.95
sS'contours'
p13
(tsS'components'
p14
(tsS'anchors'
p15
(tsss."
LayerCount: 2
Fore
SplineSet
612 960 m 1
 697 1014 766 1074 766 1153 c 0
 766 1238 700 1266 643 1266 c 0
 572 1266 519 1232 519 1150 c 0
 519 1079 553 1020 612 960 c 1
629 186 m 0
 757 186 849 244 925 314 c 1
 567 698 l 1
 457 635 360 559 360 423 c 0
 360 285 475 186 629 186 c 0
628 -28 m 0
 337 -28 113 139 113 422 c 0
 113 636 258 756 427 856 c 1
 333 960 274 1037 274 1155 c 0
 274 1364 437 1470 632 1470 c 0
 820 1470 1007 1373 1007 1163 c 0
 1007 1014 893 896 759 809 c 1
 1057 483 l 1
 1130 620 1158 775 1158 944 c 1
 1386 895 l 1
 1387 688 1321 462 1217 304 c 1
 1323 192 1433 159 1530 127 c 1
 1369 -19 l 1
 1233 4 1182 40 1074 155 c 1
 967 56 815 -28 628 -28 c 0
EndSplineSet
EndChar

StartChar: approxequal
Encoding: 8776 8776 187
Width: 1351
VWidth: 0
Flags: HW
PickledData: "(dp1
S'org.robofab.postScriptHintData'
p2
(dp3
sS'com.typemytype.robofont.layerData'
p4
(dp5
s."
LayerCount: 2
Fore
SplineSet
220 105 m 1
 67 192 l 1
 137 439 228 477 354 477 c 0
 431 477 529 456 652 415 c 0
 760 376 851 362 909 362 c 0
 981 362 1004 381 1028 517 c 1
 1193 440 l 1
 1130 189 1059 142 932 142 c 0
 853 142 747 166 612 203 c 0
 516 232 431 257 376 257 c 0
 294 257 265 235 220 105 c 1
220 696 m 1
 68 786 l 1
 140 1032 230 1070 355 1070 c 0
 433 1070 538 1044 656 1009 c 0
 761 976 851 955 910 955 c 0
 982 955 1004 975 1029 1110 c 1
 1194 1032 l 1
 1130 782 1060 735 933 735 c 0
 856 735 748 761 613 797 c 0
 519 824 431 849 377 849 c 0
 294 849 264 828 220 696 c 1
EndSplineSet
EndChar

StartChar: asciicircum
Encoding: 94 94 190
Width: 1559
VWidth: 0
Flags: HW
PickledData: "(dp1
S'org.robofab.postScriptHintData'
p2
(dp3
sS'com.typemytype.robofont.layerData'
p4
(dp5
S'b'
(dp6
S'name'
p7
S'asciicircum'
p8
sS'lib'
p9
(dp10
sS'unicodes'
p11
(tsS'width'
p12
F1623.3499999999999
sS'contours'
p13
(tsS'components'
p14
(tsS'anchors'
p15
(tsss."
LayerCount: 2
Fore
SplineSet
183 532 m 1
 696 1456 l 1
 857 1456 l 1
 1376 532 l 1
 1125 532 l 1
 773 1173 l 1
 438 532 l 1
 183 532 l 1
EndSplineSet
EndChar

StartChar: asciitilde
Encoding: 126 126 191
Width: 1508
VWidth: 0
Flags: HW
PickledData: "(dp1
S'org.robofab.postScriptHintData'
p2
(dp3
sS'com.typemytype.robofont.layerData'
p4
(dp5
s."
LayerCount: 2
Fore
SplineSet
335 367 m 1
 182 441 l 1
 257 697 350 729 472 729 c 0
 552 729 646 707 765 665 c 0
 888 618 962 606 1023 606 c 0
 1093 606 1113 615 1144 756 c 1
 1302 685 l 1
 1239 435 1172 394 1043 394 c 0
 956 394 851 417 706 464 c 0
 601 500 542 514 491 514 c 0
 412 514 382 500 335 367 c 1
EndSplineSet
EndChar

StartChar: asterisk
Encoding: 42 42 192
Width: 1054
VWidth: 0
Flags: HW
PickledData: "(dp1
S'org.robofab.postScriptHintData'
p2
(dp3
sS'com.typemytype.robofont.guides'
p4
((dp5
S'y'
I1149
sS'x'
I567
sS'magnetic'
p6
I5
sS'angle'
p7
I0
sS'isGlobal'
p8
I00
stp9
sS'com.typemytype.robofont.layerData'
p10
(dp11
S'b'
(dp12
S'name'
p13
S'asterisk'
p14
sS'lib'
p15
(dp16
sS'unicodes'
p17
(tsS'width'
p18
F1107.9000000000001
sS'contours'
p19
(tsS'components'
p20
(tsS'anchors'
p21
(tsss."
LayerCount: 2
Fore
SplineSet
674 644 m 1
 505 892 l 1
 336 643 l 1
 153 770 l 1
 370 1002 l 1
 91 1110 l 1
 177 1289 l 1
 420 1164 l 1
 390 1456 l 1
 625 1456 l 1
 591 1164 l 1
 839 1289 l 1
 921 1110 l 1
 641 1002 l 1
 857 771 l 1
 674 644 l 1
EndSplineSet
EndChar

StartChar: at
Encoding: 64 64 193
Width: 1814
VWidth: 0
Flags: HW
PickledData: "(dp1
S'org.robofab.postScriptHintData'
p2
(dp3
sS'com.typemytype.robofont.layerData'
p4
(dp5
S'b'
(dp6
S'name'
p7
S'at'
p8
sS'lib'
p9
(dp10
sS'unicodes'
p11
(tsS'width'
p12
F1771.2
sS'contours'
p13
(tsS'components'
p14
(tsS'anchors'
p15
(tsss."
LayerCount: 2
Fore
SplineSet
856 448 m 0
 994 448 1084 629 1084 817 c 0
 1084 906 1033 951 961 951 c 0
 810 951 728 756 728 593 c 0
 728 505 782 448 856 448 c 0
943 -101 m 0
 467 -101 106 194 106 665 c 0
 106 1175 494 1483 966 1483 c 0
 1385 1483 1708 1200 1708 793 c 0
 1708 541 1549 254 1342 254 c 0
 1199 254 1115 354 1115 464 c 1
 1080 351 987 256 823 256 c 0
 664 256 481 377 481 628 c 0
 481 942 742 1136 931 1136 c 0
 1036 1136 1103 1102 1135 1022 c 1
 1155 1118 l 1
 1373 1118 l 1
 1284 644 l 2
 1265 548 1264 508 1264 480 c 0
 1264 475 1264 470 1264 466 c 0
 1264 433 1280 377 1321 377 c 0
 1397 377 1546 540 1546 798 c 0
 1546 1164 1256 1320 976 1320 c 0
 612 1320 310 1114 310 665 c 0
 310 249 637 56 964 56 c 0
 1120 56 1283 101 1436 188 c 1
 1517 70 l 1
 1353 -45 1149 -101 943 -101 c 0
EndSplineSet
EndChar

StartChar: b
Encoding: 98 98 195
Width: 1291
VWidth: 0
Flags: HW
PickledData: "(dp1
S'org.robofab.postScriptHintData'
p2
(dp3
sS'com.typemytype.robofont.layerData'
p4
(dp5
S'b'
(dp6
S'name'
p7
S'b'
sS'lib'
p8
(dp9
sS'unicodes'
p10
(tsS'width'
p11
F1270.0999999999999
sS'contours'
p12
(tsS'components'
p13
(tsS'anchors'
p14
(tsss."
LayerCount: 2
Fore
SplineSet
658 177 m 0
 848 177 924 339 924 511 c 0
 924 697 842 851 666 851 c 0
 486 851 381 698 381 515 c 0
 381 340 471 177 658 177 c 0
704 -23 m 0
 559 -23 441 51 395 127 c 1
 395 0 l 1
 141 0 l 1
 149 251 150 244 150 272 c 2
 150 1457 l 1
 396 1457 l 1
 396 882 l 1
 406 923 500 1052 717 1052 c 0
 1011 1052 1183 826 1183 518 c 0
 1183 196 964 -23 704 -23 c 0
EndSplineSet
EndChar

StartChar: backslash
Encoding: 92 92 196
Width: 650
VWidth: 0
Flags: HW
PickledData: "(dp1
S'org.robofab.postScriptHintData'
p2
(dp3
sS'com.typemytype.robofont.layerData'
p4
(dp5
s."
LayerCount: 2
Fore
SplineSet
531 -112 m 1
 -174 1456 l 1
 101 1456 l 1
 798 -112 l 1
 531 -112 l 1
EndSplineSet
EndChar

StartChar: bar
Encoding: 124 124 197
Width: 395
VWidth: 0
Flags: HW
PickledData: "(dp1
S'org.robofab.postScriptHintData'
p2
(dp3
sS'com.typemytype.robofont.layerData'
p4
(dp5
s."
LayerCount: 2
Fore
SplineSet
79 -455 m 1
 79 1506 l 1
 316 1506 l 1
 316 -455 l 1
 79 -455 l 1
EndSplineSet
EndChar

StartChar: braceleft
Encoding: 123 123 199
Width: 987
VWidth: 0
Flags: HW
PickledData: "(dp1
S'org.robofab.postScriptHintData'
p2
(dp3
sS'com.typemytype.robofont.layerData'
p4
(dp5
s."
LayerCount: 2
Fore
SplineSet
598 1176 m 2
 598 953 l 2
 598 796 536 688 354 683 c 1
 532 681 598 580 598 424 c 2
 598 198 l 2
 598 16 629 16 864 15 c 1
 864 -180 l 1
 861 -180 858 -180 855 -180 c 0
 405 -180 342 -104 342 206 c 2
 342 436 l 2
 342 573 302 606 162 606 c 0
 158 606 153 606 149 606 c 1
 149 755 l 1
 153 755 158 755 162 755 c 0
 307 755 343 790 343 933 c 2
 343 1164 l 2
 343 1478 415 1542 864 1542 c 1
 864 1347 l 1
 787 1347 l 2
 629 1347 598 1339 598 1176 c 2
EndSplineSet
EndChar

StartChar: braceright
Encoding: 125 125 200
Width: 982
VWidth: 0
Flags: HW
PickledData: "(dp1
S'org.robofab.postScriptHintData'
p2
(dp3
sS'com.typemytype.robofont.layerData'
p4
(dp5
s."
LayerCount: 2
Fore
SplineSet
108 -180 m 1
 108 14 l 1
 185 14 l 2
 343 14 374 22 374 185 c 2
 374 408 l 2
 374 565 436 673 618 679 c 1
 439 680 374 781 374 937 c 2
 374 1163 l 2
 374 1345 343 1345 107 1346 c 1
 107 1542 l 1
 110 1542 113 1542 116 1542 c 0
 566 1542 629 1465 629 1155 c 2
 629 925 l 2
 629 788 670 755 810 755 c 0
 814 755 819 755 823 755 c 1
 823 606 l 1
 819 606 814 606 810 606 c 0
 665 606 629 571 629 428 c 2
 629 197 l 2
 629 -117 557 -180 108 -180 c 1
EndSplineSet
EndChar

StartChar: bracketleft
Encoding: 91 91 201
Width: 620
VWidth: 0
Flags: HW
PickledData: "(dp1
S'org.robofab.postScriptHintData'
p2
(dp3
sS'com.typemytype.robofont.layerData'
p4
(dp5
s."
LayerCount: 2
Fore
SplineSet
140 -158 m 1
 140 1502 l 1
 561 1502 l 1
 561 1312 l 1
 392 1312 l 1
 392 32 l 1
 562 32 l 1
 562 -158 l 1
 140 -158 l 1
EndSplineSet
EndChar

StartChar: bracketright
Encoding: 93 93 202
Width: 620
VWidth: 0
Flags: HW
PickledData: "(dp1
S'org.robofab.postScriptHintData'
p2
(dp3
sS'com.typemytype.robofont.layerData'
p4
(dp5
s."
LayerCount: 2
Fore
SplineSet
91 -158 m 1
 91 32 l 1
 255 32 l 1
 255 1312 l 1
 92 1312 l 1
 92 1502 l 1
 508 1502 l 1
 508 -158 l 1
 91 -158 l 1
EndSplineSet
EndChar

StartChar: breve
Encoding: 728 728 203
Width: 700
VWidth: 0
Flags: HW
PickledData: "(dp1
S'org.robofab.postScriptHintData'
p2
(dp3
sS'com.typemytype.robofont.layerData'
p4
(dp5
S'b'
(dp6
S'name'
p7
S'breve'
p8
sS'lib'
p9
(dp10
sS'unicodes'
p11
(tsS'width'
p12
F621.60000000000002
sS'contours'
p13
(tsS'components'
p14
(tsS'anchors'
p15
(tsss."
LayerCount: 2
Fore
SplineSet
352 1160 m 0
 162 1160 44 1245 30 1456 c 1
 204 1456 l 1
 212 1349 283 1334 352 1334 c 0
 422 1334 488 1349 498 1456 c 1
 671 1456 l 1
 656 1245 543 1160 352 1160 c 0
EndSplineSet
EndChar

StartChar: brokenbar
Encoding: 166 166 204
Width: 500
VWidth: 0
Flags: HW
PickledData: "(dp1
S'org.robofab.postScriptHintData'
p2
(dp3
sS'com.typemytype.robofont.layerData'
p4
(dp5
s."
LayerCount: 2
Fore
SplineSet
92 565 m 1
 92 1506 l 1
 339 1506 l 1
 339 565 l 1
 92 565 l 1
94 -455 m 1
 94 415 l 1
 341 415 l 1
 341 -455 l 1
 94 -455 l 1
EndSplineSet
EndChar

StartChar: bullet
Encoding: 8226 8226 205
Width: 989
VWidth: 0
Flags: HW
PickledData: "(dp1
S'org.robofab.postScriptHintData'
p2
(dp3
sS'com.typemytype.robofont.layerData'
p4
(dp5
S'b'
(dp6
S'name'
p7
S'bullet'
p8
sS'lib'
p9
(dp10
sS'unicodes'
p11
(tsS'width'
p12
F989.64999999999998
sS'contours'
p13
(tsS'components'
p14
(tsS'anchors'
p15
(tsss."
LayerCount: 2
Fore
SplineSet
489 358 m 0
 283 358 149 510 149 682 c 0
 149 859 299 1010 489 1010 c 0
 689 1010 831 859 831 682 c 0
 831 507 681 358 489 358 c 0
EndSplineSet
EndChar

StartChar: c
Encoding: 99 99 207
Width: 1071
VWidth: 0
Flags: HW
PickledData: "(dp1
S'org.robofab.postScriptHintData'
p2
(dp3
sS'com.typemytype.robofont.layerData'
p4
(dp5
S'b'
(dp6
S'name'
p7
S'c'
sS'lib'
p8
(dp9
sS'unicodes'
p10
(tsS'width'
p11
F1035.55
sS'contours'
p12
((dp13
S'points'
p14
((dp15
S'segmentType'
p16
S'curve'
p17
sS'x'
F605
sS'smooth'
p18
I01
sS'y'
F-22
s(dp19
S'y'
F-22
sS'x'
F302
sg18
I00
s(dp20
S'y'
F180
sS'x'
F98
sg18
I00
s(dp21
g16
S'curve'
p22
sS'x'
F98
sg18
I01
sS'y'
F503
s(dp23
S'y'
F840
sS'x'
F98
sg18
I00
s(dp24
S'y'
F1052
sS'x'
F301
sg18
I00
s(dp25
g16
S'curve'
p26
sS'x'
F624
sg18
I01
sS'y'
F1052
s(dp27
S'y'
F1052
sS'x'
F750
sg18
I00
s(dp28
S'y'
F1001
sS'x'
F871
sg18
I00
s(dp29
g16
S'curve'
p30
sS'x'
F938
sg18
I00
sS'y'
F922
s(dp31
g16
S'line'
p32
sS'x'
F890
sg18
I00
sS'y'
F805
s(dp33
S'y'
F874
sS'x'
F825
sg18
I00
s(dp34
S'y'
F918
sS'x'
F721
sg18
I00
s(dp35
g16
S'curve'
p36
sS'x'
F619
sg18
I01
sS'y'
F918
s(dp37
S'y'
F918
sS'x'
F406
sg18
I00
s(dp38
S'y'
F756
sS'x'
F268
sg18
I00
s(dp39
g16
S'curve'
p40
sS'x'
F268
sg18
I01
sS'y'
F505
s(dp41
S'y'
F260
sS'x'
F268
sg18
I00
s(dp42
S'y'
F112
sS'x'
F407
sg18
I00
s(dp43
g16
S'curve'
p44
sS'x'
F611
sg18
I01
sS'y'
F112
s(dp45
S'y'
F112
sS'x'
F716
sg18
I00
s(dp46
S'y'
F145
sS'x'
F827
sg18
I00
s(dp47
g16
S'curve'
p48
sS'x'
F901
sg18
I00
sS'y'
F202
s(dp49
g16
S'line'
p50
sS'x'
F953
sg18
I00
sS'y'
F87
s(dp51
S'y'
F19
sS'x'
F873
sg18
I00
s(dp52
S'y'
F-22
sS'x'
F747
sg18
I00
stp53
stp54
sS'components'
p55
(tsS'anchors'
p56
(tsss."
LayerCount: 2
Fore
SplineSet
644 -23 m 0
 299 -23 108 233 108 514 c 0
 108 817 306 1052 641 1052 c 0
 802 1052 927 1005 1013 914 c 1
 924 754 l 1
 866 805 783 852 667 852 c 0
 467 852 365 713 365 513 c 0
 365 315 480 177 675 177 c 0
 813 177 894 246 932 274 c 1
 1007 92 l 1
 894 13 786 -23 644 -23 c 0
EndSplineSet
EndChar

StartChar: caron
Encoding: 711 711 209
Width: 699
VWidth: 0
Flags: HW
PickledData: "(dp1
S'org.robofab.postScriptHintData'
p2
(dp3
s."
LayerCount: 2
Fore
SplineSet
250 1185 m 1
 -31 1552 l 1
 223 1552 l 1
 342 1407 l 1
 465 1552 l 1
 731 1552 l 1
 452 1185 l 1
 250 1185 l 1
EndSplineSet
EndChar

StartChar: caron.alt
Encoding: 65537 -1 210
Width: 600
VWidth: 0
Flags: HW
PickledData: "(dp1
S'org.robofab.postScriptHintData'
p2
(dp3
s."
AnchorPoint: "caron.alt" -16 1026 mark 0
LayerCount: 2
Fore
SplineSet
270 951 m 1
 383 1456 l 1
 663 1456 l 1
 482 951 l 1
 270 951 l 1
EndSplineSet
EndChar

StartChar: cedilla
Encoding: 184 184 215
Width: 529
VWidth: 0
Flags: HW
PickledData: "(dp1
S'org.robofab.postScriptHintData'
p2
(dp3
sS'com.typemytype.robofont.layerData'
p4
(dp5
S'b'
(dp6
S'name'
p7
S'cedilla'
p8
sS'lib'
p9
(dp10
sS'unicodes'
p11
(tsS'width'
p12
I529
sS'contours'
p13
(tsS'components'
p14
(tsS'anchors'
p15
(tsss."
LayerCount: 2
Fore
SplineSet
17 -426 m 1
 28 -294 l 1
 65.0217047259 -310.374984783 139.41698329 -332.477364819 201.502085181 -332.477364819 c 0
 257.205875155 -332.477364819 303 -314.684997534 303 -259 c 0
 303 -207 271 -158 150 -140 c 1
 121 -136 l 1
 152 39 l 1
 276 39 l 1
 259 -75 l 1
 411.342640875 -86.1588558603 480.986175589 -184.483739714 480.986175589 -282.767721519 c 0
 480.986175589 -425.579970751 368.682325461 -484.821405285 241.407797094 -484.821405285 c 0
 164.977897586 -484.821405285 83.1493494707 -463.458065363 17 -426 c 1
EndSplineSet
EndChar

StartChar: cent
Encoding: 162 162 216
Width: 1076
VWidth: 0
Flags: HW
PickledData: "(dp1
S'org.robofab.postScriptHintData'
p2
(dp3
sS'com.typemytype.robofont.layerData'
p4
(dp5
S'b'
(dp6
S'name'
p7
S'cent'
p8
sS'lib'
p9
(dp10
sS'unicodes'
p11
(tsS'width'
p12
F1033.2
sS'contours'
p13
(tsS'components'
p14
(tsS'anchors'
p15
(tsss."
LayerCount: 2
Fore
SplineSet
606 -242 m 1
 744 -242 l 1
 744 -16 l 1
 840 -2 922 33 1007 92 c 1
 932 274 l 1
 901 251 841 200 744 183 c 1
 744 845 l 1
 821 830 880 793 924 754 c 1
 1013 914 l 1
 946 985 856 1029 744 1045 c 1
 744 1250 l 1
 606 1250 l 1
 606 1051 l 1
 292 1035 108 806 108 514 c 0
 108 243 285 -4 606 -22 c 1
 606 -242 l 1
606 847 m 1
 606 183 l 1
 453 212 365 340 365 513 c 0
 365 692 446 821 606 847 c 1
EndSplineSet
EndChar

StartChar: circumflex
Encoding: 710 710 217
Width: 699
VWidth: 0
Flags: HW
PickledData: "(dp1
S'org.robofab.postScriptHintData'
p2
(dp3
sS'com.typemytype.robofont.layerData'
p4
(dp5
S'b'
(dp6
S'name'
p7
S'circumflex'
p8
sS'lib'
p9
(dp10
sS'unicodes'
p11
(tsS'width'
p12
I699
sS'contours'
p13
(tsS'components'
p14
(tsS'anchors'
p15
(tsss."
LayerCount: 2
Fore
SplineSet
-37 1185 m 1
 220 1555 l 1
 472 1555 l 1
 737 1185 l 1
 490 1185 l 5
 354 1381 l 5
 215 1185 l 5
 -37 1185 l 1
EndSplineSet
EndChar

StartChar: colon
Encoding: 58 58 218
Width: 591
VWidth: 0
Flags: HW
PickledData: "(dp1
S'org.robofab.postScriptHintData'
p2
(dp3
sS'com.typemytype.robofont.layerData'
p4
(dp5
S'b'
(dp6
S'name'
p7
S'colon'
p8
sS'lib'
p9
(dp10
sS'unicodes'
p11
(tsS'width'
p12
F544.60000000000002
sS'contours'
p13
(tsS'components'
p14
(tsS'anchors'
p15
(tsss."
LayerCount: 2
Fore
SplineSet
134 900 m 1
 134 1171 l 1
 444 1171 l 1
 445 900 l 1
 134 900 l 1
134 -15 m 1
 134 255 l 1
 445 255 l 1
 445 -15 l 1
 134 -15 l 1
EndSplineSet
EndChar

StartChar: comma
Encoding: 44 44 219
Width: 545
VWidth: 0
Flags: HW
PickledData: "(dp1
S'org.robofab.postScriptHintData'
p2
(dp3
sS'com.typemytype.robofont.layerData'
p4
(dp5
S'b'
(dp6
S'name'
p7
S'comma'
p8
sS'lib'
p9
(dp10
sS'unicodes'
p11
(tsS'width'
p12
F491.10000000000002
sS'contours'
p13
(tsS'components'
p14
(tsS'anchors'
p15
(tsss."
LayerCount: 2
Fore
SplineSet
52 -229 m 1
 164 268 l 1
 442 268 l 1
 263 -229 l 1
 52 -229 l 1
EndSplineSet
EndChar

StartChar: copyright
Encoding: 169 169 220
Width: 1713
VWidth: 0
Flags: HW
PickledData: "(dp1
S'org.robofab.postScriptHintData'
p2
(dp3
sS'com.typemytype.robofont.layerData'
p4
(dp5
S'b'
(dp6
S'name'
p7
S'copyright'
p8
sS'lib'
p9
(dp10
sS'unicodes'
p11
(tsS'width'
p12
I1733
sS'contours'
p13
(tsS'components'
p14
(tsS'anchors'
p15
(tsss."
LayerCount: 2
Fore
SplineSet
857 -22 m 0
 443 -22 106 318 106 732 c 0
 106 1145 443 1483 857 1483 c 0
 1270 1483 1607 1145 1607 732 c 0
 1607 318 1270 -22 857 -22 c 0
855 93 m 0
 1199 93 1473 383 1473 729 c 0
 1473 1074 1199 1361 855 1361 c 0
 510 1361 237 1074 237 729 c 0
 237 383 510 93 855 93 c 0
876 283 m 0
 583 283 437 496 437 727 c 0
 437 975 600 1169 874 1169 c 0
 1008 1169 1109 1130 1180 1055 c 1
 1108 924 l 1
 1059 966 991 1004 896 1004 c 0
 732 1004 650 889 650 727 c 0
 650 567 736 448 903 448 c 0
 1020 448 1087 506 1113 526 c 1
 1175 375 l 1
 1085 312 998 283 876 283 c 0
EndSplineSet
EndChar

StartChar: currency
Encoding: 164 164 221
Width: 1218
VWidth: 0
Flags: HW
PickledData: "(dp1
S'org.robofab.postScriptHintData'
p2
(dp3
s."
LayerCount: 2
Fore
SplineSet
609 710 m 0
 783 710 911 846 911 1020 c 0
 911 1194 783 1331 609 1331 c 0
 435 1331 307 1194 307 1020 c 0
 307 846 435 710 609 710 c 0
171 543 m 1
 120 594 l 1
 307 781 l 1
 252 847 219 931 219 1024 c 0
 219 1121 255 1209 314 1276 c 1
 119 1471 l 1
 170 1522 l 1
 367 1326 l 1
 433 1378 518 1409 610 1409 c 0
 702 1409 786 1378 853 1327 c 1
 1048 1522 l 1
 1099 1471 l 1
 906 1278 l 1
 966 1210 1002 1122 1002 1024 c 0
 1002 931 969 846 913 779 c 1
 1099 594 l 1
 1048 543 l 1
 862 729 l 1
 794 673 706 639 610 639 c 0
 514 639 426 673 358 730 c 1
 171 543 l 1
EndSplineSet
EndChar

StartChar: d
Encoding: 100 100 222
Width: 1267
VWidth: 0
Flags: HW
PickledData: "(dp1
S'org.robofab.postScriptHintData'
p2
(dp3
sS'com.typemytype.robofont.layerData'
p4
(dp5
S'b'
(dp6
S'name'
p7
S'd'
sS'lib'
p8
(dp9
sS'unicodes'
p10
(tsS'width'
p11
F1265.05
sS'contours'
p12
(tsS'components'
p13
(tsS'anchors'
p14
(tsss."
AnchorPoint: "caron.alt" 962 1026 basechar 0
LayerCount: 2
Fore
SplineSet
627 177 m 0
 815 177 885 340 885 512 c 0
 885 699 807 851 625 851 c 0
 444 851 368 698 368 516 c 0
 368 339 438 177 627 177 c 0
576 -23 m 0
 317 -23 108 182 108 508 c 0
 108 795 269 1052 595 1052 c 0
 755 1052 849 964 877 918 c 1
 877 1457 l 1
 1123 1457 l 1
 1123 274 l 2
 1123 254 1124 238 1132 0 c 1
 878 0 l 1
 876 131 l 1
 855 78 765 -23 576 -23 c 0
EndSplineSet
EndChar

StartChar: dagger
Encoding: 8224 8224 223
Width: 1022
VWidth: 0
Flags: HW
PickledData: "(dp1
S'org.robofab.postScriptHintData'
p2
(dp3
sS'com.typemytype.robofont.layerData'
p4
(dp5
s."
LayerCount: 2
Fore
SplineSet
380 0 m 1
 380 901 l 5
 54 901 l 5
 54 1079 l 1
 380 1079 l 1
 380 1412 l 1
 578 1412 l 1
 578 1079 l 1
 907 1079 l 1
 907 901 l 5
 581 901 l 5
 581 0 l 1
 380 0 l 1
EndSplineSet
EndChar

StartChar: daggerdbl
Encoding: 8225 8225 224
Width: 1174
VWidth: 0
Flags: HW
PickledData: "(dp1
S'org.robofab.postScriptHintData'
p2
(dp3
sS'com.typemytype.robofont.layerData'
p4
(dp5
S'b'
(dp6
S'name'
p7
S'daggerdbl'
p8
sS'lib'
p9
(dp10
sS'unicodes'
p11
(tsS'width'
p12
F1092.6500000000001
sS'contours'
p13
(tsS'components'
p14
(tsS'anchors'
p15
(tsss."
LayerCount: 2
Fore
SplineSet
147 1083 m 1
 485 1083 l 1
 485 1456 l 1
 705 1456 l 1
 705 1083 l 1
 1030 1083 l 1
 1030 895 l 1
 705 895 l 1
 705 532 l 1
 1021 532 l 1
 1021 352 l 1
 705 352 l 1
 705 -112 l 1
 485 -112 l 1
 485 352 l 1
 143 352 l 1
 143 532 l 1
 485 532 l 1
 485 895 l 1
 147 895 l 1
 147 1083 l 1
EndSplineSet
EndChar

StartChar: degree
Encoding: 176 176 228
Width: 886
VWidth: 0
Flags: HW
PickledData: "(dp1
S'org.robofab.postScriptHintData'
p2
(dp3
sS'com.typemytype.robofont.layerData'
p4
(dp5
S'b'
(dp6
S'name'
p7
S'degree'
p8
sS'lib'
p9
(dp10
sS'unicodes'
p11
(tsS'width'
p12
F856.60000000000002
sS'contours'
p13
(tsS'components'
p14
(tsS'anchors'
p15
(tsss."
LayerCount: 2
Fore
SplineSet
443 849 m 0
 272 849 129 983 129 1157 c 0
 129 1329 272 1466 443 1466 c 0
 615 1466 757 1329 757 1157 c 0
 757 983 615 849 443 849 c 0
443 984 m 0
 539 984 612 1058 612 1156 c 0
 612 1254 539 1328 443 1328 c 0
 349 1328 277 1254 277 1156 c 0
 277 1058 350 984 443 984 c 0
EndSplineSet
EndChar

StartChar: dieresis
Encoding: 168 168 229
Width: 743
VWidth: 0
Flags: HW
PickledData: "(dp1
S'org.robofab.postScriptHintData'
p2
(dp3
s."
LayerCount: 2
Fore
SplineSet
476 1151 m 1
 476 1376 l 1
 721 1376 l 1
 721 1151 l 1
 476 1151 l 1
18 1151 m 1
 18 1376 l 1
 265 1376 l 1
 265 1151 l 1
 18 1151 l 1
EndSplineSet
EndChar

StartChar: divide
Encoding: 247 247 230
Width: 1499
VWidth: 0
Flags: HW
PickledData: "(dp1
S'org.robofab.postScriptHintData'
p2
(dp3
sS'com.typemytype.robofont.layerData'
p4
(dp5
s."
LayerCount: 2
Fore
SplineSet
617 840 m 1
 617 1111 l 1
 818 1111 l 1
 818 840 l 1
 617 840 l 1
167 449 m 1
 167 656 l 1
 1253 656 l 1
 1253 449 l 1
 167 449 l 1
620 -19 m 1
 620 253 l 1
 821 253 l 1
 823 -19 l 1
 620 -19 l 1
EndSplineSet
EndChar

StartChar: dollar
Encoding: 36 36 232
Width: 1238
VWidth: 0
Flags: HW
PickledData: "(dp1
S'org.robofab.postScriptHintData'
p2
(dp3
sS'com.typemytype.robofont.layerData'
p4
(dp5
S'b'
(dp6
S'name'
p7
S'dollar'
p8
sS'lib'
p9
(dp10
sS'unicodes'
p11
(tsS'width'
p12
F1200.0999999999999
sS'contours'
p13
(tsS'components'
p14
(tsS'anchors'
p15
(tsss."
LayerCount: 2
Fore
SplineSet
578 1259 m 1
 578 893 l 1
 411 955 387 1000 387 1098 c 0
 387 1195 468 1244 578 1259 c 1
678 198 m 1
 678 603 l 1
 853 538 871 489 871 396 c 0
 871 279 809 214 678 198 c 1
578 -219 m 1
 678 -219 l 1
 678 -21 l 1
 923 -6 1141 109 1141 391 c 0
 1141 611 1059 716 823 810 c 0
 779 827 727 843 678 859 c 1
 678 1264 l 1
 773 1262 896 1242 996 1147 c 1
 1126 1315 l 1
 1012 1424 906 1475 678 1482 c 1
 678 1626 l 1
 578 1626 l 1
 578 1482 l 1
 315 1470 116 1337 116 1087 c 0
 116 869 228 763 458 676 c 0
 496 663 538 650 578 637 c 1
 578 195 l 1
 467 203 312 255 223 325 c 1
 115 143 l 1
 216 44 398 -14 578 -22 c 1
 578 -219 l 1
EndSplineSet
EndChar

StartChar: dotaccent
Encoding: 729 729 233
Width: 524
VWidth: 0
Flags: HW
PickledData: "(dp1
S'org.robofab.postScriptHintData'
p2
(dp3
sS'com.typemytype.robofont.layerData'
p4
(dp5
S'b'
(dp6
S'name'
p7
S'dotaccent'
p8
sS'lib'
p9
(dp10
sS'unicodes'
p11
(tsS'width'
p12
F524
sS'contours'
p13
(tsS'components'
p14
(tsS'anchors'
p15
(tsss."
LayerCount: 2
Fore
SplineSet
128 1166 m 1
 128 1394 l 1
 374 1394 l 1
 374 1166 l 1
 128 1166 l 1
EndSplineSet
EndChar

StartChar: dotlessi
Encoding: 305 305 234
Width: 485
VWidth: 0
Flags: HW
PickledData: "(dp1
S'org.robofab.postScriptHintData'
p2
(dp3
sS'com.typemytype.robofont.layerData'
p4
(dp5
s."
LayerCount: 2
Fore
SplineSet
103 0 m 1
 103 1026 l 1
 352 1026 l 1
 352 0 l 1
 103 0 l 1
EndSplineSet
EndChar

StartChar: dotlessj
Encoding: 567 567 235
Width: 600
VWidth: 0
Flags: HW
PickledData: "(dp1
S'org.robofab.postScriptHintData'
p2
(dp3
s."
LayerCount: 2
Fore
SplineSet
100 -362 m 0
 -24 -362 -85 -335 -85 -335 c 1
 -57 -165 l 1
 -44 -169 18 -184 86 -184 c 0
 173 -184 218 -161 218 20 c 2
 218 1026 l 1
 471 1026 l 1
 471 -9 l 2
 471 -237 398 -362 100 -362 c 0
-57 -165 m 1
 -59 -164 -60 -164 -60 -164 c 1
 -60 -164 -59 -164 -57 -164 c 1
 -57 -165 l 1
EndSplineSet
EndChar

StartChar: e
Encoding: 101 101 238
Width: 1206
VWidth: 0
Flags: HW
PickledData: "(dp1
S'org.robofab.postScriptHintData'
p2
(dp3
sS'com.typemytype.robofont.guides'
p4
(tsS'com.typemytype.robofont.layerData'
p5
(dp6
S'b'
(dp7
S'name'
p8
S'e'
sS'lib'
p9
(dp10
sS'unicodes'
p11
(tsS'width'
p12
F1169.75
sS'contours'
p13
(tsS'components'
p14
(tsS'anchors'
p15
(tsssS'com.fontlab.hintData'
p16
(dp17
S'vhints'
p18
((dp19
S'position'
p20
I106
sg12
I195
stp21
sS'hhints'
p22
((dp23
g20
I-22
sg12
I154
s(dp24
g20
I486
sg12
I131
s(dp25
g20
I901
sg12
I151
stp26
ss."
HStem: -22 154 486 131 901 151
VStem: 106 195
LayerCount: 2
Fore
SplineSet
373 636 m 1
 883 636 l 1
 859 784 767 861 648 861 c 0
 503 861 405 773 373 636 c 1
666 -23 m 0
 314 -23 108 199 108 512 c 0
 108 797 300 1052 634 1052 c 0
 970 1052 1095 808 1095 515 c 0
 1095 502 1094 483 1090 471 c 1
 370 471 l 1
 378 263 509 177 689 177 c 0
 800 177 907 213 1013 287 c 1
 1080 107 l 1
 953 19 828 -23 666 -23 c 0
EndSplineSet
EndChar

StartChar: eight
Encoding: 56 56 247
Width: 1274
VWidth: 0
Flags: HW
PickledData: "(dp1
S'org.robofab.postScriptHintData'
p2
(dp3
sS'com.typemytype.robofont.layerData'
p4
(dp5
S'b'
(dp6
S'name'
p7
S'eight'
p8
sS'lib'
p9
(dp10
sS'unicodes'
p11
(tsS'width'
p12
F1235.45
sS'contours'
p13
(tsS'components'
p14
(tsS'anchors'
p15
(tsss."
LayerCount: 2
Fore
SplineSet
634 858 m 1
 763 896 843 976 843 1095 c 0
 843 1200 749 1260 633 1260 c 0
 509 1260 424 1205 424 1083 c 0
 424 974 503 893 634 858 c 1
635 199 m 0
 779 199 874 264 874 413 c 0
 874 528 770 640 641 674 c 1
 501 643 398 541 398 409 c 0
 398 273 490 199 635 199 c 0
639 -23 m 0
 356 -23 139 128 139 395 c 0
 139 558 233 689 386 764 c 1
 259 836 168 943 168 1099 c 0
 168 1342 366 1483 632 1483 c 0
 922 1483 1101 1334 1101 1088 c 0
 1101 931 1017 825 886 761 c 1
 1024 692 1131 545 1131 387 c 0
 1131 121 896 -23 639 -23 c 0
EndSplineSet
EndChar

StartChar: ellipsis
Encoding: 8230 8230 249
Width: 1620
VWidth: 0
Flags: HW
PickledData: "(dp1
S'org.robofab.postScriptHintData'
p2
(dp3
s."
LayerCount: 2
Fore
SplineSet
1157 -11 m 1
 1157 260 l 1
 1456 260 l 1
 1456 -11 l 1
 1157 -11 l 1
636 -11 m 1
 636 260 l 1
 937 260 l 1
 938 -11 l 1
 636 -11 l 1
115 -11 m 1
 115 260 l 1
 416 260 l 1
 417 -11 l 1
 115 -11 l 1
EndSplineSet
EndChar

StartChar: emdash
Encoding: 8212 8212 251
Width: 2171
VWidth: 0
Flags: HW
PickledData: "(dp1
S'org.robofab.postScriptHintData'
p2
(dp3
s."
LayerCount: 2
Fore
SplineSet
30 453 m 1
 30 658 l 1
 2141 658 l 1
 2141 453 l 1
 30 453 l 1
EndSplineSet
EndChar

StartChar: endash
Encoding: 8211 8211 252
Width: 1074
VWidth: 0
Flags: HW
PickledData: "(dp1
S'org.robofab.postScriptHintData'
p2
(dp3
sS'com.typemytype.robofont.layerData'
p4
(dp5
s."
LayerCount: 2
Fore
SplineSet
-15 449 m 1
 -15 658 l 1
 1090 658 l 1
 1090 449 l 1
 -15 449 l 1
EndSplineSet
EndChar

StartChar: eng
Encoding: 331 331 253
Width: 1191
VWidth: 0
Flags: HW
PickledData: "(dp1
S'org.robofab.postScriptHintData'
p2
(dp3
sS'com.typemytype.robofont.layerData'
p4
(dp5
s."
LayerCount: 2
Fore
SplineSet
524 -396 m 0
 524 -197 l 0
 670 -197 816 -146 816 50 c 2
 816 602 l 2
 816 784 775 852 646 852 c 0
 555 852 404 768 404 614 c 2
 404 0 l 1
 156 0 l 1
 156 635 l 2
 156 880 136 1026 136 1026 c 1
 399 1026 l 1
 399 878 l 1
 456 995 597 1052 697 1052 c 0
 923 1052 1064 942 1064 585 c 2
 1064 110 l 2
 1064 -235 843 -396 524 -396 c 0
EndSplineSet
EndChar

StartChar: equal
Encoding: 61 61 255
Width: 1479
VWidth: 0
Flags: HW
PickledData: "(dp1
S'org.robofab.postScriptHintData'
p2
(dp3
sS'com.typemytype.robofont.layerData'
p4
(dp5
S'b'
(dp6
S'name'
p7
S'equal'
p8
sS'lib'
p9
(dp10
sS'unicodes'
p11
(tsS'width'
p12
I1229
sS'contours'
p13
(tsS'components'
p14
(tsS'anchors'
p15
(tsss."
LayerCount: 2
Fore
SplineSet
217 667 m 1
 217 868 l 1
 1260 868 l 1
 1260 667 l 1
 217 667 l 1
216 261 m 1
 216 461 l 1
 1262 461 l 1
 1262 261 l 1
 216 261 l 1
EndSplineSet
EndChar

StartChar: estimated
Encoding: 8494 8494 256
Width: 1191
VWidth: 0
Flags: HW
PickledData: "(dp1
S'org.robofab.postScriptHintData'
p2
(dp3
s."
LayerCount: 2
Fore
SplineSet
357 713 m 1
 864 713 l 1
 864 1037 739 1141 609 1141 c 0
 479 1141 356 1036 357 713 c 1
627 114 m 0
 342 114 96 294 96 652 c 0
 96 1050 358 1199 611 1199 c 0
 846 1199 1074 1075 1074 700 c 0
 1074 689 1073 671 1069 655 c 1
 351 655 l 1
 352 333 482 176 682 176 c 0
 784 176 904 218 1029 299 c 1
 1056 247 l 1
 920 158 769 114 627 114 c 0
EndSplineSet
EndChar

StartChar: eth
Encoding: 240 240 257
Width: 1217
VWidth: 0
Flags: HW
PickledData: "(dp1
S'org.robofab.postScriptHintData'
p2
(dp3
sS'com.typemytype.robofont.layerData'
p4
(dp5
S'b'
(dp6
S'name'
p7
S'eth'
p8
sS'lib'
p9
(dp10
sS'unicodes'
p11
(tsS'width'
p12
F1222.55
sS'contours'
p13
(tsS'components'
p14
(tsS'anchors'
p15
(tsss."
LayerCount: 2
Fore
SplineSet
603 172 m 0
 707 172 839 257 839 441 c 0
 839 602 708 693 586 693 c 0
 472 693 353 625 353 449 c 0
 353 256 482 172 603 172 c 0
583 -25 m 0
 284 -25 99 208 99 471 c 0
 99 734 252 902 530 902 c 0
 641 902 760 874 874 753 c 1
 874 768 878 788 878 814 c 0
 878 880 852 982 669 1115 c 1
 416 989 l 1
 350 1122 l 1
 510 1201 l 1
 455 1219 385 1237 296 1258 c 1
 374 1417 l 1
 413 1417 563 1393 718 1306 c 1
 974 1434 l 1
 1040 1300 l 1
 855 1209 l 1
 987 1095 1100 915 1100 621 c 0
 1100 155 906 -25 583 -25 c 0
EndSplineSet
EndChar

StartChar: exclam
Encoding: 33 33 259
Width: 688
VWidth: 0
Flags: HW
PickledData: "(dp1
S'org.robofab.postScriptHintData'
p2
(dp3
sS'com.typemytype.robofont.layerData'
p4
(dp5
S'b'
(dp6
S'name'
p7
S'exclam'
p8
sS'lib'
p9
(dp10
sS'unicodes'
p11
(tsS'width'
p12
F590
sS'contours'
p13
(tsS'components'
p14
(tsS'anchors'
p15
(tsss."
LayerCount: 2
Fore
SplineSet
265 387 m 1
 191 1456 l 1
 486 1456 l 1
 412 387 l 1
 265 387 l 1
180 0 m 1
 180 273 l 1
 494 273 l 1
 494 0 l 1
 180 0 l 1
EndSplineSet
EndChar

StartChar: exclamdown
Encoding: 161 161 260
Width: 786
VWidth: 0
Flags: HW
PickledData: "(dp1
S'org.robofab.postScriptHintData'
p2
(dp3
sS'com.typemytype.robofont.layerData'
p4
(dp5
S'b'
(dp6
S'name'
p7
S'exclamdown'
p8
sS'lib'
p9
(dp10
sS'unicodes'
p11
(tsS'width'
p12
F614.5
sS'contours'
p13
(tsS'components'
p14
(tsS'anchors'
p15
(tsss."
LayerCount: 2
Fore
SplineSet
223 1156 m 257
 537 1156 l 257
 537 883 l 257
 223 883 l 257
 223 1156 l 257
308 769 m 257
 455 769 l 257
 529 -300 l 257
 234 -300 l 257
 308 769 l 257
EndSplineSet
EndChar

StartChar: f
Encoding: 102 102 261
Width: 820
VWidth: 0
Flags: HW
PickledData: "(dp1
S'org.robofab.postScriptHintData'
p2
(dp3
sS'com.typemytype.robofont.layerData'
p4
(dp5
S'b'
(dp6
S'name'
p7
S'f'
sS'lib'
p8
(dp9
sS'unicodes'
p10
(tsS'width'
p11
F733.10000000000002
sS'contours'
p12
(tsS'components'
p13
(tsS'anchors'
p14
(tsss."
LayerCount: 2
Fore
SplineSet
261 0 m 1
 261 860 l 1
 70 860 l 1
 70 1026 l 1
 261 1026 l 1
 261 1066 l 2
 261 1358 294 1485 693 1485 c 2
 746 1485 l 1
 737 1292 l 1
 527 1292 508 1270 508 1069 c 2
 508 1026 l 1
 739 1026 l 1
 739 860 l 1
 508 860 l 1
 508 0 l 1
 261 0 l 1
EndSplineSet
EndChar

StartChar: f_f
Encoding: 64256 64256 262
Width: 1692
VWidth: 0
Flags: HW
PickledData: "(dp1
S'org.robofab.postScriptHintData'
p2
(dp3
sS'com.typemytype.robofont.layerData'
p4
(dp5
s."
LayerCount: 2
Fore
SplineSet
1377 855 m 1
 1377 0 l 1
 1124 0 l 1
 1124 855 l 1
 515 855 l 1
 515 0 l 1
 262 0 l 1
 262 855 l 1
 70 855 l 1
 70 1026 l 1
 262 1026 l 1
 262 1062 l 2
 262 1357 294 1485 698 1485 c 2
 752 1485 l 1
 742 1287 l 1
 535 1287 515 1267 515 1063 c 2
 515 1026 l 1
 1124 1026 l 1
 1124 1062 l 2
 1124 1357 1156 1485 1560 1485 c 2
 1614 1485 l 1
 1604 1287 l 1
 1397 1287 1377 1267 1377 1063 c 2
 1377 1026 l 1
 1607 1026 l 1
 1607 855 l 1
 1377 855 l 1
EndSplineSet
EndChar

StartChar: uniFB03
Encoding: 64259 64259 263
Width: 2235
VWidth: 0
Flags: HW
PickledData: "(dp1
S'org.robofab.postScriptHintData'
p2
(dp3
sS'com.typemytype.robofont.layerData'
p4
(dp5
s."
LayerCount: 2
Fore
SplineSet
2097 1233 m 1
 1852 1233 l 1
 1852 1456 l 1
 2097 1456 l 1
 2097 1233 l 1
2097 0 m 1
 1852 0 l 1
 1852 855 l 1
 1386 855 l 1
 1386 0 l 1
 1133 0 l 1
 1133 855 l 1
 515 855 l 1
 515 0 l 1
 262 0 l 1
 262 855 l 1
 70 855 l 1
 70 1026 l 1
 262 1026 l 1
 262 1062 l 2
 262 1357 294 1485 698 1485 c 2
 752 1485 l 1
 742 1288 l 1
 535 1288 515 1268 515 1064 c 2
 515 1026 l 1
 1133 1026 l 1
 1133 1062 l 2
 1133 1357 1165 1485 1569 1485 c 2
 1623 1485 l 1
 1613 1288 l 1
 1406 1288 1386 1268 1386 1064 c 2
 1386 1026 l 1
 2097 1026 l 1
 2097 0 l 1
EndSplineSet
EndChar

StartChar: f_f_l
Encoding: 64260 64260 264
Width: 2207
VWidth: 0
Flags: HW
PickledData: "(dp1
S'org.robofab.postScriptHintData'
p2
(dp3
sS'com.typemytype.robofont.layerData'
p4
(dp5
s."
LayerCount: 2
Fore
SplineSet
261 0 m 1
 261 855 l 1
 70 855 l 1
 70 1026 l 1
 261 1026 l 1
 261 1066 l 2
 261 1358 294 1485 693 1485 c 2
 746 1485 l 1
 737 1292 l 1
 527 1292 508 1270 508 1069 c 2
 508 1026 l 1
 910 1026 l 1
 910 855 l 1
 508 855 l 1
 508 0 l 1
 261 0 l 1
EndSplineSet
Refer: 269 64258 N 1 0 0 1 737 0 2
EndChar

StartChar: fi
Encoding: 64257 64257 266
Width: 1292
VWidth: 0
Flags: HW
PickledData: "(dp1
S'org.robofab.postScriptHintData'
p2
(dp3
sS'com.typemytype.robofont.layerData'
p4
(dp5
S'b'
(dp6
S'name'
p7
S'fi'
p8
sS'lib'
p9
(dp10
sS'unicodes'
p11
(tsS'width'
p12
F1237.6500000000001
sS'contours'
p13
((dp14
S'points'
p15
((dp16
S'segmentType'
p17
S'line'
p18
sS'x'
F249
sS'smooth'
p19
I00
sS'y'
F0
s(dp20
g17
S'line'
p21
sS'x'
F249
sg19
I00
sS'y'
F919
s(dp22
g17
S'line'
p23
sS'x'
F68
sg19
I00
sS'y'
F919
s(dp24
g17
S'line'
p25
sS'x'
F68
sg19
I00
sS'y'
F1026
s(dp26
g17
S'line'
p27
sS'x'
F249
sg19
I00
sS'y'
F1026
s(dp28
g17
S'line'
p29
sS'x'
F249
sg19
I01
sS'y'
F1127
s(dp30
S'y'
F1378
sS'x'
F249
sg19
I00
s(dp31
S'y'
F1492
sS'x'
F295
sg19
I00
s(dp32
g17
S'curve'
p33
sS'x'
F630
sg19
I01
sS'y'
F1492
s(dp34
g17
S'line'
p35
sS'x'
F676
sg19
I00
sS'y'
F1492
s(dp36
g17
S'line'
p37
sS'x'
F676
sg19
I00
sS'y'
F1364
s(dp38
S'y'
F1364
sS'x'
F431
sg19
I00
s(dp39
S'y'
F1311
sS'x'
F413
sg19
I00
s(dp40
g17
S'curve'
p41
sS'x'
F413
sg19
I01
sS'y'
F1150
s(dp42
g17
S'line'
p43
sS'x'
F413
sg19
I00
sS'y'
F1026
s(dp44
g17
S'line'
p45
sS'x'
F662
sg19
I00
sS'y'
F1026
s(dp46
g17
S'line'
p47
sS'x'
F662
sg19
I00
sS'y'
F919
s(dp48
g17
S'line'
p49
sS'x'
F413
sg19
I00
sS'y'
F919
s(dp50
g17
S'line'
p51
sS'x'
F413
sg19
I00
sS'y'
F0
stp52
s(dp53
g15
((dp54
g17
S'line'
p55
sS'x'
F869
sg19
I00
sS'y'
F0
s(dp56
g17
S'line'
p57
sS'x'
F869
sg19
I00
sS'y'
F1026
s(dp58
g17
S'line'
p59
sS'x'
F1033
sg19
I00
sS'y'
F1026
s(dp60
g17
S'line'
p61
sS'x'
F1033
sg19
I00
sS'y'
F0
stp62
s(dp63
g15
((dp64
g17
S'line'
p65
sS'x'
F869
sg19
I00
sS'y'
F1307
s(dp66
g17
S'line'
p67
sS'x'
F869
sg19
I00
sS'y'
F1462
s(dp68
g17
S'line'
p69
sS'x'
F1033
sg19
I00
sS'y'
F1462
s(dp70
g17
S'line'
p71
sS'x'
F1033
sg19
I00
sS'y'
F1307
stp72
stp73
sS'components'
p74
(tsS'anchors'
p75
(tsss."
LayerCount: 2
Fore
SplineSet
262 0 m 1
 262 855 l 1
 70 855 l 1
 70 1026 l 1
 262 1026 l 1
 262 1062 l 2
 262 1357 294 1485 698 1485 c 2
 752 1485 l 1
 742 1287 l 1
 535 1287 515 1267 515 1063 c 2
 515 1026 l 1
 924 1026 l 1
 924 855 l 1
 515 855 l 1
 515 0 l 1
 262 0 l 1
EndSplineSet
Refer: 295 105 N 1 0 0 1 760 0 2
EndChar

StartChar: five
Encoding: 53 53 267
Width: 1272
VWidth: 0
Flags: HW
PickledData: "(dp1
S'org.robofab.postScriptHintData'
p2
(dp3
sS'com.typemytype.robofont.layerData'
p4
(dp5
s."
LayerCount: 2
Fore
SplineSet
622 -23 m 0
 459 -23 287 44 161 177 c 1
 294 367 l 1
 389 251 511 194 617 194 c 0
 755 194 885 285 885 475 c 0
 885 611 814 735 692 735 c 0
 625 735 560 720 525 670 c 1
 272 704 l 1
 272 1456 l 1
 1081 1456 l 1
 1081 1239 l 1
 496 1239 l 1
 484 866 l 1
 541 941 639 960 743 960 c 0
 960 960 1147 751 1147 471 c 0
 1147 140 883 -23 622 -23 c 0
EndSplineSet
EndChar

StartChar: fl
Encoding: 64258 64258 269
Width: 1264
VWidth: 0
Flags: HW
PickledData: "(dp1
S'org.robofab.postScriptHintData'
p2
(dp3
sS'com.typemytype.robofont.layerData'
p4
(dp5
S'b'
(dp6
S'name'
p7
S'fl'
p8
sS'lib'
p9
(dp10
sS'unicodes'
p11
(tsS'width'
p12
F1252.7
sS'contours'
p13
(tsS'components'
p14
((dp15
S'transformation'
p16
(I1
I0
I0
I1
I20
I0
tp17
sS'baseGlyph'
p18
S'f'
s(dp19
g16
(I1
I0
I0
I1
I714
I0
tp20
sg18
S'l'
stp21
sS'anchors'
p22
(tsss."
LayerCount: 2
Fore
SplineSet
256 0 m 1
 256 855 l 1
 70 855 l 1
 70 1026 l 1
 256 1026 l 1
 256 1037 l 2
 256 1330 330 1462 671 1462 c 2
 1130 1462 l 1
 1130 0 l 1
 878 0 l 1
 878 1266 l 1
 727 1266 l 2
 550 1266 510 1221 510 1093 c 2
 510 1026 l 1
 740 1026 l 1
 740 855 l 1
 510 855 l 1
 510 0 l 1
 256 0 l 1
EndSplineSet
EndChar

StartChar: florin
Encoding: 402 402 270
Width: 1111
VWidth: 0
Flags: HW
PickledData: "(dp1
S'org.robofab.postScriptHintData'
p2
(dp3
sS'com.typemytype.robofont.layerData'
p4
(dp5
S'b'
(dp6
S'name'
p7
S'florin'
p8
sS'lib'
p9
(dp10
sS'unicodes'
p11
(tsS'width'
p12
F1073.0999999999999
sS'contours'
p13
(tsS'components'
p14
(tsS'anchors'
p15
(tsss."
LayerCount: 2
Fore
SplineSet
203 -315 m 0
 201 -315 145 -313 95 -297 c 1
 112 -90 l 1
 119.424418089 -91.3717758747 166.900382857 -100 211 -100 c 0
 261 -100 324 -88 357 87 c 1
 455 633 l 1
 316 633 l 1
 357 796 l 1
 487 796 l 1
 544 1107 l 2
 570 1244 629 1450 901 1450 c 0
 1032 1450 1091 1405 1091 1405 c 1
 1074 1205 l 1
 1061 1209 1005 1225 959 1225 c 0
 911 1225 844 1215 821 1095 c 2
 763 796 l 1
 913 796 l 1
 880 633 l 1
 726 633 l 1
 620 45 l 2
 570 -233 416 -315 203 -315 c 0
1077 1204 m 1
 1077 1204 1076 1204 1074 1205 c 1
 1076 1204 1077 1204 1077 1204 c 1
EndSplineSet
EndChar

StartChar: foundryicon
Encoding: 65542 -1 271
Width: 1347
VWidth: 0
Flags: HW
PickledData: "(dp1
S'org.robofab.postScriptHintData'
p2
(dp3
s."
LayerCount: 2
Fore
SplineSet
280 2 m 1
 423 461 l 1
 34 755 l 1
 519 755 l 1
 669 1215 l 1
 828 755 l 1
 1313 755 l 1
 922 461 l 1
 1066 2 l 1
 669 278 l 1
 280 2 l 1
485 405 m 1
 591 405 l 1
 591 552 l 1
 761 405 l 1
 867 405 l 1
 867 672 l 1
 761 672 l 1
 761 523 l 1
 591 672 l 1
 485 672 l 1
 485 405 l 1
EndSplineSet
EndChar

StartChar: four
Encoding: 52 52 272
Width: 1272
VWidth: 0
Flags: HW
PickledData: "(dp1
S'org.robofab.postScriptHintData'
p2
(dp3
sS'com.typemytype.robofont.layerData'
p4
(dp5
S'b'
(dp6
S'name'
p7
S'four'
p8
sS'lib'
p9
(dp10
sS'unicodes'
p11
(tsS'width'
p12
F1234.0999999999999
sS'contours'
p13
(tsS'components'
p14
(tsS'anchors'
p15
(tsss."
LayerCount: 2
Fore
SplineSet
389 580 m 1
 728 580 l 1
 728 1134 l 1
 613 951 502 765 389 580 c 1
724 0 m 1
 724 381 l 1
 107 381 l 1
 107 570 l 1
 691 1456 l 1
 977 1456 l 1
 977 580 l 1
 1206 580 l 1
 1206 381 l 1
 982 381 l 1
 982 0 l 1
 724 0 l 1
EndSplineSet
EndChar

StartChar: foursuperior
Encoding: 8308 8308 273
Width: 762
VWidth: 0
Flags: HW
PickledData: "(dp1
S'org.robofab.postScriptHintData'
p2
(dp3
sS'com.typemytype.robofont.layerData'
p4
(dp5
s."
LayerCount: 2
Fore
SplineSet
236 973 m 1
 416 973 l 1
 416 1229 l 1
 236 973 l 1
418 642 m 1
 418 837 l 1
 51 837 l 1
 51 952 l 1
 419 1456 l 1
 604 1456 l 1
 604 973 l 1
 721 973 l 1
 721 837 l 1
 604 837 l 1
 604 642 l 1
 418 642 l 1
EndSplineSet
EndChar

StartChar: fraction
Encoding: 8260 8260 274
Width: 1134
VWidth: 0
Flags: HW
PickledData: "(dp1
S'org.robofab.postScriptHintData'
p2
(dp3
sS'com.typemytype.robofont.layerData'
p4
(dp5
S'b'
(dp6
S'name'
p7
S'fraction'
p8
sS'lib'
p9
(dp10
sS'unicodes'
p11
(tsS'width'
p12
F1077.8
sS'contours'
p13
(tsS'components'
p14
(tsS'anchors'
p15
(tsss."
LayerCount: 2
Fore
SplineSet
-12 0 m 1
 873 1456 l 1
 1122 1456 l 1
 237 0 l 1
 -12 0 l 1
EndSplineSet
EndChar

StartChar: g
Encoding: 103 103 275
Width: 1235
VWidth: 0
Flags: HW
PickledData: "(dp1
S'org.robofab.postScriptHintData'
p2
(dp3
sS'com.typemytype.robofont.layerData'
p4
(dp5
S'b'
(dp6
S'name'
p7
S'g'
sS'lib'
p8
(dp9
sS'unicodes'
p10
(tsS'width'
p11
I1254
sS'contours'
p12
((dp13
S'points'
p14
((dp15
S'segmentType'
p16
S'curve'
p17
sS'x'
F580
sS'smooth'
p18
I01
sS'y'
F134
s(dp19
S'y'
F134
sS'x'
F799
sg18
I00
s(dp20
S'y'
F295
sS'x'
F920
sg18
I00
s(dp21
g16
S'curve'
p22
sS'x'
F920
sg18
I01
sS'y'
F550
s(dp23
S'y'
F775
sS'x'
F920
sg18
I00
s(dp24
S'y'
F918
sS'x'
F796
sg18
I00
s(dp25
g16
S'curve'
p26
sS'x'
F600
sg18
I01
sS'y'
F918
s(dp27
S'y'
F918
sS'x'
F399
sg18
I00
s(dp28
S'y'
F762
sS'x'
F268
sg18
I00
s(dp29
g16
S'curve'
p30
sS'x'
F268
sg18
I01
sS'y'
F515
s(dp31
S'y'
F282
sS'x'
F268
sg18
I00
s(dp32
S'y'
F134
sS'x'
F389
sg18
I00
stp33
s(dp34
g14
((dp35
g16
S'curve'
p36
sS'x'
F534
sg18
I01
sS'y'
F-420
s(dp37
S'y'
F-420
sS'x'
F408
sg18
I00
s(dp38
S'y'
F-381
sS'x'
F289
sg18
I00
s(dp39
g16
S'curve'
p40
sS'x'
F189
sg18
I00
sS'y'
F-331
s(dp41
g16
S'line'
p42
sS'x'
F216
sg18
I00
sS'y'
F-187
s(dp43
S'y'
F-238
sS'x'
F300
sg18
I00
s(dp44
S'y'
F-282
sS'x'
F416
sg18
I00
s(dp45
g16
S'curve'
p46
sS'x'
F528
sg18
I01
sS'y'
F-282
s(dp47
S'y'
F-282
sS'x'
F790
sg18
I00
s(dp48
S'y'
F-183
sS'x'
F920
sg18
I00
s(dp49
g16
S'curve'
p50
sS'x'
F920
sg18
I01
sS'y'
F49
s(dp51
g16
S'line'
p52
sS'x'
F920
sg18
I00
sS'y'
F273
s(dp53
g16
S'line'
p54
sS'x'
F948
sg18
I00
sS'y'
F253
s(dp55
S'y'
F139
sS'x'
F905
sg18
I00
s(dp56
S'y'
F0
sS'x'
F802
sg18
I00
s(dp57
g16
S'curve'
p58
sS'x'
F579
sg18
I01
sS'y'
F0
s(dp59
S'y'
F0
sS'x'
F298
sg18
I00
s(dp60
S'y'
F201
sS'x'
F98
sg18
I00
s(dp61
g16
S'curve'
p62
sS'x'
F98
sg18
I01
sS'y'
F511
s(dp63
S'y'
F843
sS'x'
F98
sg18
I00
s(dp64
S'y'
F1052
sS'x'
F284
sg18
I00
s(dp65
g16
S'curve'
p66
sS'x'
F579
sg18
I01
sS'y'
F1052
s(dp67
S'y'
F1052
sS'x'
F820
sg18
I00
s(dp68
S'y'
F900
sS'x'
F903
sg18
I00
s(dp69
g16
S'curve'
p70
sS'x'
F958
sg18
I00
sS'y'
F798
s(dp71
g16
S'line'
p72
sS'x'
F919
sg18
I00
sS'y'
F787
s(dp73
g16
S'line'
p74
sS'x'
F926
sg18
I00
sS'y'
F1026
s(dp75
g16
S'line'
p76
sS'x'
F1090
sg18
I00
sS'y'
F1026
s(dp77
S'y'
F1026
sS'x'
F1090
sg18
I00
s(dp78
S'y'
F857
sS'x'
F1084
sg18
I00
s(dp79
g16
S'curve'
p80
sS'x'
F1084
sg18
I01
sS'y'
F773
s(dp81
g16
S'line'
p82
sS'x'
F1084
sg18
I01
sS'y'
F143
s(dp83
S'y'
F-255
sS'x'
F1084
sg18
I00
s(dp84
S'y'
F-420
sS'x'
F903
sg18
I00
stp85
stp86
sS'components'
p87
(tsS'anchors'
p88
(tsss."
LayerCount: 2
Fore
SplineSet
626 187 m 0
 829 187 879 360 879 516 c 0
 879 705 804 851 629 851 c 0
 450 851 368 690 368 515 c 0
 368 318 444 187 626 187 c 0
578 -418 m 0
 443 -418 313 -394 188 -348 c 1
 231 -134 l 1
 356 -199 471 -212 560 -212 c 0
 745 -212 866 -136 866 35 c 2
 866 122 l 1
 827 68 751 0 609 0 c 0
 307 0 108 199 108 515 c 0
 108 795 255 1052 590 1052 c 0
 723 1052 819 990 867 916 c 1
 867 1026 l 1
 1130 1026 l 1
 1130 1026 1110 874 1110 682 c 2
 1110 147 l 2
 1110 -95 1042 -418 578 -418 c 0
EndSplineSet
EndChar

StartChar: germandbls
Encoding: 223 223 282
Width: 1265
VWidth: 0
Flags: HW
PickledData: "(dp1
S'org.robofab.postScriptHintData'
p2
(dp3
sS'com.typemytype.robofont.layerData'
p4
(dp5
S'b'
(dp6
S'name'
p7
S'germandbls'
p8
sS'lib'
p9
(dp10
sS'unicodes'
p11
(tsS'width'
p12
F1250.95145088
sS'contours'
p13
(tsS'components'
p14
(tsS'anchors'
p15
(tsss."
LayerCount: 2
Fore
SplineSet
763 175 m 0
 862.68399608 175 922 221.775562448 922 335 c 0
 922 488 828 580 571 709 c 1
 571 897 l 1
 668 939 772 1037 772 1146 c 0
 772 1233 691 1280 608 1280 c 0
 479 1280 387 1185 387 999 c 2
 387 0 l 1
 147 0 l 1
 144 1000 l 2
 143 1327 326 1478 607 1478 c 0
 863 1478 1043 1346 1043 1161 c 0
 1043 1044 977 915 851 852 c 0
 814 833 784 822 744 811 c 1
 988 758 1198 615 1198 354 c 0
 1198 121 1033 -22 828 -22 c 0
 652 -22 504 37 504 37 c 1
 548 230 l 1
 548 230 660 175 763 175 c 0
EndSplineSet
EndChar

StartChar: grave
Encoding: 96 96 283
Width: 610
VWidth: 0
Flags: HW
PickledData: "(dp1
S'org.robofab.postScriptHintData'
p2
(dp3
sS'com.typemytype.robofont.layerData'
p4
(dp5
s."
LayerCount: 2
Fore
SplineSet
336 1166 m 1
 -15 1455 l 1
 303 1455 l 1
 565 1166 l 1
 336 1166 l 1
EndSplineSet
EndChar

StartChar: greater
Encoding: 62 62 284
Width: 1418
VWidth: 0
Flags: HW
PickledData: "(dp1
S'org.robofab.postScriptHintData'
p2
(dp3
sS'com.typemytype.robofont.layerData'
p4
(dp5
S'b'
(dp6
S'name'
p7
S'greater'
p8
sS'lib'
p9
(dp10
sS'unicodes'
p11
(tsS'width'
p12
F1268.05
sS'contours'
p13
(tsS'components'
p14
(tsS'anchors'
p15
(tsss."
LayerCount: 2
Fore
SplineSet
214 39 m 1
 214 272 l 1
 934 573 l 1
 219 897 l 1
 219 1123 l 1
 1269 624 l 1
 1269 500 l 1
 214 39 l 1
EndSplineSet
EndChar

StartChar: greaterequal
Encoding: 8805 8805 285
Width: 1351
VWidth: 0
Flags: HW
PickledData: "(dp1
S'org.robofab.postScriptHintData'
p2
(dp3
sS'com.typemytype.robofont.layerData'
p4
(dp5
S'b'
(dp6
S'name'
p7
S'greaterequal'
p8
sS'lib'
p9
(dp10
sS'unicodes'
p11
(tsS'width'
p12
F1350.3499999999999
sS'contours'
p13
(tsS'components'
p14
(tsS'anchors'
p15
(tsss."
LayerCount: 2
Fore
SplineSet
96 0 m 1
 96 189 l 1
 1167 189 l 1
 1167 0 l 1
 96 0 l 1
103 261 m 1
 103 489 l 1
 828 807 l 1
 107 1117 l 1
 107 1340 l 1
 1156 867 l 1
 1156 752 l 1
 103 261 l 1
EndSplineSet
EndChar

StartChar: guillemotleft
Encoding: 171 171 286
Width: 1177
VWidth: 0
Flags: HW
PickledData: "(dp1
S'org.robofab.postScriptHintData'
p2
(dp3
sS'com.typemytype.robofont.layerData'
p4
(dp5
S'b'
(dp6
S'name'
p7
S'guillemotright'
p8
sS'lib'
p9
(dp10
sS'unicodes'
p11
(tsS'width'
p12
F1122.45
sS'contours'
p13
(tsS'components'
p14
(tsS'anchors'
p15
(tsss."
LayerCount: 2
Fore
SplineSet
854 158 m 1
 577 541 l 1
 860 922 l 1
 1060 922 l 1
 822 539 l 1
 1052 158 l 1
 854 158 l 1
413 158 m 1
 136 541 l 1
 419 922 l 1
 619 922 l 1
 381 539 l 1
 611 158 l 1
 413 158 l 1
EndSplineSet
EndChar

StartChar: guillemotright
Encoding: 187 187 287
Width: 1177
VWidth: 0
Flags: HW
PickledData: "(dp1
S'org.robofab.postScriptHintData'
p2
(dp3
sS'com.typemytype.robofont.layerData'
p4
(dp5
S'b'
(dp6
S'name'
p7
S'guillemotright'
p8
sS'lib'
p9
(dp10
sS'unicodes'
p11
(tsS'width'
p12
F1122.45
sS'contours'
p13
(tsS'components'
p14
(tsS'anchors'
p15
(tsss."
LayerCount: 2
Fore
SplineSet
575 158 m 1
 814 541 l 1
 583 922 l 1
 782 922 l 1
 1059 539 l 1
 776 158 l 1
 575 158 l 1
134 158 m 1
 373 541 l 1
 142 922 l 1
 341 922 l 1
 618 539 l 1
 335 158 l 1
 134 158 l 1
EndSplineSet
EndChar

StartChar: guilsinglleft
Encoding: 8249 8249 288
Width: 725
VWidth: 0
Flags: HW
PickledData: "(dp1
S'org.robofab.postScriptHintData'
p2
(dp3
sS'com.typemytype.robofont.layerData'
p4
(dp5
S'b'
(dp6
S'name'
p7
S'guilsinglleft'
p8
sS'lib'
p9
(dp10
sS'unicodes'
p11
(tsS'width'
p12
F688.39999999999998
sS'contours'
p13
(tsS'components'
p14
(tsS'anchors'
p15
(tsss."
LayerCount: 2
Fore
SplineSet
415 158 m 1
 138 541 l 1
 421 922 l 1
 621 922 l 1
 383 540 l 1
 613 158 l 1
 415 158 l 1
EndSplineSet
EndChar

StartChar: guilsinglright
Encoding: 8250 8250 289
Width: 725
VWidth: 0
Flags: HW
PickledData: "(dp1
S'org.robofab.postScriptHintData'
p2
(dp3
sS'com.typemytype.robofont.layerData'
p4
(dp5
S'b'
(dp6
S'name'
p7
S'guilsinglleft'
p8
sS'lib'
p9
(dp10
sS'unicodes'
p11
(tsS'width'
p12
F688.39999999999998
sS'contours'
p13
(tsS'components'
p14
(tsS'anchors'
p15
(tsss."
LayerCount: 2
Fore
SplineSet
91 157 m 1
 329 539 l 1
 99 921 l 1
 297 921 l 1
 575 538 l 1
 291 157 l 1
 91 157 l 1
EndSplineSet
EndChar

StartChar: h
Encoding: 104 104 290
Width: 1219
VWidth: 0
Flags: HW
PickledData: "(dp1
S'org.robofab.postScriptHintData'
p2
(dp3
sS'com.typemytype.robofont.layerData'
p4
(dp5
S'b'
(dp6
S'name'
p7
S'h'
sS'lib'
p8
(dp9
sS'unicodes'
p10
(tsS'width'
p11
F1237.95
sS'contours'
p12
((dp13
S'points'
p14
((dp15
S'segmentType'
p16
S'line'
p17
sS'x'
F178
sS'smooth'
p18
I00
sS'y'
F0
s(dp19
g16
S'line'
p20
sS'x'
F178
sg18
I01
sS'y'
F779
s(dp21
S'y'
F902
sS'x'
F178
sg18
I00
s(dp22
S'y'
F1026
sS'x'
F172
sg18
I00
s(dp23
g16
S'curve'
p24
sS'x'
F172
sg18
I00
sS'y'
F1026
s(dp25
g16
S'line'
p26
sS'x'
F339
sg18
I00
sS'y'
F1026
s(dp27
g16
S'line'
p28
sS'x'
F343
sg18
I00
sS'y'
F864
s(dp29
S'y'
F976
sS'x'
F423
sg18
I00
s(dp30
S'y'
F1051
sS'x'
F548
sg18
I00
s(dp31
g16
S'curve'
p32
sS'x'
F700
sg18
I01
sS'y'
F1051
s(dp33
S'y'
F1051
sS'x'
F999
sg18
I00
s(dp34
S'y'
F844
sS'x'
F1082
sg18
I00
s(dp35
g16
S'curve'
p36
sS'x'
F1082
sg18
I01
sS'y'
F550
s(dp37
g16
S'line'
p38
sS'x'
F1082
sg18
I00
sS'y'
F0
s(dp39
g16
S'line'
p40
sS'x'
F917
sg18
I00
sS'y'
F0
s(dp41
g16
S'line'
p42
sS'x'
F917
sg18
I01
sS'y'
F531
s(dp43
S'y'
F764
sS'x'
F917
sg18
I00
s(dp44
S'y'
F917
sS'x'
F886
sg18
I00
s(dp45
g16
S'curve'
p46
sS'x'
F670
sg18
I01
sS'y'
F917
s(dp47
S'y'
F917
sS'x'
F471
sg18
I00
s(dp48
S'y'
F742
sS'x'
F344
sg18
I00
s(dp49
g16
S'curve'
p50
sS'x'
F343
sg18
I00
sS'y'
F652
s(dp51
g16
S'line'
p52
sS'x'
F343
sg18
I00
sS'y'
F0
stp53
stp54
sS'components'
p55
(tsS'anchors'
p56
(tsss."
LayerCount: 2
Fore
SplineSet
144 0 m 1
 144 1457 l 1
 392 1457 l 1
 392 893 l 1
 445 993 596 1052 699 1052 c 0
 1043 1052 1089 758 1089 571 c 2
 1089 0 l 1
 841 0 l 1
 841 579 l 2
 841 778 777 851 661 851 c 0
 527 851 392 743 392 618 c 2
 392 0 l 1
 144 0 l 1
EndSplineSet
EndChar

StartChar: hungarumlaut
Encoding: 733 733 293
Width: 969
VWidth: 0
Flags: HW
PickledData: "(dp1
S'org.robofab.postScriptHintData'
p2
(dp3
s."
LayerCount: 2
Fore
SplineSet
407 1152 m 5
 616 1496 l 5
 912 1496 l 5
 594 1152 l 5
 407 1152 l 5
69 1152 m 5
 222 1496 l 5
 486 1496 l 5
 248 1152 l 5
 69 1152 l 5
EndSplineSet
EndChar

StartChar: hyphen
Encoding: 45 45 294
Width: 741
VWidth: 0
Flags: HW
PickledData: "(dp1
S'org.robofab.postScriptHintData'
p2
(dp3
sS'com.typemytype.robofont.layerData'
p4
(dp5
S'b'
(dp6
S'name'
p7
S'hyphen'
p8
sS'lib'
p9
(dp10
sS'unicodes'
p11
(tsS'width'
p12
F683.5
sS'contours'
p13
(tsS'components'
p14
(tsS'anchors'
p15
(tsss."
LayerCount: 2
Fore
SplineSet
54 457 m 1
 54 647 l 1
 686 647 l 1
 686 457 l 1
 54 457 l 1
EndSplineSet
EndChar

StartChar: i
Encoding: 105 105 295
Width: 524
VWidth: 0
Flags: HW
PickledData: "(dp1
S'org.robofab.postScriptHintData'
p2
(dp3
sS'com.typemytype.robofont.layerData'
p4
(dp5
S'b'
(dp6
S'name'
p7
S'i'
sS'lib'
p8
(dp9
sS'unicodes'
p10
(tsS'width'
p11
F521.10000000000002
sS'contours'
p12
(tsS'components'
p13
(tsS'anchors'
p14
(tsss."
LayerCount: 2
Fore
SplineSet
142 1238 m 1
 142 1456 l 1
 382 1456 l 1
 382 1238 l 1
 142 1238 l 1
143 0 m 1
 143 1026 l 1
 382 1026 l 1
 382 0 l 1
 143 0 l 1
EndSplineSet
EndChar

StartChar: increment
Encoding: 8710 8710 307
Width: 1502
VWidth: 0
Flags: HW
PickledData: "(dp1
S'org.robofab.postScriptHintData'
p2
(dp3
sS'com.typemytype.robofont.layerData'
p4
(dp5
S'b'
(dp6
S'name'
p7
S'uni2206'
p8
sS'lib'
p9
(dp10
sS'unicodes'
p11
(tsS'width'
p12
F1312.25
sS'contours'
p13
(tsS'components'
p14
(tsS'anchors'
p15
(tsss."
LayerCount: 2
Fore
SplineSet
322 217 m 1
 1122 217 l 1
 710 1159 l 1
 322 217 l 1
61 0 m 1
 61 219 l 1
 611 1456 l 1
 882 1456 l 1
 1436 234 l 1
 1436 0 l 1
 61 0 l 1
EndSplineSet
EndChar

StartChar: infinity
Encoding: 8734 8734 308
Width: 1742
VWidth: 0
Flags: HW
PickledData: "(dp1
S'org.robofab.postScriptHintData'
p2
(dp3
s."
LayerCount: 2
Fore
SplineSet
1280 385 m 0
 1426 385 1480 492 1480 627 c 0
 1480 731 1403 820 1275 820 c 0
 1149 820 1038 715 957 603 c 1
 1073 462 1162 385 1280 385 c 0
484 385 m 0
 608 385 713 484 800 601 c 1
 713 724 608 820 474 820 c 0
 336 820 266 721 266 603 c 0
 266 493 346 385 484 385 c 0
467 231 m 0
 246 231 96 412 96 626 c 0
 96 819 268 974 462 974 c 0
 627 974 758 879 876 719 c 1
 988 875 1110 974 1282 974 c 0
 1504 974 1647 820 1647 607 c 0
 1647 384 1476 231 1280 231 c 0
 1129 231 1008 309 874 486 c 1
 758 332 629 231 467 231 c 0
EndSplineSet
EndChar

StartChar: integral
Encoding: 8747 8747 309
Width: 820
VWidth: 0
Flags: HW
PickledData: "(dp1
S'org.robofab.postScriptHintData'
p2
(dp3
sS'com.typemytype.robofont.layerData'
p4
(dp5
S'b'
(dp6
S'name'
p7
S'integral'
p8
sS'lib'
p9
(dp10
sS'unicodes'
p11
(tsS'width'
p12
F754
sS'contours'
p13
(tsS'components'
p14
(tsS'anchors'
p15
(tsss."
LayerCount: 2
Fore
SplineSet
199 -324 m 0
 91 -324 26 -296 26 -296 c 1
 26 -109 l 1
 26 -109 101 -125 163 -125 c 0
 247 -125 261 -67 261 40 c 2
 261 1158 l 2
 261 1379 365 1542 594 1542 c 0
 687 1542 770 1516 770 1516 c 1
 770 1321 l 1
 770 1321 690 1343 633 1343 c 0
 544 1343 520 1285 520 1179 c 2
 520 59 l 2
 520 -161 430 -324 199 -324 c 0
EndSplineSet
EndChar

StartChar: j
Encoding: 106 106 312
Width: 600
VWidth: 0
Flags: HW
PickledData: "(dp1
S'org.robofab.postScriptHintData'
p2
(dp3
sS'com.typemytype.robofont.layerData'
p4
(dp5
S'b'
(dp6
S'name'
p7
S'j'
sS'lib'
p8
(dp9
sS'unicodes'
p10
(tsS'width'
p11
F536.89999999999998
sS'contours'
p12
((dp13
S'points'
p14
((dp15
S'segmentType'
p16
S'curve'
p17
sS'x'
F65
sS'smooth'
p18
I01
sS'y'
F-410
s(dp19
S'y'
F-410
sS'x'
F-24
sg18
I00
s(dp20
S'y'
F-390
sS'x'
F-117
sg18
I00
s(dp21
g16
S'curve'
p22
sS'x'
F-117
sg18
I00
sS'y'
F-390
s(dp23
g16
S'line'
p24
sS'x'
F-102
sg18
I00
sS'y'
F-267
s(dp25
S'y'
F-267
sS'x'
F-102
sg18
I00
s(dp26
S'y'
F-280
sS'x'
F-44
sg18
I00
s(dp27
g16
S'curve'
p28
sS'x'
F19
sg18
I01
sS'y'
F-280
s(dp29
S'y'
F-280
sS'x'
F153
sg18
I00
s(dp30
S'y'
F-208
sS'x'
F177
sg18
I00
s(dp31
g16
S'curve'
p32
sS'x'
F177
sg18
I01
sS'y'
F-2
s(dp33
g16
S'line'
p34
sS'x'
F177
sg18
I00
sS'y'
F1026
s(dp35
g16
S'line'
p36
sS'x'
F341
sg18
I00
sS'y'
F1026
s(dp37
g16
S'line'
p38
sS'x'
F341
sg18
I01
sS'y'
F-6
s(dp39
S'y'
F-274
sS'x'
F341
sg18
I00
s(dp40
S'y'
F-410
sS'x'
F246
sg18
I00
stp41
s(dp42
g14
((dp43
g16
S'line'
p44
sS'x'
F177
sg18
I00
sS'y'
F1307
s(dp45
g16
S'line'
p46
sS'x'
F177
sg18
I00
sS'y'
F1462
s(dp47
g16
S'line'
p48
sS'x'
F341
sg18
I00
sS'y'
F1462
s(dp49
g16
S'line'
p50
sS'x'
F341
sg18
I00
sS'y'
F1307
stp51
stp52
sS'components'
p53
(tsS'anchors'
p54
(tsss."
LayerCount: 2
Fore
SplineSet
224 1228 m 1
 224 1456 l 1
 470 1456 l 1
 470 1228 l 1
 224 1228 l 1
EndSplineSet
Refer: 235 567 N 1 0 0 1 0 0 2
EndChar

StartChar: k
Encoding: 107 107 315
Width: 1076
VWidth: 0
Flags: HW
PickledData: "(dp1
S'org.robofab.postScriptHintData'
p2
(dp3
sS'com.typemytype.robofont.layerData'
p4
(dp5
S'b'
(dp6
S'name'
p7
S'k'
sS'lib'
p8
(dp9
sS'unicodes'
p10
(tsS'width'
p11
F1078.6500000000001
sS'contours'
p12
(tsS'components'
p13
(tsS'anchors'
p14
(tsss."
LayerCount: 2
Fore
SplineSet
140 0 m 1
 140 1457 l 1
 388 1457 l 1
 388 607 l 1
 759 1026 l 1
 1101 1026 l 1
 612 530 l 1
 1133 0 l 1
 805 0 l 1
 388 444 l 1
 388 0 l 1
 140 0 l 1
EndSplineSet
EndChar

StartChar: kgreenlandic
Encoding: 312 312 318
Width: 1082
VWidth: 0
Flags: HW
PickledData: "(dp1
S'org.robofab.postScriptHintData'
p2
(dp3
sS'com.typemytype.robofont.layerData'
p4
(dp5
s."
LayerCount: 2
Fore
SplineSet
145 0 m 1
 145 1026 l 1
 392 1026 l 1
 392 632 l 1
 747 1026 l 1
 1089 1026 l 1
 573 505 l 1
 1027 88 629 449 1123 0 c 1
 790 0 l 1
 392 383 l 1
 392 0 l 1
 145 0 l 1
EndSplineSet
EndChar

StartChar: l
Encoding: 108 108 319
Width: 526
VWidth: 0
Flags: HW
PickledData: "(dp1
S'org.robofab.postScriptHintData'
p2
(dp3
sS'com.typemytype.robofont.layerData'
p4
(dp5
S'b'
(dp6
S'name'
p7
S'l'
sS'lib'
p8
(dp9
sS'unicodes'
p10
(tsS'width'
p11
F521.79999999999995
sS'contours'
p12
(tsS'components'
p13
(tsS'anchors'
p14
(tsss."
AnchorPoint: "caron.alt" 187 1026 basechar 0
LayerCount: 2
Fore
SplineSet
142 0 m 1
 142 1457 l 1
 387 1457 l 1
 387 0 l 1
 142 0 l 1
EndSplineSet
EndChar

StartChar: less
Encoding: 60 60 324
Width: 1416
VWidth: 0
Flags: HW
PickledData: "(dp1
S'org.robofab.postScriptHintData'
p2
(dp3
sS'com.typemytype.robofont.layerData'
p4
(dp5
S'b'
(dp6
S'name'
p7
S'less'
p8
sS'lib'
p9
(dp10
sS'unicodes'
p11
(tsS'width'
p12
F1267.3499999999999
sS'contours'
p13
(tsS'components'
p14
(tsS'anchors'
p15
(tsss."
LayerCount: 2
Fore
SplineSet
1197 36 m 1
 148 509 l 1
 148 624 l 1
 1201 1115 l 1
 1201 888 l 1
 476 569 l 1
 1197 259 l 1
 1197 36 l 1
EndSplineSet
EndChar

StartChar: lessequal
Encoding: 8804 8804 325
Width: 1351
VWidth: 0
Flags: HW
PickledData: "(dp1
S'org.robofab.postScriptHintData'
p2
(dp3
sS'com.typemytype.robofont.layerData'
p4
(dp5
S'b'
(dp6
S'name'
p7
S'lessequal'
p8
sS'lib'
p9
(dp10
sS'unicodes'
p11
(tsS'width'
p12
F1350.3499999999999
sS'contours'
p13
(tsS'components'
p14
(tsS'anchors'
p15
(tsss."
LayerCount: 2
Fore
SplineSet
101 0 m 1
 101 189 l 1
 1172 189 l 1
 1172 0 l 1
 101 0 l 1
1153 262 m 1
 104 736 l 1
 104 850 l 1
 1157 1342 l 1
 1157 1114 l 1
 432 796 l 1
 1153 486 l 1
 1153 262 l 1
EndSplineSet
EndChar

StartChar: logicalnot
Encoding: 172 172 327
Width: 1457
VWidth: 0
Flags: HW
PickledData: "(dp1
S'org.robofab.postScriptHintData'
p2
(dp3
sS'com.typemytype.robofont.layerData'
p4
(dp5
S'b'
(dp6
S'name'
p7
S'logicalnot'
p8
sS'lib'
p9
(dp10
sS'unicodes'
p11
(tsS'width'
p12
F1463.2
sS'contours'
p13
(tsS'components'
p14
(tsS'anchors'
p15
(tsss."
LayerCount: 2
Fore
SplineSet
995 220 m 1
 995 609 l 1
 163 609 l 1
 163 814 l 1
 1228 814 l 1
 1228 220 l 1
 995 220 l 1
EndSplineSet
EndChar

StartChar: lozenge
Encoding: 9674 9674 329
Width: 1248
VWidth: 0
Flags: HW
PickledData: "(dp1
S'org.robofab.postScriptHintData'
p2
(dp3
sS'com.typemytype.robofont.layerData'
p4
(dp5
s."
LayerCount: 2
Fore
SplineSet
593 226 m 1
 876 697 l 1
 599 1154 l 1
 316 697 l 1
 593 226 l 1
510 -40 m 1
 71 697 l 1
 516 1436 l 1
 679 1436 l 1
 1122 698 l 1
 673 -40 l 1
 510 -40 l 1
EndSplineSet
EndChar

StartChar: lslash
Encoding: 322 322 330
Width: 503
VWidth: 0
Flags: HW
PickledData: "(dp1
S'org.robofab.postScriptHintData'
p2
(dp3
s."
LayerCount: 2
Fore
SplineSet
118 0 m 1
 118 727 l 1
 7 627 l 1
 7 845 l 1
 116 945 l 1
 116 1458 l 1
 366 1458 l 1
 366 1130 l 1
 468 1226 l 1
 468 1003 l 1
 367 904 l 1
 367 0 l 1
 118 0 l 1
EndSplineSet
EndChar

StartChar: m
Encoding: 109 109 331
Width: 1839
VWidth: 0
Flags: HW
PickledData: "(dp1
S'org.robofab.postScriptHintData'
p2
(dp3
sS'com.typemytype.robofont.guides'
p4
(tsS'com.typemytype.robofont.layerData'
p5
(dp6
S'b'
(dp7
S'name'
p8
S'm'
sS'lib'
p9
(dp10
sS'unicodes'
p11
(tsS'width'
p12
F1873.95
sS'contours'
p13
(tsS'components'
p14
(tsS'anchors'
p15
(tsss."
LayerCount: 2
Fore
SplineSet
160 0 m 1
 160 696 l 2
 160 872 144 955 141 1026 c 1
 402 1026 l 1
 402 892 l 1
 451 983 563 1052 689 1052 c 0
 815 1052 935 993 996 862 c 1
 1071 970 1175 1052 1329 1052 c 0
 1587 1052 1706 883 1706 629 c 2
 1706 0 l 1
 1458 0 l 1
 1458 614 l 2
 1458 712 1427 851 1310 851 c 0
 1156 851 1058 708 1058 581 c 2
 1058 0 l 1
 810 0 l 1
 810 627 l 2
 810 715 787 851 653 851 c 0
 510 851 408 741 408 623 c 2
 408 0 l 1
 160 0 l 1
EndSplineSet
EndChar

StartChar: macron
Encoding: 175 175 332
Width: 756
VWidth: 0
Flags: HW
PickledData: "(dp1
S'org.robofab.postScriptHintData'
p2
(dp3
sS'com.typemytype.robofont.layerData'
p4
(dp5
S'b'
(dp6
S'name'
p7
S'macron'
p8
sS'lib'
p9
(dp10
sS'unicodes'
p11
(tsS'width'
p12
F723
sS'contours'
p13
(tsS'components'
p14
(tsS'anchors'
p15
(tsss."
LayerCount: 2
Fore
SplineSet
66 1146 m 1
 66 1303 l 1
 690 1303 l 1
 690 1146 l 1
 66 1146 l 1
EndSplineSet
EndChar

StartChar: minus
Encoding: 8722 8722 335
Width: 1499
VWidth: 0
Flags: HW
PickledData: "(dp1
S'org.robofab.postScriptHintData'
p2
(dp3
s."
LayerCount: 2
Fore
SplineSet
201 284 m 1
 201 486 l 1
 1297 486 l 1
 1297 284 l 1
 201 284 l 1
EndSplineSet
EndChar

StartChar: mu
Encoding: 956 956 336
Width: 1179
VWidth: 0
Flags: HW
PickledData: "(dp1
S'org.robofab.postScriptHintData'
p2
(dp3
s."
LayerCount: 2
Fore
SplineSet
379 -213 m 1
 125 -213 l 1
 125 1026 l 1
 366 1026 l 1
 372 466 l 1
 372 285 412 176 555 176 c 0
 701 176 785 221 785 425 c 2
 785 1026 l 1
 1036 1026 l 1
 1036 262 l 2
 1036 156 1039 114 1051 0 c 1
 793 0 l 1
 789 149 l 1
 736 7 603 -23 524 -23 c 0
 471 -23 405 -3 379 27 c 1
 379 -213 l 1
EndSplineSet
EndChar

StartChar: multiply
Encoding: 215 215 337
Width: 1272
VWidth: 0
Flags: HW
PickledData: "(dp1
S'org.robofab.postScriptHintData'
p2
(dp3
sS'com.typemytype.robofont.layerData'
p4
(dp5
s."
LayerCount: 2
Fore
SplineSet
362 116 m 1
 201 278 l 1
 470 547 l 1
 201 816 l 1
 362 977 l 1
 631 709 l 1
 902 977 l 1
 1062 817 l 1
 792 547 l 1
 1062 276 l 1
 902 116 l 1
 631 386 l 1
 362 116 l 1
EndSplineSet
EndChar

StartChar: n
Encoding: 110 110 338
Width: 1224
VWidth: 0
Flags: HW
PickledData: "(dp1
S'org.robofab.postScriptHintData'
p2
(dp3
sS'com.typemytype.robofont.layerData'
p4
(dp5
S'b'
(dp6
S'name'
p7
S'n'
sS'lib'
p8
(dp9
sS'unicodes'
p10
(tsS'width'
p11
F1240.05
sS'contours'
p12
(tsS'components'
p13
(tsS'anchors'
p14
(tsss."
LayerCount: 2
Fore
SplineSet
158 0 m 1
 158 635 l 2
 158 880 138 1026 138 1026 c 1
 401 1026 l 1
 401 889 l 1
 477 1003 615 1052 714 1052 c 0
 941 1052 1094 942 1094 585 c 2
 1094 0 l 1
 846 0 l 1
 846 602 l 2
 846 784 793 851 663 851 c 0
 572 851 406 768 406 614 c 2
 406 0 l 1
 158 0 l 1
EndSplineSet
EndChar

StartChar: nine
Encoding: 57 57 343
Width: 1272
VWidth: 0
Flags: HW
PickledData: "(dp1
S'org.robofab.postScriptHintData'
p2
(dp3
sS'com.typemytype.robofont.layerData'
p4
(dp5
S'b'
(dp6
S'name'
p7
S'nine'
p8
sS'lib'
p9
(dp10
sS'unicodes'
p11
(tsS'width'
p12
F1235.4000000000001
sS'contours'
p13
((dp14
S'points'
p15
((dp16
S'segmentType'
p17
S'curve'
p18
sS'x'
F314
sS'smooth'
p19
I01
sS'y'
F1010
s(dp20
S'y'
F827
sS'x'
F314
sg19
I00
s(dp21
S'y'
F687
sS'x'
F393
sg19
I00
s(dp22
g17
S'curve'
p23
sS'x'
F604
sg19
I01
sS'y'
F687
s(dp24
S'y'
F687
sS'x'
F784
sg19
I00
s(dp25
S'y'
F803
sS'x'
F908
sg19
I00
s(dp26
g17
S'curve'
p27
sS'x'
F908
sg19
I01
sS'y'
F991
s(dp28
S'y'
F1166
sS'x'
F908
sg19
I00
s(dp29
S'y'
F1334
sS'x'
F815
sg19
I00
s(dp30
g17
S'curve'
p31
sS'x'
F605
sg19
I01
sS'y'
F1334
s(dp32
S'y'
F1334
sS'x'
F419
sg19
I00
s(dp33
S'y'
F1196
sS'x'
F314
sg19
I00
stp34
s(dp35
g15
((dp36
g17
S'curve'
p37
sS'x'
F555
sg19
I01
sS'y'
F-24
s(dp38
S'y'
F-24
sS'x'
F434
sg19
I00
s(dp39
S'y'
F13
sS'x'
F304
sg19
I00
s(dp40
g17
S'curve'
p41
sS'x'
F175
sg19
I00
sS'y'
F79
s(dp42
g17
S'line'
p43
sS'x'
F232
sg19
I00
sS'y'
F211
s(dp44
S'y'
F152
sS'x'
F346
sg19
I00
s(dp45
S'y'
F124
sS'x'
F450
sg19
I00
s(dp46
g17
S'curve'
p47
sS'x'
F542
sg19
I01
sS'y'
F124
s(dp48
S'y'
F124
sS'x'
F773
sg19
I00
s(dp49
S'y'
F308
sS'x'
F920
sg19
I00
s(dp50
g17
S'curve'
p51
sS'x'
F920
sg19
I01
sS'y'
F657
s(dp52
g17
S'line'
p53
sS'x'
F920
sg19
I00
sS'y'
F722
s(dp54
S'y'
F600
sS'x'
F856
sg19
I00
s(dp55
S'y'
F544
sS'x'
F742
sg19
I00
s(dp56
g17
S'curve'
p57
sS'x'
F577
sg19
I01
sS'y'
F544
s(dp58
S'y'
F544
sS'x'
F298
sg19
I00
s(dp59
S'y'
F735
sS'x'
F138
sg19
I00
s(dp60
g17
S'curve'
p61
sS'x'
F138
sg19
I01
sS'y'
F1004
s(dp62
S'y'
F1275
sS'x'
F138
sg19
I00
s(dp63
S'y'
F1483
sS'x'
F311
sg19
I00
s(dp64
g17
S'curve'
p65
sS'x'
F613
sg19
I01
sS'y'
F1483
s(dp66
S'y'
F1483
sS'x'
F939
sg19
I00
s(dp67
S'y'
F1231
sS'x'
F1095
sg19
I00
s(dp68
g17
S'curve'
p69
sS'x'
F1095
sg19
I01
sS'y'
F774
s(dp70
S'y'
F203
sS'x'
F1095
sg19
I00
s(dp71
S'y'
F-24
sS'x'
F855
sg19
I00
stp72
stp73
sS'components'
p74
(tsS'anchors'
p75
(tsss."
LayerCount: 2
Fore
SplineSet
601 728 m 0
 751 728 863 823 863 1016 c 0
 863 1150 772 1266 620 1266 c 0
 465 1266 365 1156 365 996 c 0
 365 844 442 728 601 728 c 0
558 -26 m 0
 449 -26 319 9 181 77 c 1
 273 283 l 1
 354 229 450 196 537 196 c 0
 710 196 868 317 868 629 c 2
 868 655 l 1
 799 550 682 517 576 517 c 0
 292 517 109 710 109 991 c 0
 109 1271 302 1483 609 1483 c 0
 932 1483 1121 1242 1121 771 c 0
 1121 305 918 -26 558 -26 c 0
EndSplineSet
EndChar

StartChar: notequal
Encoding: 8800 8800 345
Width: 1387
VWidth: 0
Flags: HW
PickledData: "(dp1
S'org.robofab.postScriptHintData'
p2
(dp3
sS'com.typemytype.robofont.layerData'
p4
(dp5
S'b'
(dp6
S'name'
p7
S'notequal'
p8
sS'lib'
p9
(dp10
sS'unicodes'
p11
(tsS'width'
p12
F1362.5
sS'contours'
p13
(tsS'components'
p14
(tsS'anchors'
p15
(tsss."
LayerCount: 2
Fore
SplineSet
505 35 m 1
 310 66 l 1
 421 300 l 1
 155 300 l 1
 155 488 l 1
 517 488 l 1
 614 673 l 1
 155 673 l 1
 155 862 l 1
 704 862 l 1
 831 1122 l 1
 1032 1092 l 1
 918 862 l 1
 1224 862 l 1
 1224 673 l 1
 828 673 l 1
 728 488 l 1
 1224 488 l 1
 1224 300 l 1
 636 300 l 1
 505 35 l 1
EndSplineSet
EndChar

StartChar: numbersign
Encoding: 35 35 347
Width: 1465
VWidth: 0
Flags: HW
PickledData: "(dp1
S'org.robofab.postScriptHintData'
p2
(dp3
sS'com.typemytype.robofont.layerData'
p4
(dp5
s."
LayerCount: 2
Fore
SplineSet
600 608 m 1
 830 608 l 1
 882 870 l 1
 652 870 l 1
 600 608 l 1
236 -10 m 1
 325 449 l 1
 89 449 l 1
 98 608 l 1
 357 608 l 1
 409 870 l 1
 142 870 l 1
 151 1028 l 1
 441 1028 l 1
 526 1462 l 1
 769 1462 l 1
 684 1028 l 1
 914 1028 l 1
 1000 1462 l 1
 1243 1462 l 1
 1158 1028 l 1
 1379 1028 l 1
 1372 870 l 1
 1125 870 l 1
 1073 608 l 1
 1325 608 l 1
 1318 449 l 1
 1042 449 l 1
 952 -10 l 1
 709 -10 l 1
 799 449 l 1
 569 449 l 1
 479 -10 l 1
 236 -10 l 1
EndSplineSet
EndChar

StartChar: o
Encoding: 111 111 348
Width: 1286
VWidth: 0
Flags: HW
PickledData: "(dp1
S'org.robofab.postScriptHintData'
p2
(dp3
sS'com.typemytype.robofont.layerData'
p4
(dp5
S'b'
(dp6
S'name'
p7
S'o'
sS'lib'
p8
(dp9
sS'unicodes'
p10
(tsS'width'
p11
F1259.2
sS'contours'
p12
(tsS'components'
p13
(tsS'anchors'
p14
(tsss."
LayerCount: 2
Fore
SplineSet
648 -23 m 0
 280 -23 108 228 108 513 c 0
 108 805 287 1052 647 1052 c 0
 1016 1052 1178 808 1178 511 c 0
 1178 232 1007 -23 648 -23 c 0
643 177 m 0
 844 177 920 339 920 516 c 0
 920 698 837 851 644 851 c 0
 451 851 366 698 366 516 c 0
 366 339 444 177 643 177 c 0
EndSplineSet
EndChar

StartChar: oe
Encoding: 339 339 355
Width: 2003
VWidth: 0
Flags: HW
PickledData: "(dp1
S'org.robofab.postScriptHintData'
p2
(dp3
sS'com.typemytype.robofont.layerData'
p4
(dp5
S'b'
(dp6
S'name'
p7
S'oe'
p8
sS'lib'
p9
(dp10
sS'unicodes'
p11
(tsS'width'
p12
F1979.8
sS'contours'
p13
(tsS'components'
p14
((dp15
S'transformation'
p16
(I1
I0
I0
I1
I-6
I0
tp17
sS'baseGlyph'
p18
S'o'
s(dp19
g16
(I1
I0
I0
I1
I811
I0
tp20
sg18
S'e'
stp21
sS'anchors'
p22
(tsss."
LayerCount: 2
Fore
SplineSet
1618 641 m 1
 1618 662 l 2
 1618 791 1504 857 1389 857 c 0
 1265 857 1165 791 1148 641 c 1
 1618 641 l 1
642 177 m 0
 816 177 892 333 892 511 c 0
 892 703 819 851 635 851 c 0
 457 851 360 703 360 511 c 0
 360 328 446 177 642 177 c 0
640 -22 m 0
 305 -22 101 201 101 511 c 0
 101 817 290 1052 632 1052 c 0
 820 1052 948 973 1020 873 c 1
 1100 988 1204 1055 1394 1055 c 0
 1688 1055 1858 834 1858 499 c 2
 1858 433 l 1
 1146 433 l 1
 1148 410 l 2
 1161 249 1273 177 1458 177 c 0
 1630 177 1775 288 1775 288 c 1
 1843 107 l 1
 1843 107 1683 -22 1429 -22 c 0
 1270 -22 1098 51 1022 159 c 1
 956 54 794 -22 640 -22 c 0
EndSplineSet
EndChar

StartChar: ogonek
Encoding: 731 731 356
Width: 508
VWidth: 0
Flags: HW
PickledData: "(dp1
S'org.robofab.postScriptHintData'
p2
(dp3
s."
LayerCount: 2
Fore
SplineSet
234 -356 m 0
 108 -356 22 -317 22 -227 c 0
 22 -80 192 -16 266 21 c 1
 401 23 l 1
 305 -31 252 -108 252 -157 c 0
 252 -197 286 -204 315 -204 c 0
 380 -204 465 -174 488 -167 c 1
 488 -315 l 1
 399 -342 310 -356 234 -356 c 0
EndSplineSet
EndChar

StartChar: one
Encoding: 49 49 361
Width: 1272
VWidth: 0
Flags: HW
PickledData: "(dp1
S'org.robofab.postScriptHintData'
p2
(dp3
sS'com.typemytype.robofont.layerData'
p4
(dp5
S'b'
(dp6
S'name'
p7
S'one'
p8
sS'lib'
p9
(dp10
sS'unicodes'
p11
(tsS'width'
p12
F1234.0999999999999
sS'contours'
p13
(tsS'components'
p14
(tsS'anchors'
p15
(tsss."
LayerCount: 2
Fore
SplineSet
293 0 m 1
 293 202 l 1
 550 202 l 1
 550 1198 l 1
 482 1166 373 1120 259 1084 c 1
 259 1314 l 1
 366 1348 490 1407 579 1456 c 1
 804 1456 l 1
 804 198 l 1
 1066 198 l 1
 1066 0 l 1
 293 0 l 1
EndSplineSet
EndChar

StartChar: onehalf
Encoding: 189 189 362
Width: 2554
VWidth: 0
Flags: HW
PickledData: "(dp1
S'org.robofab.postScriptHintData'
p2
(dp3
sS'com.typemytype.robofont.layerData'
p4
(dp5
s."
LayerCount: 2
Fore
SplineSet
194 619 m 1
 194 786 l 1
 405 786 l 1
 405 1257 l 1
 181 1204 l 1
 181 1379 l 1
 181 1379 455 1461 447 1456 c 1
 603 1456 l 1
 603 784 l 1
 787 784 l 1
 787 619 l 1
 194 619 l 1
638 0 m 1
 1523 1456 l 1
 1736 1456 l 1
 852 0 l 1
 638 0 l 1
2005 562 m 0
 2005 642.639512991 1966.71068956 675 1898 675 c 0
 1830 675 1734 648 1653 608 c 1
 1591 768 l 1
 1694 822 1812 851 1913 851 c 0
 2072 851 2198 775 2207 591 c 0
 2207 587 2207 584 2207 580 c 0
 2207 458 2110 356 1994 265 c 2
 1901 193 l 1
 2195 193 l 1
 2195 0 l 1
 1605 0 l 1
 1605 169 l 1
 1879 389 l 2
 1980 471 2005 514 2005 562 c 0
EndSplineSet
EndChar

StartChar: onequarter
Encoding: 188 188 363
Width: 2113
VWidth: 0
Flags: HW
PickledData: "(dp1
S'org.robofab.postScriptHintData'
p2
(dp3
sS'com.typemytype.robofont.layerData'
p4
(dp5
s."
LayerCount: 2
Fore
SplineSet
1551 329 m 1
 1729 329 l 1
 1729 583 l 1
 1551 329 l 1
629 0 m 1
 1514 1456 l 1
 1727 1456 l 1
 843 0 l 1
 629 0 l 1
1731 1 m 1
 1731 195 l 1
 1362 195 l 1
 1362 308 l 1
 1731 814 l 1
 1911 814 l 1
 1911 329 l 1
 2027 329 l 1
 2027 195 l 1
 1911 195 l 1
 1911 1 l 1
 1731 1 l 1
225 619 m 1
 225 786 l 1
 436 786 l 1
 436 1257 l 1
 212 1204 l 1
 212 1379 l 1
 212 1379 486 1461 478 1456 c 1
 634 1456 l 1
 634 784 l 1
 818 784 l 1
 818 619 l 1
 225 619 l 1
EndSplineSet
EndChar

StartChar: onesuperior
Encoding: 185 185 364
Width: 851
VWidth: 0
Flags: HW
PickledData: "(dp1
S'org.robofab.postScriptHintData'
p2
(dp3
sS'com.typemytype.robofont.layerData'
p4
(dp5
s."
LayerCount: 2
Fore
SplineSet
147 625 m 1
 147 790 l 1
 366 790 l 1
 366 1270 l 1
 376.586416105 1275.77440878 152.840037939 1221.20972251 136 1218 c 1
 136 1389 l 1
 136 1389 422 1475 410 1468 c 1
 570 1464 l 1
 570 788 l 1
 759 788 l 1
 759 625 l 1
 147 625 l 1
EndSplineSet
EndChar

StartChar: ordfeminine
Encoding: 170 170 366
Width: 868
VWidth: 0
Flags: HW
PickledData: "(dp1
S'org.robofab.postScriptHintData'
p2
(dp3
sS'com.typemytype.robofont.layerData'
p4
(dp5
S'b'
(dp6
S'name'
p7
S'ordfeminine'
p8
sS'lib'
p9
(dp10
sS'unicodes'
p11
(tsS'width'
p12
F797.10000000000002
sS'contours'
p13
(tsS'components'
p14
(tsS'anchors'
p15
(tsss."
LayerCount: 2
Fore
SplineSet
361 850 m 0
 434 850 548 897 548 1029 c 2
 548 1043 l 1
 336 1043 275 1037 275 936 c 0
 275 882 320 850 361 850 c 0
348 721 m 0
 225 721 107 792 107 936 c 0
 107 1073 194 1152 373 1152 c 2
 551 1152 l 1
 551 1192 l 2
 551 1284 493 1315 421 1315 c 0
 318 1315 196 1262 196 1262 c 1
 138 1407 l 1
 138 1407 259 1476 444 1476 c 0
 606 1476 748 1406 748 1184 c 0
 748 988 750 993 751 908 c 0
 754 794 758 774 761 754 c 1
 580 754 l 1
 563 852 l 1
 547 798 477 721 348 721 c 0
EndSplineSet
EndChar

StartChar: ordmasculine
Encoding: 186 186 367
Width: 913
VWidth: 0
Flags: HW
PickledData: "(dp1
S'org.robofab.postScriptHintData'
p2
(dp3
sS'com.typemytype.robofont.layerData'
p4
(dp5
S'b'
(dp6
S'name'
p7
S'ordmasculine'
p8
sS'lib'
p9
(dp10
sS'unicodes'
p11
(tsS'width'
p12
F887.85000000000002
sS'contours'
p13
(tsS'components'
p14
(tsS'anchors'
p15
(tsss."
LayerCount: 2
Fore
SplineSet
460 713 m 0
 205 713 73 871 73 1080 c 0
 73 1283 214 1443 457 1443 c 0
 702 1443 840 1279 840 1076 c 0
 840 878 704 713 460 713 c 0
457 873 m 0
 571 873 647 954 647 1076 c 0
 647 1206 571 1283 458 1283 c 0
 347 1283 266 1203 266 1078 c 0
 266 951 338 873 457 873 c 0
EndSplineSet
EndChar

StartChar: oslash
Encoding: 248 248 368
Width: 1271
VWidth: 0
Flags: HW
PickledData: "(dp1
S'org.robofab.postScriptHintData'
p2
(dp3
sS'com.typemytype.robofont.layerData'
p4
(dp5
S'b'
(dp6
S'name'
p7
S'oslash'
p8
sS'lib'
p9
(dp10
sS'unicodes'
p11
(tsS'width'
p12
F1255
sS'contours'
p13
(tsS'components'
p14
(tsS'anchors'
p15
(tsss."
LayerCount: 2
Fore
SplineSet
734 838 m 1
 458 247 l 1
 394 311 366 411 366 516 c 0
 366 698 451 851 644 851 c 0
 677 851 707 846 734 838 c 1
828 782 m 1
 891 720 920 623 920 516 c 0
 920 339 844 177 643 177 c 0
 609 177 579 181 552 190 c 1
 828 782 l 1
648 -23 m 0
 1007 -23 1178 232 1178 511 c 0
 1178 718 1099 900 926 991 c 1
 1007 1165 l 1
 908 1211 l 1
 824 1030 l 1
 771 1044 712 1052 647 1052 c 0
 287 1052 108 805 108 513 c 0
 108 316 190 136 362 43 c 1
 273 -148 l 1
 372 -195 l 1
 464 1 l 1
 519 -15 580 -23 648 -23 c 0
EndSplineSet
EndChar

StartChar: p
Encoding: 112 112 371
Width: 1273
VWidth: 0
Flags: HW
PickledData: "(dp1
S'org.robofab.postScriptHintData'
p2
(dp3
sS'com.typemytype.robofont.layerData'
p4
(dp5
S'b'
(dp6
S'name'
p7
S'p'
sS'lib'
p8
(dp9
sS'unicodes'
p10
(tsS'width'
p11
F1260.25
sS'contours'
p12
(tsS'components'
p13
(tsS'anchors'
p14
(tsss."
LayerCount: 2
Fore
SplineSet
650 177 m 0
 840 177 910 338 910 514 c 0
 910 697 833 851 649 851 c 0
 468 851 390 699 390 519 c 0
 390 340 461 177 650 177 c 0
160 -395 m 1
 160 681 l 2
 160 789 149 918 141 1026 c 1
 404 1026 l 1
 404 879 l 1
 417 940 532 1052 721 1052 c 0
 1000 1052 1168 802 1168 525 c 0
 1168 248 1002 -23 707 -23 c 0
 526 -23 416 89 404 141 c 1
 404 -395 l 1
 160 -395 l 1
EndSplineSet
EndChar

StartChar: paragraph
Encoding: 182 182 372
Width: 1226
VWidth: 0
Flags: HW
PickledData: "(dp1
S'org.robofab.postScriptHintData'
p2
(dp3
sS'com.typemytype.robofont.layerData'
p4
(dp5
S'b'
(dp6
S'name'
p7
S'paragraph'
p8
sS'lib'
p9
(dp10
sS'unicodes'
p11
(tsS'width'
p12
F1211.95
sS'contours'
p13
(tsS'components'
p14
(tsS'anchors'
p15
(tsss."
LayerCount: 2
Fore
SplineSet
412 -178 m 1
 412 789 l 1
 196 808 91 929 91 1129 c 0
 91 1391 292 1455 570 1455 c 2
 1064 1455 l 1
 1064 1263 l 1
 991 1263 l 1
 991 -178 l 1
 785 -178 l 1
 785 1263 l 1
 617 1263 l 1
 617 -178 l 1
 412 -178 l 1
EndSplineSet
EndChar

StartChar: parenleft
Encoding: 40 40 373
Width: 689
VWidth: 0
Flags: HW
PickledData: "(dp1
S'org.robofab.postScriptHintData'
p2
(dp3
sS'com.typemytype.robofont.layerData'
p4
(dp5
S'b'
(dp6
S'name'
p7
S'parenleft'
p8
sS'lib'
p9
(dp10
sS'unicodes'
p11
(tsS'width'
p12
F639.35000000000002
sS'contours'
p13
(tsS'components'
p14
(tsS'anchors'
p15
(tsss."
LayerCount: 2
Fore
SplineSet
406 -171 m 1
 245 74 118 378 118 665 c 0
 118 968 231 1253 397 1516 c 1
 639 1516 l 1
 466 1245 366 940 366 663 c 0
 366 405 480 89 639 -171 c 1
 406 -171 l 1
EndSplineSet
EndChar

StartChar: parenright
Encoding: 41 41 374
Width: 689
VWidth: 0
Flags: HW
PickledData: "(dp1
S'org.robofab.postScriptHintData'
p2
(dp3
sS'com.typemytype.robofont.layerData'
p4
(dp5
S'b'
(dp6
S'name'
p7
S'parenright'
p8
sS'lib'
p9
(dp10
sS'unicodes'
p11
(tsS'width'
p12
F639.35000000000002
sS'contours'
p13
(tsS'components'
p14
(tsS'anchors'
p15
(tsss."
LayerCount: 2
Fore
SplineSet
51 -191 m 1
 224 80 324 385 324 663 c 0
 324 921 210 1237 51 1496 c 1
 285 1496 l 1
 445 1252 572 947 572 660 c 0
 572 357 459 72 293 -191 c 1
 51 -191 l 1
EndSplineSet
EndChar

StartChar: partialdiff
Encoding: 8706 8706 375
Width: 1162
VWidth: 0
Flags: HW
PickledData: "(dp1
S'org.robofab.postScriptHintData'
p2
(dp3
sS'com.typemytype.robofont.layerData'
p4
(dp5
S'b'
(dp6
S'name'
p7
S'partialdiff'
p8
sS'lib'
p9
(dp10
sS'unicodes'
p11
(tsS'width'
p12
F1163.95
sS'contours'
p13
(tsS'components'
p14
(tsS'anchors'
p15
(tsss."
LayerCount: 2
Fore
SplineSet
478 179 m 0
 623 179 739 279 792 644 c 1
 755 725 675 806 585 806 c 0
 423 806 300 629 300 424 c 0
 300 276 367 179 478 179 c 0
478 -24 m 0
 194 -24 47 172 47 428 c 0
 47 749 285 1002 572 1002 c 0
 690 1002 784 947 807 886 c 1
 807 900 807 958 806 972 c 0
 795 1171 692 1297 545 1297 c 0
 401 1297 291 1235 243 1211 c 1
 229 1390 l 1
 317 1455 442 1495 560 1495 c 0
 872 1495 1062 1289 1062 824 c 0
 1062 405 876 -24 478 -24 c 0
EndSplineSet
EndChar

StartChar: percent
Encoding: 37 37 377
Width: 1899
VWidth: 0
Flags: HW
PickledData: "(dp1
S'org.robofab.postScriptHintData'
p2
(dp3
sS'com.typemytype.robofont.layerData'
p4
(dp5
S'b'
(dp6
S'name'
p7
S'percent'
p8
sS'lib'
p9
(dp10
sS'unicodes'
p11
(tsS'width'
p12
F1769.3
sS'contours'
p13
(tsS'components'
p14
(tsS'anchors'
p15
(tsss."
LayerCount: 2
Fore
SplineSet
1434 -20 m 0
 1209 -20 1066 142 1066 359 c 0
 1066 569 1207 740 1433 740 c 0
 1658 740 1802 568 1802 359 c 0
 1802 141 1659 -20 1434 -20 c 0
1433 136 m 0
 1536 136 1591 199 1591 359 c 0
 1591 506 1544 583 1433 583 c 0
 1323 583 1276 508 1276 360 c 0
 1276 201 1330 136 1433 136 c 0
386 0 m 1
 1317 1456 l 1
 1520 1456 l 1
 589 0 l 1
 386 0 l 1
465 715 m 0
 241 715 97 854 97 1094 c 0
 97 1328 239 1474 465 1474 c 0
 690 1474 833 1326 833 1094 c 0
 833 853 690 715 465 715 c 0
465 871 m 0
 568 871 622 934 622 1093 c 0
 622 1241 576 1318 465 1318 c 0
 354 1318 308 1242 308 1094 c 0
 308 935 362 871 465 871 c 0
EndSplineSet
EndChar

StartChar: period
Encoding: 46 46 378
Width: 539
VWidth: 0
Flags: HW
PickledData: "(dp1
S'org.robofab.postScriptHintData'
p2
(dp3
sS'com.typemytype.robofont.layerData'
p4
(dp5
s."
LayerCount: 2
Fore
SplineSet
111 0 m 1
 111 271 l 1
 401 271 l 1
 401 0 l 1
 111 0 l 1
EndSplineSet
EndChar

StartChar: periodcentered
Encoding: 183 183 379
Width: 596
VWidth: 0
Flags: HW
PickledData: "(dp1
S'org.robofab.postScriptHintData'
p2
(dp3
sS'com.typemytype.robofont.layerData'
p4
(dp5
S'b'
(dp6
S'name'
p7
S'middot'
p8
sS'lib'
p9
(dp10
sS'unicodes'
p11
(tsS'width'
p12
I509
sS'contours'
p13
(tsS'components'
p14
(tsS'anchors'
p15
(tsss."
LayerCount: 2
Fore
SplineSet
187 561 m 1
 187 843 l 1
 491 843 l 1
 491 561 l 1
 187 561 l 1
EndSplineSet
EndChar

StartChar: perthousand
Encoding: 8240 8240 380
Width: 2755
VWidth: 0
Flags: HW
PickledData: "(dp1
S'org.robofab.postScriptHintData'
p2
(dp3
sS'com.typemytype.robofont.layerData'
p4
(dp5
S'b'
(dp6
S'name'
p7
S'perthousand'
p8
sS'lib'
p9
(dp10
sS'unicodes'
p11
(tsS'width'
p12
F2581.1999999999998
sS'contours'
p13
(tsS'components'
p14
(tsS'anchors'
p15
(tsss."
LayerCount: 2
Fore
SplineSet
2290 -20 m 0
 2066 -20 1922 142 1922 359 c 0
 1922 569 2063 740 2289 740 c 0
 2514 740 2657 568 2657 359 c 0
 2657 141 2515 -20 2290 -20 c 0
2290 136 m 0
 2393 136 2447 199 2447 359 c 0
 2447 506 2400 583 2289 583 c 0
 2178 583 2132 508 2132 360 c 0
 2132 201 2187 136 2290 136 c 0
EndSplineSet
Refer: 377 37 N 1 0 0 1 0 0 2
EndChar

StartChar: pi
Encoding: 960 960 381
Width: 1288
VWidth: 0
Flags: HW
PickledData: "(dp1
S'org.robofab.postScriptHintData'
p2
(dp3
sS'com.typemytype.robofont.layerData'
p4
(dp5
S'b'
(dp6
S'name'
p7
S'pi'
p8
sS'lib'
p9
(dp10
sS'unicodes'
p11
(tsS'width'
p12
F1288
sS'contours'
p13
(tsS'components'
p14
(tsS'anchors'
p15
(tsss."
LayerCount: 2
Fore
SplineSet
160 0 m 1
 259 183 277 563 284 846 c 1
 163 843 84 812 57 785 c 1
 40 963 l 1
 72 992 167 1026 299 1026 c 2
 1214 1026 l 1
 1214 846 l 1
 1009 846 l 1
 1009 325 l 2
 1009 265 1010 178 1108 178 c 0
 1129 178 1165 182 1202 191 c 1
 1202 -6 l 1
 1155 -15 1088 -20 1049 -20 c 0
 892 -20 779 61 779 268 c 2
 779 846 l 1
 508 846 l 1
 508 846 499 178 408 0 c 1
 160 0 l 1
EndSplineSet
EndChar

StartChar: plus
Encoding: 43 43 382
Width: 1268
VWidth: 0
Flags: HW
PickledData: "(dp1
S'org.robofab.postScriptHintData'
p2
(dp3
sS'com.typemytype.robofont.layerData'
p4
(dp5
S'b'
(dp6
S'name'
p7
S'plus'
p8
sS'lib'
p9
(dp10
sS'unicodes'
p11
(tsS'width'
p12
F1206.9000000000001
sS'contours'
p13
(tsS'components'
p14
(tsS'anchors'
p15
(tsss."
LayerCount: 2
Fore
SplineSet
516 77 m 1
 516 470 l 1
 137 470 l 1
 137 676 l 1
 519 676 l 1
 519 1071 l 1
 750 1071 l 1
 750 676 l 1
 1130 676 l 1
 1130 470 l 1
 749 470 l 1
 749 77 l 1
 516 77 l 1
EndSplineSet
EndChar

StartChar: plusminus
Encoding: 177 177 383
Width: 1272
VWidth: 0
Flags: HW
PickledData: "(dp1
S'org.robofab.postScriptHintData'
p2
(dp3
sS'com.typemytype.robofont.layerData'
p4
(dp5
S'b'
(dp6
S'name'
p7
S'plusminus'
p8
sS'lib'
p9
(dp10
sS'unicodes'
p11
(tsS'width'
p12
F1234.75
sS'contours'
p13
(tsS'components'
p14
(tsS'anchors'
p15
(tsss."
LayerCount: 2
Fore
SplineSet
190 0 m 1
 190 184 l 1
 1080 184 l 1
 1080 0 l 1
 190 0 l 1
515 291 m 1
 515 592 l 1
 190 592 l 1
 190 792 l 1
 509 792 l 1
 509 1099 l 1
 746 1099 l 1
 746 792 l 1
 1078 792 l 1
 1078 592 l 1
 756 592 l 1
 756 291 l 1
 515 291 l 1
EndSplineSet
EndChar

StartChar: product
Encoding: 8719 8719 384
Width: 1568
VWidth: 0
Flags: HW
PickledData: "(dp1
S'org.robofab.postScriptHintData'
p2
(dp3
sS'com.typemytype.robofont.guides'
p4
(tsS'com.typemytype.robofont.layerData'
p5
(dp6
S'b'
(dp7
S'name'
p8
S'product'
p9
sS'lib'
p10
(dp11
sS'unicodes'
p12
(tsS'width'
p13
F1568
sS'contours'
p14
(tsS'components'
p15
(tsS'anchors'
p16
(tsss."
LayerCount: 2
Fore
SplineSet
195 -100 m 1
 195 1255 l 1
 38 1255 l 1
 38 1456 l 1
 1452 1456 l 1
 1455 1255 l 1
 1330 1255 l 1
 1330 -100 l 1
 1045 -100 l 1
 1045 1255 l 1
 472 1255 l 1
 472 -100 l 1
 195 -100 l 1
EndSplineSet
EndChar

StartChar: q
Encoding: 113 113 385
Width: 1250
VWidth: 0
Flags: HW
PickledData: "(dp1
S'org.robofab.postScriptHintData'
p2
(dp3
sS'com.typemytype.robofont.layerData'
p4
(dp5
S'b'
(dp6
S'name'
p7
S'q'
sS'lib'
p8
(dp9
sS'unicodes'
p10
(tsS'width'
p11
F1254.3
sS'contours'
p12
(tsS'components'
p13
(tsS'anchors'
p14
(tsss."
LayerCount: 2
Fore
SplineSet
622 177 m 0
 810 177 882 338 882 511 c 0
 882 697 803 851 620 851 c 0
 439 851 363 698 363 516 c 0
 363 339 433 177 622 177 c 0
868 -395 m 1
 868 82 l 1
 784 15 682 -23 587 -23 c 0
 258 -23 105 250 105 528 c 0
 105 803 274 1052 589 1052 c 0
 679 1052 787 1011 870 916 c 1
 870 1026 l 1
 1123 1026 l 1
 1115 918 1113 830 1113 730 c 2
 1113 -395 l 1
 868 -395 l 1
EndSplineSet
EndChar

StartChar: question
Encoding: 63 63 386
Width: 1018
VWidth: 0
Flags: HW
PickledData: "(dp1
S'org.robofab.postScriptHintData'
p2
(dp3
sS'com.typemytype.robofont.layerData'
p4
(dp5
S'b'
(dp6
S'name'
p7
S'question'
p8
sS'lib'
p9
(dp10
sS'unicodes'
p11
(tsS'width'
p12
F1055.9000000000001
sS'contours'
p13
(tsS'components'
p14
(tsS'anchors'
p15
(tsss."
LayerCount: 2
Fore
SplineSet
259 0 m 1
 259 273 l 1
 572 273 l 1
 572 0 l 1
 259 0 l 1
301 411 m 1
 301 548 l 2
 301 810 651 920 651 1117 c 0
 651 1227 561 1268 448 1268 c 0
 331 1268 196 1224 146 1202 c 1
 146 1413 l 1
 161 1421 279 1485 471 1485 c 0
 702 1485 908 1367 908 1124 c 0
 908 821 500 753 500 476 c 2
 500 411 l 1
 301 411 l 1
EndSplineSet
EndChar

StartChar: quotedbl
Encoding: 34 34 388
Width: 703
VWidth: 0
Flags: HW
PickledData: "(dp1
S'org.robofab.postScriptHintData'
p2
(dp3
sS'com.typemytype.robofont.layerData'
p4
(dp5
S'b'
(dp6
S'name'
p7
S'quotedbl'
p8
sS'lib'
p9
(dp10
sS'unicodes'
p11
(tsS'width'
p12
F785.64999999999998
sS'contours'
p13
(tsS'components'
p14
(tsS'anchors'
p15
(tsss."
LayerCount: 2
Fore
SplineSet
458 957 m 1
 405 1456 l 1
 643 1456 l 1
 592 957 l 1
 458 957 l 1
115 957 m 1
 62 1456 l 1
 301 1456 l 1
 250 957 l 1
 115 957 l 1
EndSplineSet
EndChar

StartChar: quotedblbase
Encoding: 8222 8222 389
Width: 1024
VWidth: 0
Flags: HW
PickledData: "(dp1
S'org.robofab.postScriptHintData'
p2
(dp3
s."
LayerCount: 2
Fore
SplineSet
487 -220 m 1
 599 262 l 1
 872 262 l 1
 703 -220 l 1
 487 -220 l 1
87 -220 m 1
 198 262 l 1
 471 262 l 1
 309 -220 l 1
 87 -220 l 1
EndSplineSet
EndChar

StartChar: quotedblleft
Encoding: 8220 8220 390
Width: 1024
VWidth: 0
Flags: HW
PickledData: "(dp1
S'org.robofab.postScriptHintData'
p2
(dp3
sS'com.typemytype.robofont.layerData'
p4
(dp5
S'b'
(dp6
S'name'
p7
S'quotedblleft'
p8
sS'lib'
p9
(dp10
sS'unicodes'
p11
(tsS'width'
p12
F1024
sS'contours'
p13
(tsS'components'
p14
(tsS'anchors'
p15
(tsss."
LayerCount: 2
Fore
SplineSet
592 865 m 1
 771 1456 l 1
 981 1456 l 1
 868 865 l 1
 592 865 l 1
130 865 m 1
 321 1456 l 1
 530 1456 l 1
 416 865 l 1
 130 865 l 1
EndSplineSet
EndChar

StartChar: quotedblright
Encoding: 8221 8221 391
Width: 1024
VWidth: 0
Flags: HW
PickledData: "(dp1
S'org.robofab.postScriptHintData'
p2
(dp3
sS'com.typemytype.robofont.layerData'
p4
(dp5
S'b'
(dp6
S'name'
p7
S'quotedblright'
p8
sS'lib'
p9
(dp10
sS'unicodes'
p11
(tsS'width'
p12
F1024
sS'contours'
p13
(tsS'components'
p14
(tsS'anchors'
p15
(tsss."
LayerCount: 2
Fore
SplineSet
592 865 m 1
 706 1456 l 1
 978 1456 l 1
 807 865 l 1
 592 865 l 1
176 865 m 1
 286 1456 l 1
 562 1456 l 1
 393 865 l 1
 176 865 l 1
EndSplineSet
EndChar

StartChar: quoteleft
Encoding: 8216 8216 392
Width: 576
VWidth: 0
Flags: HW
PickledData: "(dp1
S'org.robofab.postScriptHintData'
p2
(dp3
sS'com.typemytype.robofont.layerData'
p4
(dp5
S'b'
(dp6
S'name'
p7
S'quoteleft'
p8
sS'lib'
p9
(dp10
sS'unicodes'
p11
(tsS'width'
p12
F518.5
sS'contours'
p13
(tsS'components'
p14
(tsS'anchors'
p15
(tsss."
LayerCount: 2
Fore
SplineSet
308 865 m 1
 142 1456 l 1
 426 1456 l 1
 464 865 l 1
 308 865 l 1
EndSplineSet
EndChar

StartChar: quoteright
Encoding: 8217 8217 393
Width: 632
VWidth: 0
Flags: HW
PickledData: "(dp1
S'org.robofab.postScriptHintData'
p2
(dp3
sS'com.typemytype.robofont.layerData'
p4
(dp5
S'b'
(dp6
S'name'
p7
S'quoteright'
p8
sS'lib'
p9
(dp10
g4
(dp11
S'b'
(dp12
g7
S'quoteleft'
p13
sg9
(dp14
sS'unicodes'
p15
(tsS'width'
p16
I494
sS'contours'
p17
(tsS'components'
p18
(tsS'anchors'
p19
(tssssg15
(tsg16
F537.25
sg17
((dp20
S'points'
p21
((dp22
S'segmentType'
p23
S'line'
p24
sS'x'
F416
sS'smooth'
p25
I00
sS'y'
F888
s(dp26
g23
S'line'
p27
sS'x'
F300
sg25
I00
sS'y'
F888
s(dp28
g23
S'line'
p29
sS'x'
F150
sg25
I00
sS'y'
F1456
s(dp30
g23
S'line'
p31
sS'x'
F360
sg25
I00
sS'y'
F1456
stp32
stp33
sg18
(tsg19
(tsss."
LayerCount: 2
Fore
SplineSet
112 866 m 1
 210 1456 l 1
 490 1456 l 1
 294 866 l 1
 112 866 l 1
EndSplineSet
EndChar

StartChar: quotesinglbase
Encoding: 8218 8218 394
Width: 696
VWidth: 0
Flags: HW
PickledData: "(dp1
S'org.robofab.postScriptHintData'
p2
(dp3
sS'com.typemytype.robofont.layerData'
p4
(dp5
S'b'
(dp6
S'name'
p7
S'quotesinglbase'
p8
sS'lib'
p9
(dp10
sS'unicodes'
p11
(tsS'width'
p12
F595.70000000000005
sS'contours'
p13
(tsS'components'
p14
(tsS'anchors'
p15
(tsss."
LayerCount: 2
Fore
SplineSet
159 -325 m 1
 274 262 l 1
 549 262 l 1
 379 -325 l 1
 159 -325 l 1
EndSplineSet
EndChar

StartChar: quotesingle
Encoding: 39 39 395
Width: 484
VWidth: 0
Flags: HW
PickledData: "(dp1
S'org.robofab.postScriptHintData'
p2
(dp3
sS'com.typemytype.robofont.layerData'
p4
(dp5
S'b'
(dp6
S'name'
p7
S'quotesingle'
p8
sS'lib'
p9
(dp10
sS'unicodes'
p11
(tsS'width'
p12
F507.85000000000002
sS'contours'
p13
(tsS'components'
p14
(tsS'anchors'
p15
(tsss."
LayerCount: 2
Fore
SplineSet
170 910 m 1
 131 1456 l 1
 389 1456 l 1
 352 910 l 1
 170 910 l 1
EndSplineSet
EndChar

StartChar: r
Encoding: 114 114 396
Width: 780
VWidth: 0
Flags: HW
PickledData: "(dp1
S'org.robofab.postScriptHintData'
p2
(dp3
sS'com.typemytype.robofont.layerData'
p4
(dp5
S'b'
(dp6
S'name'
p7
S'r'
sS'lib'
p8
(dp9
sS'unicodes'
p10
(tsS'width'
p11
F818.89999999999998
sS'contours'
p12
(tsS'components'
p13
(tsS'anchors'
p14
(tsss."
LayerCount: 2
Fore
SplineSet
162 0 m 1
 162 766 l 2
 162 900 142 1026 142 1026 c 1
 406 1026 l 1
 406 891 l 1
 481 989 556 1052 664 1052 c 0
 693 1052 728 1047 766 1037 c 1
 766 820 l 1
 720 835 678 842 642 842 c 0
 512 842 409 758 409 581 c 2
 409 0 l 1
 162 0 l 1
EndSplineSet
EndChar

StartChar: radical
Encoding: 8730 8730 398
Width: 1314
VWidth: 0
Flags: HW
PickledData: "(dp1
S'org.robofab.postScriptHintData'
p2
(dp3
sS'com.typemytype.robofont.layerData'
p4
(dp5
s."
LayerCount: 2
Fore
SplineSet
515 -142 m 1
 210 635 l 1
 207 634 50 605 50 605 c 1
 5 785 l 1
 375 843 l 1
 594 263 l 1
 944 1554 l 1
 1172 1554 l 1
 720 -142 l 1
 515 -142 l 1
EndSplineSet
EndChar

StartChar: registered
Encoding: 174 174 402
Width: 1713
VWidth: 0
Flags: HW
PickledData: "(dp1
S'org.robofab.postScriptHintData'
p2
(dp3
sS'com.typemytype.robofont.layerData'
p4
(dp5
S'b'
(dp6
S'name'
p7
S'registered'
p8
sS'lib'
p9
(dp10
sS'unicodes'
p11
(tsS'width'
p12
F1727.05
sS'contours'
p13
(tsS'components'
p14
(tsS'anchors'
p15
(tsss."
LayerCount: 2
Fore
SplineSet
857 -22 m 0
 443 -22 106 318 106 732 c 0
 106 1145 443 1483 857 1483 c 0
 1270 1483 1607 1145 1607 732 c 0
 1607 318 1270 -22 857 -22 c 0
855 93 m 0
 1199 93 1473 383 1473 729 c 0
 1473 1074 1199 1361 855 1361 c 0
 510 1361 237 1074 237 729 c 0
 237 383 510 93 855 93 c 0
735 788 m 1
 825 788 l 2
 945 788 1019 807 1019 895 c 0
 1019 993 988 1003 843 1003 c 2
 735 1003 l 1
 735 788 l 1
519 290 m 1
 519 1171 l 1
 837 1171 l 2
 1115 1171 1233 1078 1233 907 c 0
 1233 810 1196 703 1056 665 c 1
 1244 290 l 1
 1009 290 l 1
 857 630 l 1
 734 630 l 1
 734 290 l 1
 519 290 l 1
EndSplineSet
EndChar

StartChar: ring
Encoding: 730 730 403
Width: 700
VWidth: 0
Flags: HW
PickledData: "(dp1
S'org.robofab.postScriptHintData'
p2
(dp3
sS'com.typemytype.robofont.layerData'
p4
(dp5
S'b'
(dp6
S'name'
p7
S'ring'
p8
sS'lib'
p9
(dp10
sS'unicodes'
p11
(tsS'width'
p12
F633.35000000000002
sS'contours'
p13
(tsS'components'
p14
(tsS'anchors'
p15
(tsss."
LayerCount: 2
Fore
SplineSet
338 1153 m 0
 216 1153 118 1243 118 1366 c 0
 118 1490 216 1579 338 1579 c 0
 459 1579 559 1490 559 1366 c 0
 559 1243 459 1153 338 1153 c 0
339 1257 m 0
 398 1257 446 1306 446 1366 c 0
 446 1426 398 1474 339 1474 c 0
 281 1474 233 1426 233 1366 c 0
 233 1306 281 1257 339 1257 c 0
EndSplineSet
EndChar

StartChar: s
Encoding: 115 115 405
Width: 988
VWidth: 0
Flags: HW
PickledData: "(dp1
S'org.robofab.postScriptHintData'
p2
(dp3
sS'com.typemytype.robofont.layerData'
p4
(dp5
S'b'
(dp6
S'name'
p7
S's'
sS'lib'
p8
(dp9
sS'unicodes'
p10
(tsS'width'
p11
F981.89999999999998
sS'contours'
p12
((dp13
S'points'
p14
((dp15
S'segmentType'
p16
S'curve'
p17
sS'x'
F498
sS'smooth'
p18
I01
sS'y'
F-23
s(dp19
S'y'
F-23
sS'x'
F282
sg18
I00
s(dp20
S'y'
F70
sS'x'
F145
sg18
I00
s(dp21
g16
S'curve'
p22
sS'x'
F116
sg18
I00
sS'y'
F94
s(dp23
g16
S'line'
p24
sS'x'
F160
sg18
I00
sS'y'
F222
s(dp25
S'y'
F189
sS'x'
F208
sg18
I00
s(dp26
S'y'
F109
sS'x'
F348
sg18
I00
s(dp27
g16
S'curve'
p28
sS'x'
F484
sg18
I01
sS'y'
F109
s(dp29
S'y'
F109
sS'x'
F589
sg18
I00
s(dp30
S'y'
F141
sS'x'
F711
sg18
I00
s(dp31
g16
S'curve'
p32
sS'x'
F711
sg18
I01
sS'y'
F272
s(dp33
S'y'
F395
sS'x'
F711
sg18
I00
s(dp34
S'y'
F426
sS'x'
F561
sg18
I00
s(dp35
g16
S'curve'
p36
sS'x'
F412
sg18
I00
sS'y'
F474
s(dp37
S'y'
F521
sS'x'
F262
sg18
I00
s(dp38
S'y'
F585
sS'x'
F112
sg18
I00
s(dp39
g16
S'curve'
p40
sS'x'
F112
sg18
I01
sS'y'
F771
s(dp41
S'y'
F970
sS'x'
F112
sg18
I00
s(dp42
S'y'
F1051
sS'x'
F318
sg18
I00
s(dp43
g16
S'curve'
p44
sS'x'
F488
sg18
I01
sS'y'
F1051
s(dp45
S'y'
F1051
sS'x'
F715
sg18
I00
s(dp46
S'y'
F991
sS'x'
F792
sg18
I00
s(dp47
g16
S'curve'
p48
sS'x'
F832
sg18
I00
sS'y'
F966
s(dp49
g16
S'line'
p50
sS'x'
F785
sg18
I00
sS'y'
F851
s(dp51
S'y'
F858
sS'x'
F772
sg18
I00
s(dp52
S'y'
F917
sS'x'
F667
sg18
I00
s(dp53
g16
S'curve'
p54
sS'x'
F504
sg18
I01
sS'y'
F917
s(dp55
S'y'
F917
sS'x'
F355
sg18
I00
s(dp56
S'y'
F882
sS'x'
F283
sg18
I00
s(dp57
g16
S'curve'
p58
sS'x'
F283
sg18
I01
sS'y'
F774
s(dp59
S'y'
F660
sS'x'
F283
sg18
I00
s(dp60
S'y'
F629
sS'x'
F433
sg18
I00
s(dp61
g16
S'curve'
p62
sS'x'
F582
sg18
I01
sS'y'
F581
s(dp63
S'y'
F533
sS'x'
F732
sg18
I00
s(dp64
S'y'
F468
sS'x'
F881
sg18
I00
s(dp65
g16
S'curve'
p66
sS'x'
F881
sg18
I01
sS'y'
F284
s(dp67
S'y'
F62
sS'x'
F881
sg18
I00
s(dp68
S'y'
F-23
sS'x'
F685
sg18
I00
stp69
stp70
sS'components'
p71
(tsS'anchors'
p72
(tsss."
LayerCount: 2
Fore
SplineSet
534 -23 m 0
 340 -23 185 43 106 106 c 1
 168 284 l 1
 251 219 392 172 512 172 c 0
 618 172 680 204 680 291 c 0
 680 297 680 303 680 309 c 0
 680 345 671 372 540 415 c 2
 394 462 l 2
 228 516 117 570 117 753 c 0
 117 969 295 1050 497 1050 c 0
 623 1050 763 1018 865 951 c 1
 801 781 l 1
 724 822 605 857 515 857 c 0
 403 857 354 832 354 767 c 0
 354 707 373 688 538 633 c 2
 671 588 l 1
 819 539 907 473 907 290 c 0
 907 53 706 -23 534 -23 c 0
EndSplineSet
EndChar

StartChar: section
Encoding: 167 167 412
Width: 1104
VWidth: 0
Flags: HW
PickledData: "(dp1
S'org.robofab.postScriptHintData'
p2
(dp3
sS'com.typemytype.robofont.layerData'
p4
(dp5
S'b'
(dp6
S'name'
p7
S'section'
p8
sS'lib'
p9
(dp10
sS'unicodes'
p11
(tsS'width'
p12
F1071.6500000000001
sS'contours'
p13
(tsS'components'
p14
(tsS'anchors'
p15
(tsss."
LayerCount: 2
Fore
SplineSet
643 592 m 1
 661 616 674 640 674 685 c 0
 674 766 608 782 484 839 c 1
 470 829 425 788 425 733 c 0
 425 666 497 657 643 592 c 1
522 -61 m 0
 412 -61 298 -41 187 0 c 1
 187 209 l 1
 273 175 406 144 512 144 c 0
 597 144 667 177 667 256 c 0
 667 303 610 330 379 442 c 0
 253 501 171 595 171 712 c 0
 171 804 220 885 301 943 c 1
 226 1002 194 1073 194 1179 c 0
 194 1386 371 1481 583 1481 c 0
 678 1481 784 1464 882 1431 c 1
 882 1229 l 1
 827 1240 718 1288 616 1288 c 0
 543 1288 467 1259 467 1193 c 0
 467 1133 543 1077 683 1012 c 1
 822 939 949 868 949 722 c 0
 949 630 899 558 820 493 c 1
 897 448 940 366 940 262 c 0
 940 40 748 -61 522 -61 c 0
EndSplineSet
EndChar

StartChar: semicolon
Encoding: 59 59 413
Width: 539
VWidth: 0
Flags: HW
PickledData: "(dp1
S'org.robofab.postScriptHintData'
p2
(dp3
sS'com.typemytype.robofont.layerData'
p4
(dp5
s."
LayerCount: 2
Fore
SplineSet
179 900 m 1
 179 1171 l 1
 431 1171 l 1
 431 900 l 1
 179 900 l 1
66 -229 m 1
 174 268 l 1
 454 268 l 1
 276 -229 l 1
 66 -229 l 1
EndSplineSet
EndChar

StartChar: seven
Encoding: 55 55 414
Width: 1272
VWidth: 0
Flags: HW
PickledData: "(dp1
S'org.robofab.postScriptHintData'
p2
(dp3
sS'com.typemytype.robofont.layerData'
p4
(dp5
s."
LayerCount: 2
Fore
SplineSet
313 0 m 1
 864 1248 l 1
 145 1248 l 1
 145 1456 l 1
 1158 1456 l 1
 1158 1262 l 1
 585 0 l 1
 313 0 l 1
EndSplineSet
EndChar

StartChar: six
Encoding: 54 54 415
Width: 1272
VWidth: 0
Flags: HW
PickledData: "(dp1
S'org.robofab.postScriptHintData'
p2
(dp3
sS'com.typemytype.robofont.layerData'
p4
(dp5
s."
LayerCount: 2
Fore
SplineSet
680 194 m 0
 826 194 922 316 922 473 c 0
 922 630 845 754 695 754 c 0
 532 754 434 633 434 469 c 0
 434 296 565 194 680 194 c 0
687 -23 m 0
 329 -23 152 267 152 698 c 0
 152 1128 356 1483 740 1483 c 0
 889 1483 1015 1441 1110 1353 c 1
 1026 1164 l 1
 938 1233 846 1266 742 1266 c 0
 556 1266 429 1067 419 810 c 1
 501 926 609 962 709 962 c 0
 999 962 1183 773 1183 476 c 0
 1183 191 991 -23 687 -23 c 0
EndSplineSet
EndChar

StartChar: slash
Encoding: 47 47 416
Width: 684
VWidth: 0
Flags: HW
PickledData: "(dp1
S'org.robofab.postScriptHintData'
p2
(dp3
sS'com.typemytype.robofont.layerData'
p4
(dp5
s."
LayerCount: 2
Fore
SplineSet
-81 -237 m 1
 564 1456 l 1
 784 1456 l 1
 134 -237 l 1
 -81 -237 l 1
EndSplineSet
EndChar

StartChar: softhyphen
Encoding: 173 173 418
Width: 739
VWidth: 0
Flags: HW
PickledData: "(dp1
S'org.robofab.postScriptHintData'
p2
(dp3
s."
LayerCount: 2
Fore
SplineSet
54 457 m 1
 54 647 l 1
 686 647 l 1
 686 457 l 1
 54 457 l 1
EndSplineSet
EndChar

StartChar: sterling
Encoding: 163 163 420
Width: 1255
VWidth: 0
Flags: HW
PickledData: "(dp1
S'org.robofab.postScriptHintData'
p2
(dp3
sS'com.typemytype.robofont.layerData'
p4
(dp5
S'b'
(dp6
S'name'
p7
S'sterling'
p8
sS'lib'
p9
(dp10
sS'unicodes'
p11
(tsS'width'
p12
F1207.3
sS'contours'
p13
(tsS'components'
p14
(tsS'anchors'
p15
(tsss."
LayerCount: 2
Fore
SplineSet
1091 1219 m 1
 1005 1258 924 1282 830 1282 c 0
 658 1282 579 1193 579 949 c 2
 579 842 l 1
 917 842 l 1
 917 649 l 1
 578 649 l 1
 578 618 l 2
 578 436 567 292 503 204 c 1
 1178 204 l 1
 1178 0 l 1
 146 0 l 1
 146 186 l 1
 220 258 331 324 331 622 c 2
 331 649 l 1
 146 649 l 1
 146 842 l 1
 328 842 l 1
 328 892 l 2
 328 1215 409 1484 814 1484 c 0
 943 1484 1056 1463 1152 1411 c 1
 1091 1219 l 1
EndSplineSet
EndChar

StartChar: summation
Encoding: 8721 8721 421
Width: 1262
VWidth: 0
Flags: HW
PickledData: "(dp1
S'org.robofab.postScriptHintData'
p2
(dp3
sS'com.typemytype.robofont.layerData'
p4
(dp5
S'b'
(dp6
S'name'
p7
S'summation'
p8
sS'lib'
p9
(dp10
sS'unicodes'
p11
(tsS'width'
p12
F1198.3
sS'contours'
p13
(tsS'components'
p14
(tsS'anchors'
p15
(tsss."
LayerCount: 2
Fore
SplineSet
82 -267 m 1
 82 -134 l 1
 601 604 l 1
 104 1328 l 1
 104 1456 l 1
 1170 1456 l 1
 1170 1252 l 1
 477 1252 l 1
 906 606 l 1
 464 -55 l 1
 1212 -55 l 1
 1212 -267 l 1
 82 -267 l 1
EndSplineSet
EndChar

StartChar: t
Encoding: 116 116 422
Width: 804
VWidth: 0
Flags: HW
PickledData: "(dp1
S'org.robofab.postScriptHintData'
p2
(dp3
sS'com.typemytype.robofont.layerData'
p4
(dp5
S'b'
(dp6
S'name'
p7
S't'
sS'lib'
p8
(dp9
sS'unicodes'
p10
(tsS'width'
p11
F763.89999999999998
sS'contours'
p12
(tsS'components'
p13
(tsS'anchors'
p14
(tsss."
AnchorPoint: "caron.alt" 267 1360 basechar 0
LayerCount: 2
Fore
SplineSet
738 1 m 1
 638 1 l 2
 384 1 215 42 215 376 c 2
 215 860 l 1
 1 860 l 1
 1 1026 l 1
 225 1026 l 1
 225 1266 l 1
 462 1339 l 1
 462 1026 l 1
 730 1026 l 1
 730 860 l 1
 462 860 l 1
 462 361 l 2
 462 206 508 191 738 191 c 1
 738 1 l 1
EndSplineSet
EndChar

StartChar: thorn
Encoding: 254 254 427
Width: 1229
VWidth: 0
Flags: HW
PickledData: "(dp1
S'org.robofab.postScriptHintData'
p2
(dp3
sS'com.typemytype.robofont.layerData'
p4
(dp5
s."
LayerCount: 2
Fore
SplineSet
618 177 m 0
 794 177 868 340 868 521 c 0
 868 691 809 849 627 849 c 0
 438 849 373 680 373 494 c 0
 373 312 456 177 618 177 c 0
140 -395 m 1
 140 1464 l 1
 378 1464 l 1
 375 948 l 1
 434 1012 569 1051 646 1051 c 0
 963 1051 1128 808 1128 525 c 0
 1128 240 968 -23 644 -23 c 0
 544 -23 442 16 372 62 c 1
 371 -395 l 1
 140 -395 l 1
EndSplineSet
EndChar

StartChar: three
Encoding: 51 51 428
Width: 1272
VWidth: 0
Flags: HW
PickledData: "(dp1
S'org.robofab.postScriptHintData'
p2
(dp3
sS'com.typemytype.robofont.layerData'
p4
(dp5
S'b'
(dp6
S'name'
p7
S'three'
p8
sS'lib'
p9
(dp10
sS'unicodes'
p11
(tsS'width'
p12
F1234.0999999999999
sS'contours'
p13
((dp14
S'points'
p15
((dp16
S'segmentType'
p17
S'curve'
p18
sS'x'
F344
sS'smooth'
p19
I01
sS'y'
F1010
s(dp20
S'y'
F827
sS'x'
F344
sg19
I00
s(dp21
S'y'
F687
sS'x'
F423
sg19
I00
s(dp22
g17
S'curve'
p23
sS'x'
F634
sg19
I01
sS'y'
F687
s(dp24
S'y'
F687
sS'x'
F814
sg19
I00
s(dp25
S'y'
F803
sS'x'
F938
sg19
I00
s(dp26
g17
S'curve'
p27
sS'x'
F938
sg19
I01
sS'y'
F991
s(dp28
S'y'
F1166
sS'x'
F938
sg19
I00
s(dp29
S'y'
F1334
sS'x'
F845
sg19
I00
s(dp30
g17
S'curve'
p31
sS'x'
F635
sg19
I01
sS'y'
F1334
s(dp32
S'y'
F1334
sS'x'
F449
sg19
I00
s(dp33
S'y'
F1196
sS'x'
F344
sg19
I00
stp34
s(dp35
g15
((dp36
g17
S'curve'
p37
sS'x'
F594
sg19
I01
sS'y'
F-24
s(dp38
S'y'
F-24
sS'x'
F473
sg19
I00
s(dp39
S'y'
F-1
sS'x'
F367
sg19
I00
s(dp40
g17
S'curve'
p41
sS'x'
F238
sg19
I00
sS'y'
F65
s(dp42
g17
S'line'
p43
sS'x'
F287
sg19
I00
sS'y'
F197
s(dp44
S'y'
F138
sS'x'
F401
sg19
I00
s(dp45
S'y'
F124
sS'x'
F489
sg19
I00
s(dp46
g17
S'curve'
p47
sS'x'
F581
sg19
I01
sS'y'
F124
s(dp48
S'y'
F124
sS'x'
F812
sg19
I00
s(dp49
S'y'
F308
sS'x'
F950
sg19
I00
s(dp50
g17
S'curve'
p51
sS'x'
F950
sg19
I01
sS'y'
F657
s(dp52
g17
S'line'
p53
sS'x'
F950
sg19
I00
sS'y'
F722
s(dp54
S'y'
F600
sS'x'
F886
sg19
I00
s(dp55
S'y'
F544
sS'x'
F772
sg19
I00
s(dp56
g17
S'curve'
p57
sS'x'
F607
sg19
I01
sS'y'
F544
s(dp58
S'y'
F544
sS'x'
F328
sg19
I00
s(dp59
S'y'
F735
sS'x'
F168
sg19
I00
s(dp60
g17
S'curve'
p61
sS'x'
F168
sg19
I01
sS'y'
F1004
s(dp62
S'y'
F1275
sS'x'
F168
sg19
I00
s(dp63
S'y'
F1483
sS'x'
F341
sg19
I00
s(dp64
g17
S'curve'
p65
sS'x'
F643
sg19
I01
sS'y'
F1483
s(dp66
S'y'
F1483
sS'x'
F969
sg19
I00
s(dp67
S'y'
F1231
sS'x'
F1125
sg19
I00
s(dp68
g17
S'curve'
p69
sS'x'
F1125
sg19
I01
sS'y'
F774
s(dp70
S'y'
F203
sS'x'
F1125
sg19
I00
s(dp71
S'y'
F-24
sS'x'
F894
sg19
I00
stp72
stp73
sS'components'
p74
(tsS'anchors'
p75
(tsss."
LayerCount: 2
Fore
SplineSet
622 -23 m 0
 326 -23 167 100 167 100 c 1
 244 291 l 1
 253 285 408 194 579 194 c 0
 761 194 858 283 858 424 c 0
 858 581 712 651 490 651 c 0
 479 651 469 651 458 651 c 2
 394 649 l 1
 392 864 l 1
 464 864 l 2
 719 864 817 920 817 1097 c 0
 817 1211 688 1266 569 1266 c 0
 402 1266 310 1187 262 1160 c 1
 149 1343 l 1
 290 1437 380 1483 603 1483 c 0
 842 1483 1072 1360 1072 1103 c 0
 1072 957 993 794 800 765 c 1
 996 729 1106 583 1106 413 c 0
 1106 138 880 -23 622 -23 c 0
243.25 291 m 1
 244 291 l 1
 243.25 291 l 1
EndSplineSet
EndChar

StartChar: threequarters
Encoding: 190 190 429
Width: 2534
VWidth: 0
Flags: HW
PickledData: "(dp1
S'org.robofab.postScriptHintData'
p2
(dp3
sS'com.typemytype.robofont.layerData'
p4
(dp5
s."
LayerCount: 2
Fore
SplineSet
1582 329 m 1
 1760 329 l 1
 1760 583 l 1
 1582 329 l 1
650 0 m 1
 1535 1456 l 1
 1748 1456 l 1
 864 0 l 1
 650 0 l 1
1762 1 m 1
 1762 195 l 1
 1393 195 l 1
 1393 308 l 1
 1761 814 l 1
 1942 814 l 1
 1942 329 l 1
 2057 329 l 1
 2057 195 l 1
 1942 195 l 1
 1942 1 l 1
 1762 1 l 1
536 603 m 0
 435 603 324 636 239 697 c 1
 300 832 l 1
 389 778 464 756 521 756 c 0
 606 756 654 803 654 875 c 0
 654 937 595 984 496 984 c 2
 404 984 l 1
 404 1127 l 1
 494 1127 l 2
 572 1127 632 1165 632 1220 c 0
 632 1288 583 1316 510 1316 c 0
 450 1316 369 1295 289 1250 c 1
 228 1376 l 1
 328 1432 443 1462 543 1462 c 0
 693 1462 813 1396 813 1246 c 0
 813 1186 793 1107 674 1070 c 1
 805 1038 844 949 844 872 c 0
 844 684 697 603 536 603 c 0
EndSplineSet
EndChar

StartChar: threesuperior
Encoding: 179 179 430
Width: 909
VWidth: 0
Flags: HW
PickledData: "(dp1
S'org.robofab.postScriptHintData'
p2
(dp3
sS'com.typemytype.robofont.layerData'
p4
(dp5
s."
LayerCount: 2
Fore
SplineSet
502 604 m 0
 400 604 290 637 203 697 c 1
 265 831 l 1
 356 778 429 756 486 756 c 0
 570 756 618 807 618 878 c 0
 618 937 562 984 465 984 c 2
 370 984 l 1
 370 1126 l 1
 463 1126 l 2
 539 1126 597 1169 597 1221 c 0
 597 1287 545 1320 473 1320 c 0
 414 1320 335 1299 253 1255 c 1
 192 1378 l 1
 294 1434 408 1463 510 1463 c 0
 660 1463 782 1399 782 1249 c 0
 782 1190 758 1113 645 1073 c 1
 774 1038 813 951 813 875 c 0
 813 684 663 604 502 604 c 0
EndSplineSet
EndChar

StartChar: tilde
Encoding: 732 732 431
Width: 739
VWidth: 0
Flags: HW
PickledData: "(dp1
S'org.robofab.postScriptHintData'
p2
(dp3
sS'com.typemytype.robofont.layerData'
p4
(dp5
S'b'
(dp6
S'name'
p7
S'tilde'
p8
sS'lib'
p9
(dp10
sS'unicodes'
p11
(tsS'width'
p12
F672.35000000000002
sS'contours'
p13
(tsS'components'
p14
(tsS'anchors'
p15
(tsss."
LayerCount: 2
Fore
SplineSet
515 1174 m 2
 514 1174 l 2
 416 1174 287 1281 226 1281 c 0
 201 1281 165 1255 158 1179 c 1
 -2 1179 l 1
 -2 1350 87 1470 216 1470 c 0
 334 1470 445 1371 501 1363 c 0
 506 1363 511 1362 516 1362 c 0
 550 1362 579 1379 578 1470 c 1
 740 1470 l 1
 740 1266 650 1175 515 1174 c 2
EndSplineSet
EndChar

StartChar: trademark
Encoding: 8482 8482 432
Width: 1869
VWidth: 0
Flags: HW
PickledData: "(dp1
S'org.robofab.postScriptHintData'
p2
(dp3
sS'com.typemytype.robofont.layerData'
p4
(dp5
S'b'
(dp6
S'name'
p7
S'trademark'
p8
sS'lib'
p9
(dp10
sS'unicodes'
p11
(tsS'width'
p12
F1869
sS'contours'
p13
(tsS'components'
p14
(tsS'anchors'
p15
(tsss."
LayerCount: 2
Fore
SplineSet
289 628 m 1
 289 1242 l 1
 73 1242 l 1
 73 1412 l 1
 707 1412 l 1
 707 1242 l 1
 483 1242 l 1
 483 628 l 1
 289 628 l 1
805 628 m 1
 805 1412 l 1
 1033 1412 l 1
 1260 922 l 1
 1483 1412 l 1
 1712 1412 l 1
 1712 628 l 1
 1514 628 l 1
 1514 1075 l 1
 1320 628 l 1
 1198 628 l 1
 998 1064 l 1
 998 628 l 1
 805 628 l 1
EndSplineSet
EndChar

StartChar: two
Encoding: 50 50 433
Width: 1272
VWidth: 0
Flags: HW
PickledData: "(dp1
S'org.robofab.postScriptHintData'
p2
(dp3
sS'com.typemytype.robofont.layerData'
p4
(dp5
S'b'
(dp6
S'name'
p7
S'two'
p8
sS'lib'
p9
(dp10
sS'unicodes'
p11
(tsS'width'
p12
F1244.5
sS'contours'
p13
(tsS'components'
p14
(tsS'anchors'
p15
(tsss."
LayerCount: 2
Fore
SplineSet
600 1481 m 0
 859 1481 1044 1322 1044 1008 c 0
 1044 778 913 643 790 513 c 2
 500 208 l 1
 1033 208 l 1
 1033 0 l 1
 189 0 l 1
 189 183 l 1
 610 651 l 2
 736 791 803 862 803 995 c 0
 803 1019 800 1046 796 1075 c 0
 771 1226 683 1266 578 1266 c 0
 405 1266 212 1138 211 1138 c 2
 126 1337 l 1
 126 1337 320 1481 600 1481 c 0
EndSplineSet
EndChar

StartChar: twosuperior
Encoding: 178 178 434
Width: 1072
VWidth: 0
Flags: HW
PickledData: "(dp1
S'org.robofab.postScriptHintData'
p2
(dp3
sS'com.typemytype.robofont.layerData'
p4
(dp5
s."
LayerCount: 2
Fore
SplineSet
225 613 m 1
 225 795 l 1
 486 1022 l 1
 603 1122 621 1171 621 1201 c 0
 621 1266 577 1287 519 1287 c 0
 452 1287 353 1259 269 1223 c 1
 209 1389 l 1
 317 1439 436 1466 534 1466 c 0
 694 1466 832 1390 832 1203 c 0
 832 1078 732 980 619 886 c 1
 530 813 l 1
 819 813 l 1
 819 613 l 1
 225 613 l 1
EndSplineSet
EndChar

StartChar: u
Encoding: 117 117 435
Width: 1186
VWidth: 0
Flags: HW
PickledData: "(dp1
S'org.robofab.postScriptHintData'
p2
(dp3
sS'com.typemytype.robofont.layerData'
p4
(dp5
S'b'
(dp6
S'name'
p7
S'u'
sS'lib'
p8
(dp9
sS'unicodes'
p10
(tsS'width'
p11
F1227.2
sS'contours'
p12
(tsS'components'
p13
(tsS'anchors'
p14
(tsss."
LayerCount: 2
Fore
SplineSet
524 -23 m 0
 274 -23 130 130 130 376 c 2
 130 1026 l 1
 376 1026 l 1
 376 380 l 2
 376 240 456 177 575 177 c 0
 720 177 793 244 793 411 c 2
 793 1026 l 1
 1041 1026 l 1
 1041 276 l 2
 1041 222 1053 0 1053 0 c 1
 797 0 l 1
 793 152 l 1
 781 103 704 -23 524 -23 c 0
EndSplineSet
EndChar

StartChar: underscore
Encoding: 95 95 446
Width: 1012
VWidth: 0
Flags: HW
PickledData: "(dp1
S'org.robofab.postScriptHintData'
p2
(dp3
sS'com.typemytype.robofont.layerData'
p4
(dp5
s."
LayerCount: 2
Fore
SplineSet
-14 -254 m 1
 -14 -59 l 1
 1025 -59 l 1
 1025 -254 l 1
 -14 -254 l 1
EndSplineSet
EndChar

StartChar: uni0307
Encoding: 775 775 459
Width: 524
VWidth: 0
Flags: HW
PickledData: "(dp1
S'org.robofab.postScriptHintData'
p2
(dp3
s."
LayerCount: 2
Fore
SplineSet
136 1153 m 1
 136 1386 l 1
 388 1386 l 1
 388 1153 l 1
 136 1153 l 1
EndSplineSet
EndChar

StartChar: uni030F
Encoding: 783 783 460
Width: 969
VWidth: 0
Flags: HW
PickledData: "(dp1
S'org.robofab.postScriptHintData'
p2
(dp3
s."
LayerCount: 2
Fore
SplineSet
561 1152 m 1
 352 1496 l 1
 56 1496 l 1
 374 1152 l 1
 561 1152 l 1
899 1152 m 1
 746 1496 l 1
 482 1496 l 1
 720 1152 l 1
 899 1152 l 1
EndSplineSet
EndChar

StartChar: uni0311
Encoding: 785 785 461
Width: 629
VWidth: 0
Flags: HW
PickledData: "(dp1
S'org.robofab.postScriptHintData'
p2
(dp3
sS'com.typemytype.robofont.layerData'
p4
(dp5
s."
LayerCount: 2
Fore
SplineSet
-14 1151 m 1
 0 1361 105 1454 314 1454 c 0
 522 1454 628 1360 642 1151 c 1
 455 1151 l 1
 447 1250 370 1267 312 1267 c 0
 256 1267 180 1251 175 1151 c 1
 -14 1151 l 1
EndSplineSet
EndChar

StartChar: uni0312
Encoding: 786 786 462
Width: 600
VWidth: 0
Flags: HW
PickledData: "(dp1
S'org.robofab.postScriptHintData'
p2
(dp3
s."
LayerCount: 2
Fore
SplineSet
582 1736 m 1
 470 1239 l 1
 192 1239 l 1
 372 1736 l 1
 582 1736 l 1
EndSplineSet
EndChar

StartChar: uni0326
Encoding: 806 806 463
Width: 540
VWidth: 0
Flags: HW
PickledData: "(dp1
S'org.robofab.postScriptHintData'
p2
(dp3
s."
LayerCount: 2
Fore
SplineSet
74 -647 m 1
 187 -142 l 1
 466 -142 l 1
 286 -647 l 1
 74 -647 l 1
EndSplineSet
EndChar

StartChar: uni2015
Encoding: 8213 8213 464
Width: 4095
VWidth: 0
Flags: HW
PickledData: "(dp1
S'org.robofab.postScriptHintData'
p2
(dp3
s."
LayerCount: 2
Fore
SplineSet
54 453 m 1
 54 641 l 1
 4041 641 l 1
 4041 453 l 1
 54 453 l 1
EndSplineSet
EndChar

StartChar: v
Encoding: 118 118 469
Width: 1126
VWidth: 0
Flags: HW
PickledData: "(dp1
S'org.robofab.postScriptHintData'
p2
(dp3
sS'com.typemytype.robofont.layerData'
p4
(dp5
S'b'
(dp6
S'name'
p7
S'v'
sS'lib'
p8
(dp9
sS'unicodes'
p10
(tsS'width'
p11
F1056.8
sS'contours'
p12
(tsS'components'
p13
(tsS'anchors'
p14
(tsss."
LayerCount: 2
Fore
SplineSet
449 0 m 1
 17 1026 l 1
 293 1026 l 1
 386 776 477 525 572 277 c 1
 663 525 752 776 841 1026 c 1
 1110 1026 l 1
 674 0 l 1
 449 0 l 1
EndSplineSet
EndChar

StartChar: w
Encoding: 119 119 470
Width: 1685
VWidth: 0
Flags: HW
PickledData: "(dp1
S'org.robofab.postScriptHintData'
p2
(dp3
sS'com.typemytype.robofont.layerData'
p4
(dp5
S'b'
(dp6
S'name'
p7
S'w'
sS'lib'
p8
(dp9
sS'unicodes'
p10
(tsS'width'
p11
F1634.0999999999999
sS'contours'
p12
(tsS'components'
p13
(tsS'anchors'
p14
(tsss."
LayerCount: 2
Fore
SplineSet
386 0 m 1
 14 1026 l 1
 278 1026 l 1
 356 786 434 546 512 305 c 1
 591 547 673 786 754 1026 c 1
 970 1026 l 1
 1047 785 1123 543 1201 303 c 1
 1279 546 1360 785 1440 1026 c 1
 1671 1026 l 1
 1282 0 l 1
 1075 0 l 1
 997 233 918 464 842 698 c 1
 760 464 677 233 594 0 c 1
 386 0 l 1
EndSplineSet
EndChar

StartChar: x
Encoding: 120 120 475
Width: 1040
VWidth: 0
Flags: HW
PickledData: "(dp1
S'org.robofab.postScriptHintData'
p2
(dp3
sS'com.fontlab.hintData'
p4
(dp5
S'hhints'
p6
((dp7
S'position'
p8
I0
sS'width'
p9
I21
s(dp10
g8
I1006
sg9
I20
stp11
ssS'com.typemytype.robofont.layerData'
p12
(dp13
S'b'
(dp14
S'name'
p15
S'x'
sS'lib'
p16
(dp17
sS'unicodes'
p18
(tsg9
F1062.8499999999999
sS'contours'
p19
(tsS'components'
p20
(tsS'anchors'
p21
(tsss."
HStem: 0 21<11 272 272 272 754 1029 1029 1029> 1006 20<28 304 28 28 771 1027 771 771>
LayerCount: 2
Fore
SplineSet
11 0 m 1
 381 500 l 1
 28 1026 l 1
 304 1026 l 1
 525 695 l 1
 771 1026 l 1
 1027 1026 l 1
 665 534 l 1
 1029 0 l 1
 754 0 l 1
 522 339 l 1
 272 0 l 1
 11 0 l 1
EndSplineSet
EndChar

StartChar: y
Encoding: 121 121 476
Width: 1114
VWidth: 0
Flags: HW
PickledData: "(dp1
S'org.robofab.postScriptHintData'
p2
(dp3
sS'com.typemytype.robofont.layerData'
p4
(dp5
S'b'
(dp6
S'name'
p7
S'y'
sS'lib'
p8
(dp9
sS'unicodes'
p10
(tsS'width'
p11
F1065.05
sS'contours'
p12
(tsS'components'
p13
(tsS'anchors'
p14
(tsss."
LayerCount: 2
Fore
SplineSet
254 -445 m 1
 150 -277 l 1
 334 -205 420 -136 452 -27 c 1
 466 23 l 1
 30 1026 l 1
 288 1026 l 1
 585 290 l 1
 841 1026 l 1
 1094 1026 l 1
 678 -56 l 1
 589 -278 421 -393 254 -445 c 1
EndSplineSet
EndChar

StartChar: yen
Encoding: 165 165 480
Width: 1280
VWidth: 0
Flags: HW
PickledData: "(dp1
S'org.robofab.postScriptHintData'
p2
(dp3
sS'com.typemytype.robofont.layerData'
p4
(dp5
S'b'
(dp6
S'name'
p7
S'yen'
p8
sS'lib'
p9
(dp10
sS'unicodes'
p11
(tsS'width'
p12
F1225.45
sS'contours'
p13
(tsS'components'
p14
(tsS'anchors'
p15
(tsss."
LayerCount: 2
Fore
SplineSet
136 275 m 1
 136 419 l 1
 507 419 l 1
 507 559 l 1
 136 559 l 1
 136 709 l 1
 422 709 l 1
 -12 1456 l 1
 277 1456 l 1
 638 789 l 1
 996 1456 l 1
 1292 1456 l 1
 847 709 l 1
 1131 709 l 1
 1131 559 l 1
 761 559 l 1
 761 419 l 1
 1134 419 l 1
 1134 275 l 1
 761 275 l 1
 761 0 l 1
 507 0 l 1
 507 275 l 1
 136 275 l 1
EndSplineSet
EndChar

StartChar: z
Encoding: 122 122 484
Width: 997
VWidth: 0
Flags: HW
PickledData: "(dp1
S'org.robofab.postScriptHintData'
p2
(dp3
sS'com.typemytype.robofont.layerData'
p4
(dp5
S'b'
(dp6
S'name'
p7
S'z'
sS'lib'
p8
(dp9
sS'unicodes'
p10
(tsS'width'
p11
F971.85000000000002
sS'contours'
p12
(tsS'components'
p13
(tsS'anchors'
p14
(tsss."
LayerCount: 2
Fore
SplineSet
97 0 m 1
 97 131 l 1
 581 828 l 1
 122 828 l 1
 122 1026 l 1
 903 1026 l 1
 903 897 l 1
 415 197 l 1
 929 197 l 1
 929 0 l 1
 97 0 l 1
EndSplineSet
EndChar

StartChar: zero
Encoding: 48 48 488
Width: 1272
VWidth: 0
Flags: HW
PickledData: "(dp1
S'org.robofab.postScriptHintData'
p2
(dp3
sS'com.typemytype.robofont.layerData'
p4
(dp5
s."
LayerCount: 2
Fore
SplineSet
636 -23 m 0
 306 -23 124 284 124 741 c 0
 124 1207 303 1483 638 1483 c 0
 971 1483 1148 1191 1148 741 c 0
 1148 287 973 -23 636 -23 c 0
640 194 m 0
 828 194 889 424 889 740 c 0
 889 1007 829 1266 641 1266 c 0
 444 1266 384 1009 384 739 c 0
 384 424 444 194 640 194 c 0
EndSplineSet
EndChar
